<?xml version="1.0" encoding="UTF-8" standalone="no"?><svg xmlns="http://www.w3.org/2000/svg" xmlns:xlink="http://www.w3.org/1999/xlink" clip-rule="evenodd" stroke-miterlimit="4.00" viewBox="0 0 1024 768"><desc>SVG generated by Keynote</desc><defs></defs><g transform="matrix(1.00, 0.00, -0.00, -1.00, 0.0, 768.0)"><path d="M 0.0 768.0 L 1024.0 768.0 L 1024.0 0.0 L 0.0 0.0 Z M 0.0 768.0 " fill="#FEFFFF"></path><text xml:space="preserve" font-family="Helvetica-Light" font-size="80.0" fill="#000000" transform="matrix(1.00, 0.00, -0.00, -1.00, 126.0, 618.0)">C</text><text xml:space="preserve" font-family="Helvetica-Light" font-size="80.0" fill="#000000" transform="matrix(1.00, 0.00, -0.00, -1.00, 183.8, 618.0)">r</text><text xml:space="preserve" font-family="Helvetica-Light" font-size="80.0" fill="#000000" transform="matrix(1.00, 0.00, -0.00, -1.00, 209.0, 618.0)">e</text><text xml:space="preserve" font-family="Helvetica-Light" font-size="80.0" fill="#000000" transform="matrix(1.00, 0.00, -0.00, -1.00, 253.4, 618.0)">a</text><text xml:space="preserve" font-family="Helvetica-Light" font-size="80.0" fill="#000000" transform="matrix(1.00, 0.00, -0.00, -1.00, 297.9, 618.0)">t</text><text xml:space="preserve" font-family="Helvetica-Light" font-size="80.0" fill="#000000" transform="matrix(1.00, 0.00, -0.00, -1.00, 320.2, 618.0)">i</text><text xml:space="preserve" font-family="Helvetica-Light" font-size="80.0" fill="#000000" transform="matrix(1.00, 0.00, -0.00, -1.00, 337.9, 618.0)">n</text><text xml:space="preserve" font-family="Helvetica-Light" font-size="80.0" fill="#000000" transform="matrix(1.00, 0.00, -0.00, -1.00, 382.4, 618.0)">g</text><text xml:space="preserve" font-family="Helvetica-Light" font-size="80.0" fill="#000000" transform="matrix(1.00, 0.00, -0.00, -1.00, 431.3, 618.0)"> </text><text xml:space="preserve" font-family="Helvetica-Light" font-size="80.0" fill="#000000" transform="matrix(1.00, 0.00, -0.00, -1.00, 453.5, 618.0)">D</text><text xml:space="preserve" font-family="Helvetica-Light" font-size="80.0" fill="#000000" transform="matrix(1.00, 0.00, -0.00, -1.00, 511.3, 618.0)">O</text><text xml:space="preserve" font-family="Helvetica-Light" font-size="80.0" fill="#000000" transform="matrix(1.00, 0.00, -0.00, -1.00, 573.5, 618.0)">M</text><text xml:space="preserve" font-family="Helvetica-Light" font-size="80.0" fill="#000000" transform="matrix(1.00, 0.00, -0.00, -1.00, 640.2, 618.0)"> </text><text xml:space="preserve" font-family="Helvetica-Light" font-size="80.0" fill="#000000" transform="matrix(1.00, 0.00, -0.00, -1.00, 662.4, 618.0)">N</text><text xml:space="preserve" font-family="Helvetica-Light" font-size="80.0" fill="#000000" transform="matrix(1.00, 0.00, -0.00, -1.00, 720.2, 618.0)">o</text><text xml:space="preserve" font-family="Helvetica-Light" font-size="80.0" fill="#000000" transform="matrix(1.00, 0.00, -0.00, -1.00, 764.6, 618.0)">d</text><text xml:space="preserve" font-family="Helvetica-Light" font-size="80.0" fill="#000000" transform="matrix(1.00, 0.00, -0.00, -1.00, 813.5, 618.0)">e</text><text xml:space="preserve" font-family="Helvetica-Light" font-size="80.0" fill="#000000" transform="matrix(1.00, 0.00, -0.00, -1.00, 858.0, 618.0)">s</text><text xml:space="preserve" font-family="Courier" font-size="24.0" fill="#000000" transform="matrix(1.00, 0.00, -0.00, -1.00, 79.0, 426.4)">•</text><text xml:space="preserve" font-family="Courier" font-size="32.0" fill="#000000" transform="matrix(1.00, 0.00, -0.00, -1.00, 114.0, 424.0)">d</text><text xml:space="preserve" font-family="Courier" font-size="32.0" fill="#000000" transform="matrix(1.00, 0.00, -0.00, -1.00, 133.2, 424.0)">o</text><text xml:space="preserve" font-family="Courier" font-size="32.0" fill="#000000" transform="matrix(1.00, 0.00, -0.00, -1.00, 152.4, 424.0)">c</text><text xml:space="preserve" font-family="Courier" font-size="32.0" fill="#000000" transform="matrix(1.00, 0.00, -0.00, -1.00, 171.6, 424.0)">u</text><text xml:space="preserve" font-family="Courier" font-size="32.0" fill="#000000" transform="matrix(1.00, 0.00, -0.00, -1.00, 190.8, 424.0)">m</text><text xml:space="preserve" font-family="Courier" font-size="32.0" fill="#000000" transform="matrix(1.00, 0.00, -0.00, -1.00, 210.0, 424.0)">e</text><text xml:space="preserve" font-family="Courier" font-size="32.0" fill="#000000" transform="matrix(1.00, 0.00, -0.00, -1.00, 229.2, 424.0)">n</text><text xml:space="preserve" font-family="Courier" font-size="32.0" fill="#000000" transform="matrix(1.00, 0.00, -0.00, -1.00, 248.4, 424.0)">t</text><text xml:space="preserve" font-family="Courier" font-size="32.0" fill="#000000" transform="matrix(1.00, 0.00, -0.00, -1.00, 267.7, 424.0)">.</text><text xml:space="preserve" font-family="Courier" font-size="32.0" fill="#C82505" transform="matrix(1.00, 0.00, -0.00, -1.00, 286.8, 424.0)">c</text><text xml:space="preserve" font-family="Courier" font-size="32.0" fill="#C82505" transform="matrix(1.00, 0.00, -0.00, -1.00, 306.0, 424.0)">r</text><text xml:space="preserve" font-family="Courier" font-size="32.0" fill="#C82505" transform="matrix(1.00, 0.00, -0.00, -1.00, 325.2, 424.0)">e</text><text xml:space="preserve" font-family="Courier" font-size="32.0" fill="#C82505" transform="matrix(1.00, 0.00, -0.00, -1.00, 344.4, 424.0)">a</text><text xml:space="preserve" font-family="Courier" font-size="32.0" fill="#C82505" transform="matrix(1.00, 0.00, -0.00, -1.00, 363.7, 424.0)">t</text><text xml:space="preserve" font-family="Courier" font-size="32.0" fill="#C82505" transform="matrix(1.00, 0.00, -0.00, -1.00, 382.9, 424.0)">e</text><text xml:space="preserve" font-family="Courier" font-size="32.0" fill="#C82505" transform="matrix(1.00, 0.00, -0.00, -1.00, 402.1, 424.0)">E</text><text xml:space="preserve" font-family="Courier" font-size="32.0" fill="#C82505" transform="matrix(1.00, 0.00, -0.00, -1.00, 421.3, 424.0)">l</text><text xml:space="preserve" font-family="Courier" font-size="32.0" fill="#C82505" transform="matrix(1.00, 0.00, -0.00, -1.00, 440.5, 424.0)">e</text><text xml:space="preserve" font-family="Courier" font-size="32.0" fill="#C82505" transform="matrix(1.00, 0.00, -0.00, -1.00, 459.7, 424.0)">m</text><text xml:space="preserve" font-family="Courier" font-size="32.0" fill="#C82505" transform="matrix(1.00, 0.00, -0.00, -1.00, 478.9, 424.0)">e</text><text xml:space="preserve" font-family="Courier" font-size="32.0" fill="#C82505" transform="matrix(1.00, 0.00, -0.00, -1.00, 498.1, 424.0)">n</text><text xml:space="preserve" font-family="Courier" font-size="32.0" fill="#C82505" transform="matrix(1.00, 0.00, -0.00, -1.00, 517.3, 424.0)">t</text><text xml:space="preserve" font-family="Courier" font-size="32.0" fill="#C82505" transform="matrix(1.00, 0.00, -0.00, -1.00, 536.5, 424.0)">(</text><text xml:space="preserve" font-family="Courier" font-size="32.0" fill="#C82505" transform="matrix(1.00, 0.00, -0.00, -1.00, 555.7, 424.0)">)</text><text xml:space="preserve" font-family="Courier" font-size="24.0" fill="#000000" transform="matrix(1.00, 0.00, -0.00, -1.00, 79.0, 346.4)">•</text><text xml:space="preserve" font-family="Courier" font-size="32.0" fill="#763E9B" transform="matrix(1.00, 0.00, -0.00, -1.00, 114.0, 344.0)">v</text><text xml:space="preserve" font-family="Courier" font-size="32.0" fill="#763E9B" transform="matrix(1.00, 0.00, -0.00, -1.00, 133.2, 344.0)">a</text><text xml:space="preserve" font-family="Courier" font-size="32.0" fill="#763E9B" transform="matrix(1.00, 0.00, -0.00, -1.00, 152.4, 344.0)">r</text><text xml:space="preserve" font-family="Courier" font-size="32.0" fill="#000000" transform="matrix(1.00, 0.00, -0.00, -1.00, 171.6, 344.0)"> </text><text xml:space="preserve" font-family="Courier" font-size="32.0" fill="#000000" transform="matrix(1.00, 0.00, -0.00, -1.00, 190.8, 344.0)">e</text><text xml:space="preserve" font-family="Courier" font-size="32.0" fill="#000000" transform="matrix(1.00, 0.00, -0.00, -1.00, 210.0, 344.0)">l</text><text xml:space="preserve" font-family="Courier" font-size="32.0" fill="#000000" transform="matrix(1.00, 0.00, -0.00, -1.00, 229.2, 344.0)">e</text><text xml:space="preserve" font-family="Courier" font-size="32.0" fill="#000000" transform="matrix(1.00, 0.00, -0.00, -1.00, 248.4, 344.0)">m</text><text xml:space="preserve" font-family="Courier" font-size="32.0" fill="#000000" transform="matrix(1.00, 0.00, -0.00, -1.00, 267.6, 344.0)">e</text><text xml:space="preserve" font-family="Courier" font-size="32.0" fill="#000000" transform="matrix(1.00, 0.00, -0.00, -1.00, 286.8, 344.0)">n</text><text xml:space="preserve" font-family="Courier" font-size="32.0" fill="#000000" transform="matrix(1.00, 0.00, -0.00, -1.00, 306.1, 344.0)">t</text><text xml:space="preserve" font-family="Courier" font-size="32.0" fill="#000000" transform="matrix(1.00, 0.00, -0.00, -1.00, 325.3, 344.0)"> </text><text xml:space="preserve" font-family="Courier" font-size="32.0" fill="#000000" transform="matrix(1.00, 0.00, -0.00, -1.00, 344.5, 344.0)">=</text><text xml:space="preserve" font-family="Courier" font-size="32.0" fill="#000000" transform="matrix(1.00, 0.00, -0.00, -1.00, 363.7, 344.0)"> </text><text xml:space="preserve" font-family="Courier" font-size="32.0" fill="#000000" transform="matrix(1.00, 0.00, -0.00, -1.00, 382.9, 344.0)">d</text><text xml:space="preserve" font-family="Courier" font-size="32.0" fill="#000000" transform="matrix(1.00, 0.00, -0.00, -1.00, 402.1, 344.0)">o</text><text xml:space="preserve" font-family="Courier" font-size="32.0" fill="#000000" transform="matrix(1.00, 0.00, -0.00, -1.00, 421.3, 344.0)">c</text><text xml:space="preserve" font-family="Courier" font-size="32.0" fill="#000000" transform="matrix(1.00, 0.00, -0.00, -1.00, 440.5, 344.0)">u</text><text xml:space="preserve" font-family="Courier" font-size="32.0" fill="#000000" transform="matrix(1.00, 0.00, -0.00, -1.00, 459.7, 344.0)">m</text><text xml:space="preserve" font-family="Courier" font-size="32.0" fill="#000000" transform="matrix(1.00, 0.00, -0.00, -1.00, 478.9, 344.0)">e</text><text xml:space="preserve" font-family="Courier" font-size="32.0" fill="#000000" transform="matrix(1.00, 0.00, -0.00, -1.00, 498.1, 344.0)">n</text><text xml:space="preserve" font-family="Courier" font-size="32.0" fill="#000000" transform="matrix(1.00, 0.00, -0.00, -1.00, 517.3, 344.0)">t</text><text xml:space="preserve" font-family="Courier" font-size="32.0" fill="#000000" transform="matrix(1.00, 0.00, -0.00, -1.00, 536.5, 344.0)">.</text><text xml:space="preserve" font-family="Courier" font-size="32.0" fill="#C82505" transform="matrix(1.00, 0.00, -0.00, -1.00, 555.7, 344.0)">c</text><text xml:space="preserve" font-family="Courier" font-size="32.0" fill="#C82505" transform="matrix(1.00, 0.00, -0.00, -1.00, 574.9, 344.0)">r</text><text xml:space="preserve" font-family="Courier" font-size="32.0" fill="#C82505" transform="matrix(1.00, 0.00, -0.00, -1.00, 594.1, 344.0)">e</text><text xml:space="preserve" font-family="Courier" font-size="32.0" fill="#C82505" transform="matrix(1.00, 0.00, -0.00, -1.00, 613.3, 344.0)">a</text><text xml:space="preserve" font-family="Courier" font-size="32.0" fill="#C82505" transform="matrix(1.00, 0.00, -0.00, -1.00, 632.5, 344.0)">t</text><text xml:space="preserve" font-family="Courier" font-size="32.0" fill="#C82505" transform="matrix(1.00, 0.00, -0.00, -1.00, 651.7, 344.0)">e</text><text xml:space="preserve" font-family="Courier" font-size="32.0" fill="#C82505" transform="matrix(1.00, 0.00, -0.00, -1.00, 670.9, 344.0)">E</text><text xml:space="preserve" font-family="Courier" font-size="32.0" fill="#C82505" transform="matrix(1.00, 0.00, -0.00, -1.00, 690.1, 344.0)">l</text><text xml:space="preserve" font-family="Courier" font-size="32.0" fill="#C82505" transform="matrix(1.00, 0.00, -0.00, -1.00, 709.3, 344.0)">e</text><text xml:space="preserve" font-family="Courier" font-size="32.0" fill="#C82505" transform="matrix(1.00, 0.00, -0.00, -1.00, 728.5, 344.0)">m</text><text xml:space="preserve" font-family="Courier" font-size="32.0" fill="#C82505" transform="matrix(1.00, 0.00, -0.00, -1.00, 747.7, 344.0)">e</text><text xml:space="preserve" font-family="Courier" font-size="32.0" fill="#C82505" transform="matrix(1.00, 0.00, -0.00, -1.00, 766.9, 344.0)">n</text><text xml:space="preserve" font-family="Courier" font-size="32.0" fill="#C82505" transform="matrix(1.00, 0.00, -0.00, -1.00, 786.1, 344.0)">t</text><text xml:space="preserve" font-family="Courier" font-size="32.0" fill="#000000" transform="matrix(1.00, 0.00, -0.00, -1.00, 805.3, 344.0)">(</text><text xml:space="preserve" font-family="Courier" font-size="32.0" fill="#000000" transform="matrix(1.00, 0.00, -0.00, -1.00, 824.5, 344.0)">‘</text><text xml:space="preserve" font-family="Courier" font-size="32.0" fill="#F38F18" transform="matrix(1.00, 0.00, -0.00, -1.00, 843.7, 344.0)">d</text><text xml:space="preserve" font-family="Courier" font-size="32.0" fill="#F38F18" transform="matrix(1.00, 0.00, -0.00, -1.00, 862.9, 344.0)">i</text><text xml:space="preserve" font-family="Courier" font-size="32.0" fill="#F38F18" transform="matrix(1.00, 0.00, -0.00, -1.00, 882.1, 344.0)">v</text><text xml:space="preserve" font-family="Courier" font-size="32.0" fill="#000000" transform="matrix(1.00, 0.00, -0.00, -1.00, 901.3, 344.0)">'</text><text xml:space="preserve" font-family="Courier" font-size="32.0" fill="#000000" transform="matrix(1.00, 0.00, -0.00, -1.00, 920.5, 344.0)">)</text><text xml:space="preserve" font-family="Courier" font-size="24.0" fill="#000000" transform="matrix(1.00, 0.00, -0.00, -1.00, 79.0, 266.4)">•</text><text xml:space="preserve" font-family="Courier" font-size="32.0" fill="#000000" transform="matrix(1.00, 0.00, -0.00, -1.00, 114.0, 264.0)">e</text><text xml:space="preserve" font-family="Courier" font-size="32.0" fill="#000000" transform="matrix(1.00, 0.00, -0.00, -1.00, 133.2, 264.0)">l</text><text xml:space="preserve" font-family="Courier" font-size="32.0" fill="#000000" transform="matrix(1.00, 0.00, -0.00, -1.00, 152.4, 264.0)">e</text><text xml:space="preserve" font-family="Courier" font-size="32.0" fill="#000000" transform="matrix(1.00, 0.00, -0.00, -1.00, 171.6, 264.0)">m</text><text xml:space="preserve" font-family="Courier" font-size="32.0" fill="#000000" transform="matrix(1.00, 0.00, -0.00, -1.00, 190.8, 264.0)">e</text><text xml:space="preserve" font-family="Courier" font-size="32.0" fill="#000000" transform="matrix(1.00, 0.00, -0.00, -1.00, 210.0, 264.0)">n</text><text xml:space="preserve" font-family="Courier" font-size="32.0" fill="#000000" transform="matrix(1.00, 0.00, -0.00, -1.00, 229.2, 264.0)">t</text><text xml:space="preserve" font-family="Courier" font-size="32.0" fill="#000000" transform="matrix(1.00, 0.00, -0.00, -1.00, 248.4, 264.0)">.</text><text xml:space="preserve" font-family="Courier" font-size="32.0" fill="#0264C0" transform="matrix(1.00, 0.00, -0.00, -1.00, 267.6, 264.0)">i</text><text xml:space="preserve" font-family="Courier" font-size="32.0" fill="#0264C0" transform="matrix(1.00, 0.00, -0.00, -1.00, 286.8, 264.0)">n</text><text xml:space="preserve" font-family="Courier" font-size="32.0" fill="#0264C0" transform="matrix(1.00, 0.00, -0.00, -1.00, 306.0, 264.0)">n</text><text xml:space="preserve" font-family="Courier" font-size="32.0" fill="#0264C0" transform="matrix(1.00, 0.00, -0.00, -1.00, 325.2, 264.0)">e</text><text xml:space="preserve" font-family="Courier" font-size="32.0" fill="#0264C0" transform="matrix(1.00, 0.00, -0.00, -1.00, 344.5, 264.0)">r</text><text xml:space="preserve" font-family="Courier" font-size="32.0" fill="#0264C0" transform="matrix(1.00, 0.00, -0.00, -1.00, 363.7, 264.0)">H</text><text xml:space="preserve" font-family="Courier" font-size="32.0" fill="#0264C0" transform="matrix(1.00, 0.00, -0.00, -1.00, 382.9, 264.0)">T</text><text xml:space="preserve" font-family="Courier" font-size="32.0" fill="#0264C0" transform="matrix(1.00, 0.00, -0.00, -1.00, 402.1, 264.0)">M</text><text xml:space="preserve" font-family="Courier" font-size="32.0" fill="#0264C0" transform="matrix(1.00, 0.00, -0.00, -1.00, 421.3, 264.0)">L</text><text xml:space="preserve" font-family="Courier" font-size="32.0" fill="#000000" transform="matrix(1.00, 0.00, -0.00, -1.00, 440.5, 264.0)"> </text><text xml:space="preserve" font-family="Courier" font-size="32.0" fill="#000000" transform="matrix(1.00, 0.00, -0.00, -1.00, 459.7, 264.0)">=</text><text xml:space="preserve" font-family="Courier" font-size="32.0" fill="#000000" transform="matrix(1.00, 0.00, -0.00, -1.00, 478.9, 264.0)"> </text><text xml:space="preserve" font-family="Courier" font-size="32.0" fill="#000000" transform="matrix(1.00, 0.00, -0.00, -1.00, 498.1, 264.0)">'</text><text xml:space="preserve" font-family="Courier" font-size="32.0" fill="#DE6A10" transform="matrix(1.00, 0.00, -0.00, -1.00, 517.3, 264.0)">H</text><text xml:space="preserve" font-family="Courier" font-size="32.0" fill="#DE6A10" transform="matrix(1.00, 0.00, -0.00, -1.00, 536.5, 264.0)">e</text><text xml:space="preserve" font-family="Courier" font-size="32.0" fill="#DE6A10" transform="matrix(1.00, 0.00, -0.00, -1.00, 555.7, 264.0)">l</text><text xml:space="preserve" font-family="Courier" font-size="32.0" fill="#DE6A10" transform="matrix(1.00, 0.00, -0.00, -1.00, 574.9, 264.0)">l</text><text xml:space="preserve" font-family="Courier" font-size="32.0" fill="#DE6A10" transform="matrix(1.00, 0.00, -0.00, -1.00, 594.1, 264.0)">o</text><text xml:space="preserve" font-family="Courier" font-size="32.0" fill="#DE6A10" transform="matrix(1.00, 0.00, -0.00, -1.00, 613.3, 264.0)">,</text><text xml:space="preserve" font-family="Courier" font-size="32.0" fill="#DE6A10" transform="matrix(1.00, 0.00, -0.00, -1.00, 632.5, 264.0)"> </text><text xml:space="preserve" font-family="Courier" font-size="32.0" fill="#DE6A10" transform="matrix(1.00, 0.00, -0.00, -1.00, 651.7, 264.0)">D</text><text xml:space="preserve" font-family="Courier" font-size="32.0" fill="#DE6A10" transform="matrix(1.00, 0.00, -0.00, -1.00, 670.9, 264.0)">O</text><text xml:space="preserve" font-family="Courier" font-size="32.0" fill="#DE6A10" transform="matrix(1.00, 0.00, -0.00, -1.00, 690.1, 264.0)">M</text><text xml:space="preserve" font-family="Courier" font-size="32.0" fill="#DE6A10" transform="matrix(1.00, 0.00, -0.00, -1.00, 709.3, 264.0)">!</text><text xml:space="preserve" font-family="Courier" font-size="32.0" fill="#000000" transform="matrix(1.00, 0.00, -0.00, -1.00, 728.5, 264.0)">'</text><text xml:space="preserve" font-family="Courier" font-size="24.0" fill="#000000" transform="matrix(1.00, 0.00, -0.00, -1.00, 79.0, 186.4)">•</text><text xml:space="preserve" font-family="Courier" font-size="32.0" fill="#000000" transform="matrix(1.00, 0.00, -0.00, -1.00, 114.0, 184.0)">e</text><text xml:space="preserve" font-family="Courier" font-size="32.0" fill="#000000" transform="matrix(1.00, 0.00, -0.00, -1.00, 133.2, 184.0)">l</text><text xml:space="preserve" font-family="Courier" font-size="32.0" fill="#000000" transform="matrix(1.00, 0.00, -0.00, -1.00, 152.4, 184.0)">e</text><text xml:space="preserve" font-family="Courier" font-size="32.0" fill="#000000" transform="matrix(1.00, 0.00, -0.00, -1.00, 171.6, 184.0)">m</text><text xml:space="preserve" font-family="Courier" font-size="32.0" fill="#000000" transform="matrix(1.00, 0.00, -0.00, -1.00, 190.8, 184.0)">e</text><text xml:space="preserve" font-family="Courier" font-size="32.0" fill="#000000" transform="matrix(1.00, 0.00, -0.00, -1.00, 210.0, 184.0)">n</text><text xml:space="preserve" font-family="Courier" font-size="32.0" fill="#000000" transform="matrix(1.00, 0.00, -0.00, -1.00, 229.2, 184.0)">t</text><text xml:space="preserve" font-family="Courier" font-size="32.0" fill="#000000" transform="matrix(1.00, 0.00, -0.00, -1.00, 248.4, 184.0)">.</text><text xml:space="preserve" font-family="Courier" font-size="32.0" fill="#164E86" transform="matrix(1.00, 0.00, -0.00, -1.00, 267.6, 184.0)">s</text><text xml:space="preserve" font-family="Courier" font-size="32.0" fill="#164E86" transform="matrix(1.00, 0.00, -0.00, -1.00, 286.8, 184.0)">t</text><text xml:space="preserve" font-family="Courier" font-size="32.0" fill="#164E86" transform="matrix(1.00, 0.00, -0.00, -1.00, 306.0, 184.0)">y</text><text xml:space="preserve" font-family="Courier" font-size="32.0" fill="#164E86" transform="matrix(1.00, 0.00, -0.00, -1.00, 325.2, 184.0)">l</text><text xml:space="preserve" font-family="Courier" font-size="32.0" fill="#164E86" transform="matrix(1.00, 0.00, -0.00, -1.00, 344.5, 184.0)">e</text><text xml:space="preserve" font-family="Courier" font-size="32.0" fill="#164E86" transform="matrix(1.00, 0.00, -0.00, -1.00, 363.7, 184.0)">.</text><text xml:space="preserve" font-family="Courier" font-size="32.0" fill="#164E86" transform="matrix(1.00, 0.00, -0.00, -1.00, 382.9, 184.0)">b</text><text xml:space="preserve" font-family="Courier" font-size="32.0" fill="#164E86" transform="matrix(1.00, 0.00, -0.00, -1.00, 402.1, 184.0)">a</text><text xml:space="preserve" font-family="Courier" font-size="32.0" fill="#164E86" transform="matrix(1.00, 0.00, -0.00, -1.00, 421.3, 184.0)">c</text><text xml:space="preserve" font-family="Courier" font-size="32.0" fill="#164E86" transform="matrix(1.00, 0.00, -0.00, -1.00, 440.5, 184.0)">k</text><text xml:space="preserve" font-family="Courier" font-size="32.0" fill="#164E86" transform="matrix(1.00, 0.00, -0.00, -1.00, 459.7, 184.0)">g</text><text xml:space="preserve" font-family="Courier" font-size="32.0" fill="#164E86" transform="matrix(1.00, 0.00, -0.00, -1.00, 478.9, 184.0)">r</text><text xml:space="preserve" font-family="Courier" font-size="32.0" fill="#164E86" transform="matrix(1.00, 0.00, -0.00, -1.00, 498.1, 184.0)">o</text><text xml:space="preserve" font-family="Courier" font-size="32.0" fill="#164E86" transform="matrix(1.00, 0.00, -0.00, -1.00, 517.3, 184.0)">u</text><text xml:space="preserve" font-family="Courier" font-size="32.0" fill="#164E86" transform="matrix(1.00, 0.00, -0.00, -1.00, 536.5, 184.0)">n</text><text xml:space="preserve" font-family="Courier" font-size="32.0" fill="#164E86" transform="matrix(1.00, 0.00, -0.00, -1.00, 555.7, 184.0)">d</text><text xml:space="preserve" font-family="Courier" font-size="32.0" fill="#164E86" transform="matrix(1.00, 0.00, -0.00, -1.00, 574.9, 184.0)">C</text><text xml:space="preserve" font-family="Courier" font-size="32.0" fill="#164E86" transform="matrix(1.00, 0.00, -0.00, -1.00, 594.1, 184.0)">o</text><text xml:space="preserve" font-family="Courier" font-size="32.0" fill="#164E86" transform="matrix(1.00, 0.00, -0.00, -1.00, 613.3, 184.0)">l</text><text xml:space="preserve" font-family="Courier" font-size="32.0" fill="#164E86" transform="matrix(1.00, 0.00, -0.00, -1.00, 632.5, 184.0)">o</text><text xml:space="preserve" font-family="Courier" font-size="32.0" fill="#164E86" transform="matrix(1.00, 0.00, -0.00, -1.00, 651.8, 184.0)">r</text><text xml:space="preserve" font-family="Courier" font-size="32.0" fill="#000000" transform="matrix(1.00, 0.00, -0.00, -1.00, 670.9, 184.0)"> </text><text xml:space="preserve" font-family="Courier" font-size="32.0" fill="#000000" transform="matrix(1.00, 0.00, -0.00, -1.00, 690.1, 184.0)">=</text><text xml:space="preserve" font-family="Courier" font-size="32.0" fill="#000000" transform="matrix(1.00, 0.00, -0.00, -1.00, 709.3, 184.0)"> </text><text xml:space="preserve" font-family="Courier" font-size="32.0" fill="#000000" transform="matrix(1.00, 0.00, -0.00, -1.00, 728.5, 184.0)">'</text><text xml:space="preserve" font-family="Courier" font-size="32.0" fill="#000000" transform="matrix(1.00, 0.00, -0.00, -1.00, 747.7, 184.0)">#</text><text xml:space="preserve" font-family="Courier" font-size="32.0" fill="#000000" transform="matrix(1.00, 0.00, -0.00, -1.00, 766.9, 184.0)">f</text><text xml:space="preserve" font-family="Courier" font-size="32.0" fill="#000000" transform="matrix(1.00, 0.00, -0.00, -1.00, 786.1, 184.0)">9</text><text xml:space="preserve" font-family="Courier" font-size="32.0" fill="#000000" transform="matrix(1.00, 0.00, -0.00, -1.00, 805.3, 184.0)">f</text><text xml:space="preserve" font-family="Courier" font-size="32.0" fill="#000000" transform="matrix(1.00, 0.00, -0.00, -1.00, 824.5, 184.0)">9</text><text xml:space="preserve" font-family="Courier" font-size="32.0" fill="#000000" transform="matrix(1.00, 0.00, -0.00, -1.00, 843.7, 184.0)">f</text><text xml:space="preserve" font-family="Courier" font-size="32.0" fill="#000000" transform="matrix(1.00, 0.00, -0.00, -1.00, 863.0, 184.0)">9</text><text xml:space="preserve" font-family="Courier" font-size="32.0" fill="#000000" transform="matrix(1.00, 0.00, -0.00, -1.00, 882.2, 184.0)">'</text><text xml:space="preserve" font-family="Courier" font-size="32.0" fill="#000000" transform="matrix(1.00, 0.00, -0.00, -1.00, 901.4, 184.0)">;</text></g></svg>