<?xml version="1.0" encoding="UTF-8" standalone="no"?><svg xmlns="http://www.w3.org/2000/svg" xmlns:xlink="http://www.w3.org/1999/xlink" clip-rule="evenodd" stroke-miterlimit="4.00" viewBox="0 0 1024 768"><desc>SVG generated by Keynote</desc><defs></defs><g transform="matrix(1.00, 0.00, -0.00, -1.00, 0.0, 768.0)"><path d="M 0.0 768.0 L 1024.0 768.0 L 1024.0 0.0 L 0.0 0.0 Z M 0.0 768.0 " fill="#FEFFFF"></path><text xml:space="preserve" font-family="Helvetica-Light" font-size="80.0" fill="#000000" transform="matrix(1.00, 0.00, -0.00, -1.00, 99.0, 618.0)">R</text><text xml:space="preserve" font-family="Helvetica-Light" font-size="80.0" fill="#000000" transform="matrix(1.00, 0.00, -0.00, -1.00, 152.4, 618.0)">e</text><text xml:space="preserve" font-family="Helvetica-Light" font-size="80.0" fill="#000000" transform="matrix(1.00, 0.00, -0.00, -1.00, 196.8, 618.0)">m</text><text xml:space="preserve" font-family="Helvetica-Light" font-size="80.0" fill="#000000" transform="matrix(1.00, 0.00, -0.00, -1.00, 263.5, 618.0)">o</text><text xml:space="preserve" font-family="Helvetica-Light" font-size="80.0" fill="#000000" transform="matrix(1.00, 0.00, -0.00, -1.00, 308.0, 618.0)">v</text><text xml:space="preserve" font-family="Helvetica-Light" font-size="80.0" fill="#000000" transform="matrix(1.00, 0.00, -0.00, -1.00, 348.0, 618.0)">i</text><text xml:space="preserve" font-family="Helvetica-Light" font-size="80.0" fill="#000000" transform="matrix(1.00, 0.00, -0.00, -1.00, 365.7, 618.0)">n</text><text xml:space="preserve" font-family="Helvetica-Light" font-size="80.0" fill="#000000" transform="matrix(1.00, 0.00, -0.00, -1.00, 410.2, 618.0)">g</text><text xml:space="preserve" font-family="Helvetica-Light" font-size="80.0" fill="#000000" transform="matrix(1.00, 0.00, -0.00, -1.00, 459.1, 618.0)"> </text><text xml:space="preserve" font-family="Helvetica-Light" font-size="80.0" fill="#000000" transform="matrix(1.00, 0.00, -0.00, -1.00, 481.3, 618.0)">D</text><text xml:space="preserve" font-family="Helvetica-Light" font-size="80.0" fill="#000000" transform="matrix(1.00, 0.00, -0.00, -1.00, 539.1, 618.0)">O</text><text xml:space="preserve" font-family="Helvetica-Light" font-size="80.0" fill="#000000" transform="matrix(1.00, 0.00, -0.00, -1.00, 601.3, 618.0)">M</text><text xml:space="preserve" font-family="Helvetica-Light" font-size="80.0" fill="#000000" transform="matrix(1.00, 0.00, -0.00, -1.00, 668.0, 618.0)"> </text><text xml:space="preserve" font-family="Helvetica-Light" font-size="80.0" fill="#000000" transform="matrix(1.00, 0.00, -0.00, -1.00, 690.2, 618.0)">N</text><text xml:space="preserve" font-family="Helvetica-Light" font-size="80.0" fill="#000000" transform="matrix(1.00, 0.00, -0.00, -1.00, 748.0, 618.0)">o</text><text xml:space="preserve" font-family="Helvetica-Light" font-size="80.0" fill="#000000" transform="matrix(1.00, 0.00, -0.00, -1.00, 792.4, 618.0)">d</text><text xml:space="preserve" font-family="Helvetica-Light" font-size="80.0" fill="#000000" transform="matrix(1.00, 0.00, -0.00, -1.00, 841.3, 618.0)">e</text><text xml:space="preserve" font-family="Helvetica-Light" font-size="80.0" fill="#000000" transform="matrix(1.00, 0.00, -0.00, -1.00, 885.8, 618.0)">s</text><text xml:space="preserve" font-family="Helvetica-Light" font-size="20.2" fill="#000000" transform="matrix(1.00, 0.00, -0.00, -1.00, 79.0, 397.7)">•</text><text xml:space="preserve" font-family="Helvetica-Light" font-size="27.0" fill="#000000" transform="matrix(1.00, 0.00, -0.00, -1.00, 105.0, 396.0)">W</text><text xml:space="preserve" font-family="Helvetica-Light" font-size="27.0" fill="#000000" transform="matrix(1.00, 0.00, -0.00, -1.00, 128.5, 396.0)">e</text><text xml:space="preserve" font-family="Helvetica-Light" font-size="27.0" fill="#000000" transform="matrix(1.00, 0.00, -0.00, -1.00, 143.5, 396.0)"> </text><text xml:space="preserve" font-family="Helvetica-Light" font-size="27.0" fill="#000000" transform="matrix(1.00, 0.00, -0.00, -1.00, 151.0, 396.0)">c</text><text xml:space="preserve" font-family="Helvetica-Light" font-size="27.0" fill="#000000" transform="matrix(1.00, 0.00, -0.00, -1.00, 166.0, 396.0)">a</text><text xml:space="preserve" font-family="Helvetica-Light" font-size="27.0" fill="#000000" transform="matrix(1.00, 0.00, -0.00, -1.00, 181.1, 396.0)">n</text><text xml:space="preserve" font-family="Helvetica-Light" font-size="27.0" fill="#000000" transform="matrix(1.00, 0.00, -0.00, -1.00, 196.1, 396.0)"> </text><text xml:space="preserve" font-family="Helvetica-Light" font-size="27.0" fill="#000000" transform="matrix(1.00, 0.00, -0.00, -1.00, 203.6, 396.0)">r</text><text xml:space="preserve" font-family="Helvetica-Light" font-size="27.0" fill="#000000" transform="matrix(1.00, 0.00, -0.00, -1.00, 212.1, 396.0)">e</text><text xml:space="preserve" font-family="Helvetica-Light" font-size="27.0" fill="#000000" transform="matrix(1.00, 0.00, -0.00, -1.00, 227.1, 396.0)">m</text><text xml:space="preserve" font-family="Helvetica-Light" font-size="27.0" fill="#000000" transform="matrix(1.00, 0.00, -0.00, -1.00, 249.6, 396.0)">o</text><text xml:space="preserve" font-family="Helvetica-Light" font-size="27.0" fill="#000000" transform="matrix(1.00, 0.00, -0.00, -1.00, 264.6, 396.0)">v</text><text xml:space="preserve" font-family="Helvetica-Light" font-size="27.0" fill="#000000" transform="matrix(1.00, 0.00, -0.00, -1.00, 278.1, 396.0)">e</text><text xml:space="preserve" font-family="Helvetica-Light" font-size="27.0" fill="#000000" transform="matrix(1.00, 0.00, -0.00, -1.00, 293.1, 396.0)"> </text><text xml:space="preserve" font-family="Helvetica-Light" font-size="27.0" fill="#000000" transform="matrix(1.00, 0.00, -0.00, -1.00, 300.6, 396.0)">a</text><text xml:space="preserve" font-family="Helvetica-Light" font-size="27.0" fill="#000000" transform="matrix(1.00, 0.00, -0.00, -1.00, 315.6, 396.0)"> </text><text xml:space="preserve" font-family="Helvetica-Light" font-size="27.0" fill="#000000" transform="matrix(1.00, 0.00, -0.00, -1.00, 323.1, 396.0)">s</text><text xml:space="preserve" font-family="Helvetica-Light" font-size="27.0" fill="#000000" transform="matrix(1.00, 0.00, -0.00, -1.00, 336.6, 396.0)">p</text><text xml:space="preserve" font-family="Helvetica-Light" font-size="27.0" fill="#000000" transform="matrix(1.00, 0.00, -0.00, -1.00, 353.1, 396.0)">e</text><text xml:space="preserve" font-family="Helvetica-Light" font-size="27.0" fill="#000000" transform="matrix(1.00, 0.00, -0.00, -1.00, 368.1, 396.0)">c</text><text xml:space="preserve" font-family="Helvetica-Light" font-size="27.0" fill="#000000" transform="matrix(1.00, 0.00, -0.00, -1.00, 383.2, 396.0)">i</text><text xml:space="preserve" font-family="Helvetica-Light" font-size="27.0" fill="#000000" transform="matrix(1.00, 0.00, -0.00, -1.00, 389.1, 396.0)">ﬁ</text><text xml:space="preserve" font-family="Helvetica-Light" font-size="27.0" fill="#000000" transform="matrix(1.00, 0.00, -0.00, -1.00, 402.6, 396.0)">c</text><text xml:space="preserve" font-family="Helvetica-Light" font-size="27.0" fill="#000000" transform="matrix(1.00, 0.00, -0.00, -1.00, 417.7, 396.0)"> </text><text xml:space="preserve" font-family="Helvetica-Light" font-size="27.0" fill="#000000" transform="matrix(1.00, 0.00, -0.00, -1.00, 425.2, 396.0)">e</text><text xml:space="preserve" font-family="Helvetica-Light" font-size="27.0" fill="#000000" transform="matrix(1.00, 0.00, -0.00, -1.00, 440.2, 396.0)">l</text><text xml:space="preserve" font-family="Helvetica-Light" font-size="27.0" fill="#000000" transform="matrix(1.00, 0.00, -0.00, -1.00, 446.2, 396.0)">e</text><text xml:space="preserve" font-family="Helvetica-Light" font-size="27.0" fill="#000000" transform="matrix(1.00, 0.00, -0.00, -1.00, 461.2, 396.0)">m</text><text xml:space="preserve" font-family="Helvetica-Light" font-size="27.0" fill="#000000" transform="matrix(1.00, 0.00, -0.00, -1.00, 483.7, 396.0)">e</text><text xml:space="preserve" font-family="Helvetica-Light" font-size="27.0" fill="#000000" transform="matrix(1.00, 0.00, -0.00, -1.00, 498.7, 396.0)">n</text><text xml:space="preserve" font-family="Helvetica-Light" font-size="27.0" fill="#000000" transform="matrix(1.00, 0.00, -0.00, -1.00, 513.7, 396.0)">t</text><text xml:space="preserve" font-family="Helvetica-Light" font-size="27.0" fill="#000000" transform="matrix(1.00, 0.00, -0.00, -1.00, 521.2, 396.0)">:</text><text xml:space="preserve" font-family="Helvetica-Light" font-size="27.0" fill="#000000" transform="matrix(1.00, 0.00, -0.00, -1.00, 528.7, 396.0)"> </text><text xml:space="preserve" font-family="CourierNewPSMT" font-size="27.0" fill="#CC1C00" transform="matrix(1.00, 0.00, -0.00, -1.00, 79.0, 338.0)"> </text><text xml:space="preserve" font-family="CourierNewPSMT" font-size="27.0" fill="#CC1C00" transform="matrix(1.00, 0.00, -0.00, -1.00, 95.2, 338.0)"> </text><text xml:space="preserve" font-family="CourierNewPSMT" font-size="27.0" fill="#000000" transform="matrix(1.00, 0.00, -0.00, -1.00, 111.4, 338.0)">u</text><text xml:space="preserve" font-family="CourierNewPSMT" font-size="27.0" fill="#000000" transform="matrix(1.00, 0.00, -0.00, -1.00, 127.6, 338.0)">l</text><text xml:space="preserve" font-family="CourierNewPSMT" font-size="27.0" fill="#000000" transform="matrix(1.00, 0.00, -0.00, -1.00, 143.8, 338.0)">.</text><text xml:space="preserve" font-family="CourierNewPSMT" font-size="27.0" fill="#021993" transform="matrix(1.00, 0.00, -0.00, -1.00, 160.0, 338.0)">r</text><text xml:space="preserve" font-family="CourierNewPSMT" font-size="27.0" fill="#021993" transform="matrix(1.00, 0.00, -0.00, -1.00, 176.2, 338.0)">e</text><text xml:space="preserve" font-family="CourierNewPSMT" font-size="27.0" fill="#021993" transform="matrix(1.00, 0.00, -0.00, -1.00, 192.4, 338.0)">m</text><text xml:space="preserve" font-family="CourierNewPSMT" font-size="27.0" fill="#021993" transform="matrix(1.00, 0.00, -0.00, -1.00, 208.6, 338.0)">o</text><text xml:space="preserve" font-family="CourierNewPSMT" font-size="27.0" fill="#021993" transform="matrix(1.00, 0.00, -0.00, -1.00, 224.8, 338.0)">v</text><text xml:space="preserve" font-family="CourierNewPSMT" font-size="27.0" fill="#021993" transform="matrix(1.00, 0.00, -0.00, -1.00, 241.0, 338.0)">e</text><text xml:space="preserve" font-family="CourierNewPSMT" font-size="27.0" fill="#021993" transform="matrix(1.00, 0.00, -0.00, -1.00, 257.2, 338.0)">C</text><text xml:space="preserve" font-family="CourierNewPSMT" font-size="27.0" fill="#021993" transform="matrix(1.00, 0.00, -0.00, -1.00, 273.5, 338.0)">h</text><text xml:space="preserve" font-family="CourierNewPSMT" font-size="27.0" fill="#021993" transform="matrix(1.00, 0.00, -0.00, -1.00, 289.7, 338.0)">i</text><text xml:space="preserve" font-family="CourierNewPSMT" font-size="27.0" fill="#021993" transform="matrix(1.00, 0.00, -0.00, -1.00, 305.9, 338.0)">l</text><text xml:space="preserve" font-family="CourierNewPSMT" font-size="27.0" fill="#021993" transform="matrix(1.00, 0.00, -0.00, -1.00, 322.1, 338.0)">d</text><text xml:space="preserve" font-family="CourierNewPSMT" font-size="27.0" fill="#000000" transform="matrix(1.00, 0.00, -0.00, -1.00, 338.2, 338.0)">(</text><text xml:space="preserve" font-family="CourierNewPSMT" font-size="27.0" fill="#000000" transform="matrix(1.00, 0.00, -0.00, -1.00, 354.4, 338.0)">u</text><text xml:space="preserve" font-family="CourierNewPSMT" font-size="27.0" fill="#000000" transform="matrix(1.00, 0.00, -0.00, -1.00, 370.7, 338.0)">l</text><text xml:space="preserve" font-family="CourierNewPSMT" font-size="27.0" fill="#000000" transform="matrix(1.00, 0.00, -0.00, -1.00, 386.9, 338.0)">.</text><text xml:space="preserve" font-family="CourierNewPSMT" font-size="27.0" fill="#021993" transform="matrix(1.00, 0.00, -0.00, -1.00, 403.1, 338.0)">q</text><text xml:space="preserve" font-family="CourierNewPSMT" font-size="27.0" fill="#021993" transform="matrix(1.00, 0.00, -0.00, -1.00, 419.3, 338.0)">u</text><text xml:space="preserve" font-family="CourierNewPSMT" font-size="27.0" fill="#021993" transform="matrix(1.00, 0.00, -0.00, -1.00, 435.5, 338.0)">e</text><text xml:space="preserve" font-family="CourierNewPSMT" font-size="27.0" fill="#021993" transform="matrix(1.00, 0.00, -0.00, -1.00, 451.7, 338.0)">r</text><text xml:space="preserve" font-family="CourierNewPSMT" font-size="27.0" fill="#021993" transform="matrix(1.00, 0.00, -0.00, -1.00, 467.9, 338.0)">y</text><text xml:space="preserve" font-family="CourierNewPSMT" font-size="27.0" fill="#021993" transform="matrix(1.00, 0.00, -0.00, -1.00, 484.1, 338.0)">S</text><text xml:space="preserve" font-family="CourierNewPSMT" font-size="27.0" fill="#021993" transform="matrix(1.00, 0.00, -0.00, -1.00, 500.3, 338.0)">e</text><text xml:space="preserve" font-family="CourierNewPSMT" font-size="27.0" fill="#021993" transform="matrix(1.00, 0.00, -0.00, -1.00, 516.5, 338.0)">l</text><text xml:space="preserve" font-family="CourierNewPSMT" font-size="27.0" fill="#021993" transform="matrix(1.00, 0.00, -0.00, -1.00, 532.7, 338.0)">e</text><text xml:space="preserve" font-family="CourierNewPSMT" font-size="27.0" fill="#021993" transform="matrix(1.00, 0.00, -0.00, -1.00, 548.9, 338.0)">c</text><text xml:space="preserve" font-family="CourierNewPSMT" font-size="27.0" fill="#021993" transform="matrix(1.00, 0.00, -0.00, -1.00, 565.1, 338.0)">t</text><text xml:space="preserve" font-family="CourierNewPSMT" font-size="27.0" fill="#021993" transform="matrix(1.00, 0.00, -0.00, -1.00, 581.3, 338.0)">o</text><text xml:space="preserve" font-family="CourierNewPSMT" font-size="27.0" fill="#021993" transform="matrix(1.00, 0.00, -0.00, -1.00, 597.5, 338.0)">r</text><text xml:space="preserve" font-family="CourierNewPSMT" font-size="27.0" fill="#000000" transform="matrix(1.00, 0.00, -0.00, -1.00, 613.7, 338.0)">(</text><text xml:space="preserve" font-family="CourierNewPSMT" font-size="27.0" fill="#CC1C00" transform="matrix(1.00, 0.00, -0.00, -1.00, 629.9, 338.0)">‘</text><text xml:space="preserve" font-family="CourierNewPSMT" font-size="27.0" fill="#CC1C00" transform="matrix(1.00, 0.00, -0.00, -1.00, 646.1, 338.0)">l</text><text xml:space="preserve" font-family="CourierNewPSMT" font-size="27.0" fill="#CC1C00" transform="matrix(1.00, 0.00, -0.00, -1.00, 662.3, 338.0)">i</text><text xml:space="preserve" font-family="CourierNewPSMT" font-size="27.0" fill="#CC1C00" transform="matrix(1.00, 0.00, -0.00, -1.00, 678.5, 338.0)">:</text><text xml:space="preserve" font-family="CourierNewPSMT" font-size="27.0" fill="#CC1C00" transform="matrix(1.00, 0.00, -0.00, -1.00, 694.7, 338.0)">n</text><text xml:space="preserve" font-family="CourierNewPSMT" font-size="27.0" fill="#CC1C00" transform="matrix(1.00, 0.00, -0.00, -1.00, 710.9, 338.0)">t</text><text xml:space="preserve" font-family="CourierNewPSMT" font-size="27.0" fill="#CC1C00" transform="matrix(1.00, 0.00, -0.00, -1.00, 727.1, 338.0)">h</text><text xml:space="preserve" font-family="CourierNewPSMT" font-size="27.0" fill="#CC1C00" transform="matrix(1.00, 0.00, -0.00, -1.00, 743.3, 338.0)">-</text><text xml:space="preserve" font-family="CourierNewPSMT" font-size="27.0" fill="#CC1C00" transform="matrix(1.00, 0.00, -0.00, -1.00, 759.5, 338.0)">c</text><text xml:space="preserve" font-family="CourierNewPSMT" font-size="27.0" fill="#CC1C00" transform="matrix(1.00, 0.00, -0.00, -1.00, 775.7, 338.0)">h</text><text xml:space="preserve" font-family="CourierNewPSMT" font-size="27.0" fill="#CC1C00" transform="matrix(1.00, 0.00, -0.00, -1.00, 791.9, 338.0)">i</text><text xml:space="preserve" font-family="CourierNewPSMT" font-size="27.0" fill="#CC1C00" transform="matrix(1.00, 0.00, -0.00, -1.00, 808.1, 338.0)">l</text><text xml:space="preserve" font-family="CourierNewPSMT" font-size="27.0" fill="#CC1C00" transform="matrix(1.00, 0.00, -0.00, -1.00, 824.4, 338.0)">d</text><text xml:space="preserve" font-family="CourierNewPSMT" font-size="27.0" fill="#CC1C00" transform="matrix(1.00, 0.00, -0.00, -1.00, 840.6, 338.0)">(</text><text xml:space="preserve" font-family="CourierNewPSMT" font-size="27.0" fill="#CC1C00" transform="matrix(1.00, 0.00, -0.00, -1.00, 856.8, 338.0)">2</text><text xml:space="preserve" font-family="CourierNewPSMT" font-size="27.0" fill="#CC1C00" transform="matrix(1.00, 0.00, -0.00, -1.00, 873.0, 338.0)">)</text><text xml:space="preserve" font-family="CourierNewPSMT" font-size="27.0" fill="#CC1C00" transform="matrix(1.00, 0.00, -0.00, -1.00, 889.2, 338.0)">'</text><text xml:space="preserve" font-family="CourierNewPSMT" font-size="27.0" fill="#000000" transform="matrix(1.00, 0.00, -0.00, -1.00, 905.3, 338.0)">)</text><text xml:space="preserve" font-family="CourierNewPSMT" font-size="27.0" fill="#000000" transform="matrix(1.00, 0.00, -0.00, -1.00, 921.5, 338.0)">)</text><text xml:space="preserve" font-family="CourierNewPSMT" font-size="27.0" fill="#000000" transform="matrix(1.00, 0.00, -0.00, -1.00, 937.7, 338.0)"> </text><text xml:space="preserve" font-family="Helvetica-Light" font-size="20.2" fill="#CC1C00" transform="matrix(1.00, 0.00, -0.00, -1.00, 79.0, 275.7)">•</text><text xml:space="preserve" font-family="Helvetica-Light" font-size="27.0" fill="#000000" transform="matrix(1.00, 0.00, -0.00, -1.00, 105.0, 274.0)">W</text><text xml:space="preserve" font-family="Helvetica-Light" font-size="27.0" fill="#000000" transform="matrix(1.00, 0.00, -0.00, -1.00, 128.5, 274.0)">e</text><text xml:space="preserve" font-family="Helvetica-Light" font-size="27.0" fill="#000000" transform="matrix(1.00, 0.00, -0.00, -1.00, 143.5, 274.0)"> </text><text xml:space="preserve" font-family="Helvetica-Light" font-size="27.0" fill="#000000" transform="matrix(1.00, 0.00, -0.00, -1.00, 151.0, 274.0)">c</text><text xml:space="preserve" font-family="Helvetica-Light" font-size="27.0" fill="#000000" transform="matrix(1.00, 0.00, -0.00, -1.00, 166.0, 274.0)">a</text><text xml:space="preserve" font-family="Helvetica-Light" font-size="27.0" fill="#000000" transform="matrix(1.00, 0.00, -0.00, -1.00, 181.1, 274.0)">n</text><text xml:space="preserve" font-family="Helvetica-Light" font-size="27.0" fill="#000000" transform="matrix(1.00, 0.00, -0.00, -1.00, 196.1, 274.0)"> </text><text xml:space="preserve" font-family="Helvetica-Light" font-size="27.0" fill="#000000" transform="matrix(1.00, 0.00, -0.00, -1.00, 203.6, 274.0)">r</text><text xml:space="preserve" font-family="Helvetica-Light" font-size="27.0" fill="#000000" transform="matrix(1.00, 0.00, -0.00, -1.00, 212.1, 274.0)">e</text><text xml:space="preserve" font-family="Helvetica-Light" font-size="27.0" fill="#000000" transform="matrix(1.00, 0.00, -0.00, -1.00, 227.1, 274.0)">m</text><text xml:space="preserve" font-family="Helvetica-Light" font-size="27.0" fill="#000000" transform="matrix(1.00, 0.00, -0.00, -1.00, 249.6, 274.0)">o</text><text xml:space="preserve" font-family="Helvetica-Light" font-size="27.0" fill="#000000" transform="matrix(1.00, 0.00, -0.00, -1.00, 264.6, 274.0)">v</text><text xml:space="preserve" font-family="Helvetica-Light" font-size="27.0" fill="#000000" transform="matrix(1.00, 0.00, -0.00, -1.00, 278.1, 274.0)">e</text><text xml:space="preserve" font-family="Helvetica-Light" font-size="27.0" fill="#000000" transform="matrix(1.00, 0.00, -0.00, -1.00, 293.1, 274.0)"> </text><text xml:space="preserve" font-family="Helvetica-Light" font-size="27.0" fill="#000000" transform="matrix(1.00, 0.00, -0.00, -1.00, 300.6, 274.0)">a</text><text xml:space="preserve" font-family="Helvetica-Light" font-size="27.0" fill="#000000" transform="matrix(1.00, 0.00, -0.00, -1.00, 315.6, 274.0)">n</text><text xml:space="preserve" font-family="Helvetica-Light" font-size="27.0" fill="#000000" transform="matrix(1.00, 0.00, -0.00, -1.00, 330.6, 274.0)"> </text><text xml:space="preserve" font-family="Helvetica-Light" font-size="27.0" fill="#000000" transform="matrix(1.00, 0.00, -0.00, -1.00, 338.1, 274.0)">e</text><text xml:space="preserve" font-family="Helvetica-Light" font-size="27.0" fill="#000000" transform="matrix(1.00, 0.00, -0.00, -1.00, 353.2, 274.0)">n</text><text xml:space="preserve" font-family="Helvetica-Light" font-size="27.0" fill="#000000" transform="matrix(1.00, 0.00, -0.00, -1.00, 368.2, 274.0)">t</text><text xml:space="preserve" font-family="Helvetica-Light" font-size="27.0" fill="#000000" transform="matrix(1.00, 0.00, -0.00, -1.00, 375.7, 274.0)">i</text><text xml:space="preserve" font-family="Helvetica-Light" font-size="27.0" fill="#000000" transform="matrix(1.00, 0.00, -0.00, -1.00, 381.7, 274.0)">r</text><text xml:space="preserve" font-family="Helvetica-Light" font-size="27.0" fill="#000000" transform="matrix(1.00, 0.00, -0.00, -1.00, 390.2, 274.0)">e</text><text xml:space="preserve" font-family="Helvetica-Light" font-size="27.0" fill="#000000" transform="matrix(1.00, 0.00, -0.00, -1.00, 405.2, 274.0)"> </text><text xml:space="preserve" font-family="Helvetica-Light" font-size="27.0" fill="#000000" transform="matrix(1.00, 0.00, -0.00, -1.00, 412.7, 274.0)">s</text><text xml:space="preserve" font-family="Helvetica-Light" font-size="27.0" fill="#000000" transform="matrix(1.00, 0.00, -0.00, -1.00, 426.2, 274.0)">e</text><text xml:space="preserve" font-family="Helvetica-Light" font-size="27.0" fill="#000000" transform="matrix(1.00, 0.00, -0.00, -1.00, 441.2, 274.0)">t</text><text xml:space="preserve" font-family="Helvetica-Light" font-size="27.0" fill="#000000" transform="matrix(1.00, 0.00, -0.00, -1.00, 448.7, 274.0)"> </text><text xml:space="preserve" font-family="Helvetica-Light" font-size="27.0" fill="#000000" transform="matrix(1.00, 0.00, -0.00, -1.00, 456.2, 274.0)">o</text><text xml:space="preserve" font-family="Helvetica-Light" font-size="27.0" fill="#000000" transform="matrix(1.00, 0.00, -0.00, -1.00, 471.2, 274.0)">f</text><text xml:space="preserve" font-family="Helvetica-Light" font-size="27.0" fill="#000000" transform="matrix(1.00, 0.00, -0.00, -1.00, 478.7, 274.0)"> </text><text xml:space="preserve" font-family="Helvetica-Light" font-size="27.0" fill="#000000" transform="matrix(1.00, 0.00, -0.00, -1.00, 486.2, 274.0)">n</text><text xml:space="preserve" font-family="Helvetica-Light" font-size="27.0" fill="#000000" transform="matrix(1.00, 0.00, -0.00, -1.00, 501.3, 274.0)">o</text><text xml:space="preserve" font-family="Helvetica-Light" font-size="27.0" fill="#000000" transform="matrix(1.00, 0.00, -0.00, -1.00, 516.3, 274.0)">d</text><text xml:space="preserve" font-family="Helvetica-Light" font-size="27.0" fill="#000000" transform="matrix(1.00, 0.00, -0.00, -1.00, 532.8, 274.0)">e</text><text xml:space="preserve" font-family="Helvetica-Light" font-size="27.0" fill="#000000" transform="matrix(1.00, 0.00, -0.00, -1.00, 547.8, 274.0)">s</text><text xml:space="preserve" font-family="Helvetica-Light" font-size="27.0" fill="#000000" transform="matrix(1.00, 0.00, -0.00, -1.00, 561.3, 274.0)">:</text><text xml:space="preserve" font-family="Helvetica-Light" font-size="27.0" fill="#000000" transform="matrix(1.00, 0.00, -0.00, -1.00, 568.8, 274.0)"> </text><text xml:space="preserve" font-family="CourierNewPSMT" font-size="27.0" fill="#021993" transform="matrix(1.00, 0.00, -0.00, -1.00, 79.0, 216.0)"> </text><text xml:space="preserve" font-family="CourierNewPSMT" font-size="27.0" fill="#021993" transform="matrix(1.00, 0.00, -0.00, -1.00, 95.2, 216.0)"> </text><text xml:space="preserve" font-family="CourierNewPSMT" font-size="27.0" fill="#000000" transform="matrix(1.00, 0.00, -0.00, -1.00, 111.4, 216.0)">u</text><text xml:space="preserve" font-family="CourierNewPSMT" font-size="27.0" fill="#000000" transform="matrix(1.00, 0.00, -0.00, -1.00, 127.6, 216.0)">l</text><text xml:space="preserve" font-family="CourierNewPSMT" font-size="27.0" fill="#000000" transform="matrix(1.00, 0.00, -0.00, -1.00, 143.8, 216.0)">.</text><text xml:space="preserve" font-family="CourierNewPSMT" font-size="27.0" fill="#021993" transform="matrix(1.00, 0.00, -0.00, -1.00, 160.0, 216.0)">r</text><text xml:space="preserve" font-family="CourierNewPSMT" font-size="27.0" fill="#021993" transform="matrix(1.00, 0.00, -0.00, -1.00, 176.2, 216.0)">e</text><text xml:space="preserve" font-family="CourierNewPSMT" font-size="27.0" fill="#021993" transform="matrix(1.00, 0.00, -0.00, -1.00, 192.4, 216.0)">m</text><text xml:space="preserve" font-family="CourierNewPSMT" font-size="27.0" fill="#021993" transform="matrix(1.00, 0.00, -0.00, -1.00, 208.6, 216.0)">o</text><text xml:space="preserve" font-family="CourierNewPSMT" font-size="27.0" fill="#021993" transform="matrix(1.00, 0.00, -0.00, -1.00, 224.8, 216.0)">v</text><text xml:space="preserve" font-family="CourierNewPSMT" font-size="27.0" fill="#021993" transform="matrix(1.00, 0.00, -0.00, -1.00, 241.0, 216.0)">e</text><text xml:space="preserve" font-family="CourierNewPSMT" font-size="27.0" fill="#000000" transform="matrix(1.00, 0.00, -0.00, -1.00, 257.2, 216.0)">(</text><text xml:space="preserve" font-family="CourierNewPSMT" font-size="27.0" fill="#000000" transform="matrix(1.00, 0.00, -0.00, -1.00, 273.4, 216.0)">)</text></g></svg>