<?xml version="1.0" encoding="UTF-8" standalone="no"?><svg xmlns="http://www.w3.org/2000/svg" xmlns:xlink="http://www.w3.org/1999/xlink" clip-rule="evenodd" stroke-miterlimit="4.00" viewBox="0 0 1024 768"><desc>SVG generated by Keynote</desc><defs></defs><g transform="matrix(1.00, 0.00, -0.00, -1.00, 0.0, 768.0)"><path d="M 0.0 768.0 L 1024.0 768.0 L 1024.0 0.0 L 0.0 0.0 Z M 0.0 768.0 " fill="#FEFFFF"></path><path d="M 0.0 0.0 L 858.0 0.0 L 858.0 226.0 L 0.0 226.0 Z M 0.0 0.0 " fill="none" stroke="#51A7F9" stroke-width="1.00" transform="matrix(1.00, 0.00, 0.00, -1.00, 96.3, 497.0)"></path><g><clipPath id="clip-24"><path d="M 92.8 267.6 L 957.6 267.6 L 957.6 500.4 L 92.8 500.4 Z M 92.8 267.6 "></path></clipPath><g clip-path="url(#clip-24)"><text xml:space="preserve" font-family="CourierNewPS-BoldMT" font-weight="bold" font-size="28.0" fill="#000000" transform="matrix(1.00, 0.00, -0.00, -1.00, 101.0, 439.0)">c</text><text xml:space="preserve" font-family="CourierNewPS-BoldMT" font-weight="bold" font-size="28.0" fill="#000000" transform="matrix(1.00, 0.00, -0.00, -1.00, 117.8, 439.0)">o</text><text xml:space="preserve" font-family="CourierNewPS-BoldMT" font-weight="bold" font-size="28.0" fill="#000000" transform="matrix(1.00, 0.00, -0.00, -1.00, 134.6, 439.0)">n</text><text xml:space="preserve" font-family="CourierNewPS-BoldMT" font-weight="bold" font-size="28.0" fill="#000000" transform="matrix(1.00, 0.00, -0.00, -1.00, 151.4, 439.0)">s</text><text xml:space="preserve" font-family="CourierNewPS-BoldMT" font-weight="bold" font-size="28.0" fill="#000000" transform="matrix(1.00, 0.00, -0.00, -1.00, 168.2, 439.0)">t</text><text xml:space="preserve" font-family="CourierNewPSMT" font-size="28.0" fill="#000000" transform="matrix(1.00, 0.00, -0.00, -1.00, 185.0, 439.0)"> </text><text xml:space="preserve" font-family="CourierNewPSMT" font-size="28.0" fill="#000000" transform="matrix(1.00, 0.00, -0.00, -1.00, 201.8, 439.0)">m</text><text xml:space="preserve" font-family="CourierNewPSMT" font-size="28.0" fill="#000000" transform="matrix(1.00, 0.00, -0.00, -1.00, 218.6, 439.0)">a</text><text xml:space="preserve" font-family="CourierNewPSMT" font-size="28.0" fill="#000000" transform="matrix(1.00, 0.00, -0.00, -1.00, 235.4, 439.0)">i</text><text xml:space="preserve" font-family="CourierNewPSMT" font-size="28.0" fill="#000000" transform="matrix(1.00, 0.00, -0.00, -1.00, 252.2, 439.0)">n</text><text xml:space="preserve" font-family="CourierNewPSMT" font-size="28.0" fill="#000000" transform="matrix(1.00, 0.00, -0.00, -1.00, 269.0, 439.0)"> </text><text xml:space="preserve" font-family="CourierNewPSMT" font-size="28.0" fill="#000000" transform="matrix(1.00, 0.00, -0.00, -1.00, 285.8, 439.0)">=</text><text xml:space="preserve" font-family="CourierNewPSMT" font-size="28.0" fill="#000000" transform="matrix(1.00, 0.00, -0.00, -1.00, 302.7, 439.0)"> </text><text xml:space="preserve" font-family="CourierNewPSMT" font-size="28.0" fill="#000000" transform="matrix(1.00, 0.00, -0.00, -1.00, 319.5, 439.0)">d</text><text xml:space="preserve" font-family="CourierNewPSMT" font-size="28.0" fill="#000000" transform="matrix(1.00, 0.00, -0.00, -1.00, 336.3, 439.0)">o</text><text xml:space="preserve" font-family="CourierNewPSMT" font-size="28.0" fill="#000000" transform="matrix(1.00, 0.00, -0.00, -1.00, 353.1, 439.0)">c</text><text xml:space="preserve" font-family="CourierNewPSMT" font-size="28.0" fill="#000000" transform="matrix(1.00, 0.00, -0.00, -1.00, 369.9, 439.0)">u</text><text xml:space="preserve" font-family="CourierNewPSMT" font-size="28.0" fill="#000000" transform="matrix(1.00, 0.00, -0.00, -1.00, 386.7, 439.0)">m</text><text xml:space="preserve" font-family="CourierNewPSMT" font-size="28.0" fill="#000000" transform="matrix(1.00, 0.00, -0.00, -1.00, 403.5, 439.0)">e</text><text xml:space="preserve" font-family="CourierNewPSMT" font-size="28.0" fill="#000000" transform="matrix(1.00, 0.00, -0.00, -1.00, 420.3, 439.0)">n</text><text xml:space="preserve" font-family="CourierNewPSMT" font-size="28.0" fill="#000000" transform="matrix(1.00, 0.00, -0.00, -1.00, 437.1, 439.0)">t</text><text xml:space="preserve" font-family="CourierNewPSMT" font-size="28.0" fill="#000000" transform="matrix(1.00, 0.00, -0.00, -1.00, 453.9, 439.0)">.</text><text xml:space="preserve" font-family="CourierNewPSMT" font-size="28.0" fill="#021993" transform="matrix(1.00, 0.00, -0.00, -1.00, 470.7, 439.0)">g</text><text xml:space="preserve" font-family="CourierNewPSMT" font-size="28.0" fill="#021993" transform="matrix(1.00, 0.00, -0.00, -1.00, 487.5, 439.0)">e</text><text xml:space="preserve" font-family="CourierNewPSMT" font-size="28.0" fill="#021993" transform="matrix(1.00, 0.00, -0.00, -1.00, 504.3, 439.0)">t</text><text xml:space="preserve" font-family="CourierNewPSMT" font-size="28.0" fill="#021993" transform="matrix(1.00, 0.00, -0.00, -1.00, 521.1, 439.0)">E</text><text xml:space="preserve" font-family="CourierNewPSMT" font-size="28.0" fill="#021993" transform="matrix(1.00, 0.00, -0.00, -1.00, 537.9, 439.0)">l</text><text xml:space="preserve" font-family="CourierNewPSMT" font-size="28.0" fill="#021993" transform="matrix(1.00, 0.00, -0.00, -1.00, 554.7, 439.0)">e</text><text xml:space="preserve" font-family="CourierNewPSMT" font-size="28.0" fill="#021993" transform="matrix(1.00, 0.00, -0.00, -1.00, 571.5, 439.0)">m</text><text xml:space="preserve" font-family="CourierNewPSMT" font-size="28.0" fill="#021993" transform="matrix(1.00, 0.00, -0.00, -1.00, 588.3, 439.0)">e</text><text xml:space="preserve" font-family="CourierNewPSMT" font-size="28.0" fill="#021993" transform="matrix(1.00, 0.00, -0.00, -1.00, 605.1, 439.0)">n</text><text xml:space="preserve" font-family="CourierNewPSMT" font-size="28.0" fill="#021993" transform="matrix(1.00, 0.00, -0.00, -1.00, 621.9, 439.0)">t</text><text xml:space="preserve" font-family="CourierNewPSMT" font-size="28.0" fill="#021993" transform="matrix(1.00, 0.00, -0.00, -1.00, 638.7, 439.0)">B</text><text xml:space="preserve" font-family="CourierNewPSMT" font-size="28.0" fill="#021993" transform="matrix(1.00, 0.00, -0.00, -1.00, 655.5, 439.0)">y</text><text xml:space="preserve" font-family="CourierNewPSMT" font-size="28.0" fill="#021993" transform="matrix(1.00, 0.00, -0.00, -1.00, 672.3, 439.0)">I</text><text xml:space="preserve" font-family="CourierNewPSMT" font-size="28.0" fill="#021993" transform="matrix(1.00, 0.00, -0.00, -1.00, 689.1, 439.0)">d</text><text xml:space="preserve" font-family="CourierNewPSMT" font-size="28.0" fill="#000000" transform="matrix(1.00, 0.00, -0.00, -1.00, 705.9, 439.0)">(</text><text xml:space="preserve" font-family="CourierNewPSMT" font-size="28.0" fill="#CC1C00" transform="matrix(1.00, 0.00, -0.00, -1.00, 722.7, 439.0)">'</text><text xml:space="preserve" font-family="CourierNewPSMT" font-size="28.0" fill="#CC1C00" transform="matrix(1.00, 0.00, -0.00, -1.00, 739.5, 439.0)">m</text><text xml:space="preserve" font-family="CourierNewPSMT" font-size="28.0" fill="#CC1C00" transform="matrix(1.00, 0.00, -0.00, -1.00, 756.3, 439.0)">a</text><text xml:space="preserve" font-family="CourierNewPSMT" font-size="28.0" fill="#CC1C00" transform="matrix(1.00, 0.00, -0.00, -1.00, 773.1, 439.0)">i</text><text xml:space="preserve" font-family="CourierNewPSMT" font-size="28.0" fill="#CC1C00" transform="matrix(1.00, 0.00, -0.00, -1.00, 789.9, 439.0)">n</text><text xml:space="preserve" font-family="CourierNewPSMT" font-size="28.0" fill="#CC1C00" transform="matrix(1.00, 0.00, -0.00, -1.00, 806.7, 439.0)">'</text><text xml:space="preserve" font-family="CourierNewPSMT" font-size="28.0" fill="#000000" transform="matrix(1.00, 0.00, -0.00, -1.00, 823.5, 439.0)">)</text><text xml:space="preserve" font-family="CourierNewPSMT" font-size="28.0" fill="#000000" transform="matrix(1.00, 0.00, -0.00, -1.00, 840.3, 439.0)"> </text><text xml:space="preserve" font-family="CourierNewPSMT" font-size="28.0" fill="#000000" transform="matrix(1.00, 0.00, -0.00, -1.00, 101.0, 377.0)">m</text><text xml:space="preserve" font-family="CourierNewPSMT" font-size="28.0" fill="#000000" transform="matrix(1.00, 0.00, -0.00, -1.00, 117.8, 377.0)">a</text><text xml:space="preserve" font-family="CourierNewPSMT" font-size="28.0" fill="#000000" transform="matrix(1.00, 0.00, -0.00, -1.00, 134.6, 377.0)">i</text><text xml:space="preserve" font-family="CourierNewPSMT" font-size="28.0" fill="#000000" transform="matrix(1.00, 0.00, -0.00, -1.00, 151.4, 377.0)">n</text><text xml:space="preserve" font-family="CourierNewPSMT" font-size="28.0" fill="#000000" transform="matrix(1.00, 0.00, -0.00, -1.00, 168.2, 377.0)">.</text><text xml:space="preserve" font-family="CourierNewPSMT" font-size="28.0" fill="#021993" transform="matrix(1.00, 0.00, -0.00, -1.00, 185.0, 377.0)">a</text><text xml:space="preserve" font-family="CourierNewPSMT" font-size="28.0" fill="#021993" transform="matrix(1.00, 0.00, -0.00, -1.00, 201.8, 377.0)">d</text><text xml:space="preserve" font-family="CourierNewPSMT" font-size="28.0" fill="#021993" transform="matrix(1.00, 0.00, -0.00, -1.00, 218.6, 377.0)">d</text><text xml:space="preserve" font-family="CourierNewPSMT" font-size="28.0" fill="#021993" transform="matrix(1.00, 0.00, -0.00, -1.00, 235.4, 377.0)">E</text><text xml:space="preserve" font-family="CourierNewPSMT" font-size="28.0" fill="#021993" transform="matrix(1.00, 0.00, -0.00, -1.00, 252.2, 377.0)">v</text><text xml:space="preserve" font-family="CourierNewPSMT" font-size="28.0" fill="#021993" transform="matrix(1.00, 0.00, -0.00, -1.00, 269.0, 377.0)">e</text><text xml:space="preserve" font-family="CourierNewPSMT" font-size="28.0" fill="#021993" transform="matrix(1.00, 0.00, -0.00, -1.00, 285.8, 377.0)">n</text><text xml:space="preserve" font-family="CourierNewPSMT" font-size="28.0" fill="#021993" transform="matrix(1.00, 0.00, -0.00, -1.00, 302.7, 377.0)">t</text><text xml:space="preserve" font-family="CourierNewPSMT" font-size="28.0" fill="#021993" transform="matrix(1.00, 0.00, -0.00, -1.00, 319.5, 377.0)">L</text><text xml:space="preserve" font-family="CourierNewPSMT" font-size="28.0" fill="#021993" transform="matrix(1.00, 0.00, -0.00, -1.00, 336.3, 377.0)">i</text><text xml:space="preserve" font-family="CourierNewPSMT" font-size="28.0" fill="#021993" transform="matrix(1.00, 0.00, -0.00, -1.00, 353.1, 377.0)">s</text><text xml:space="preserve" font-family="CourierNewPSMT" font-size="28.0" fill="#021993" transform="matrix(1.00, 0.00, -0.00, -1.00, 369.9, 377.0)">t</text><text xml:space="preserve" font-family="CourierNewPSMT" font-size="28.0" fill="#021993" transform="matrix(1.00, 0.00, -0.00, -1.00, 386.7, 377.0)">e</text><text xml:space="preserve" font-family="CourierNewPSMT" font-size="28.0" fill="#021993" transform="matrix(1.00, 0.00, -0.00, -1.00, 403.5, 377.0)">n</text><text xml:space="preserve" font-family="CourierNewPSMT" font-size="28.0" fill="#021993" transform="matrix(1.00, 0.00, -0.00, -1.00, 420.3, 377.0)">e</text><text xml:space="preserve" font-family="CourierNewPSMT" font-size="28.0" fill="#021993" transform="matrix(1.00, 0.00, -0.00, -1.00, 437.1, 377.0)">r</text><text xml:space="preserve" font-family="CourierNewPSMT" font-size="28.0" fill="#000000" transform="matrix(1.00, 0.00, -0.00, -1.00, 453.9, 377.0)">(</text><text xml:space="preserve" font-family="CourierNewPSMT" font-size="28.0" fill="#CC1C00" transform="matrix(1.00, 0.00, -0.00, -1.00, 470.7, 377.0)">'</text><text xml:space="preserve" font-family="CourierNewPSMT" font-size="28.0" fill="#CC1C00" transform="matrix(1.00, 0.00, -0.00, -1.00, 487.5, 377.0)">c</text><text xml:space="preserve" font-family="CourierNewPSMT" font-size="28.0" fill="#CC1C00" transform="matrix(1.00, 0.00, -0.00, -1.00, 504.3, 377.0)">l</text><text xml:space="preserve" font-family="CourierNewPSMT" font-size="28.0" fill="#CC1C00" transform="matrix(1.00, 0.00, -0.00, -1.00, 521.1, 377.0)">i</text><text xml:space="preserve" font-family="CourierNewPSMT" font-size="28.0" fill="#CC1C00" transform="matrix(1.00, 0.00, -0.00, -1.00, 537.9, 377.0)">c</text><text xml:space="preserve" font-family="CourierNewPSMT" font-size="28.0" fill="#CC1C00" transform="matrix(1.00, 0.00, -0.00, -1.00, 554.7, 377.0)">k</text><text xml:space="preserve" font-family="CourierNewPSMT" font-size="28.0" fill="#CC1C00" transform="matrix(1.00, 0.00, -0.00, -1.00, 571.5, 377.0)">'</text><text xml:space="preserve" font-family="CourierNewPSMT" font-size="28.0" fill="#000000" transform="matrix(1.00, 0.00, -0.00, -1.00, 588.3, 377.0)">,</text><text xml:space="preserve" font-family="CourierNewPSMT" font-size="28.0" fill="#000000" transform="matrix(1.00, 0.00, -0.00, -1.00, 605.1, 377.0)"> </text><text xml:space="preserve" font-family="CourierNewPS-BoldMT" font-weight="bold" font-size="28.0" fill="#000000" transform="matrix(1.00, 0.00, -0.00, -1.00, 621.9, 377.0)">f</text><text xml:space="preserve" font-family="CourierNewPS-BoldMT" font-weight="bold" font-size="28.0" fill="#000000" transform="matrix(1.00, 0.00, -0.00, -1.00, 638.7, 377.0)">u</text><text xml:space="preserve" font-family="CourierNewPS-BoldMT" font-weight="bold" font-size="28.0" fill="#000000" transform="matrix(1.00, 0.00, -0.00, -1.00, 655.5, 377.0)">n</text><text xml:space="preserve" font-family="CourierNewPS-BoldMT" font-weight="bold" font-size="28.0" fill="#000000" transform="matrix(1.00, 0.00, -0.00, -1.00, 672.3, 377.0)">c</text><text xml:space="preserve" font-family="CourierNewPS-BoldMT" font-weight="bold" font-size="28.0" fill="#000000" transform="matrix(1.00, 0.00, -0.00, -1.00, 689.1, 377.0)">t</text><text xml:space="preserve" font-family="CourierNewPS-BoldMT" font-weight="bold" font-size="28.0" fill="#000000" transform="matrix(1.00, 0.00, -0.00, -1.00, 705.9, 377.0)">i</text><text xml:space="preserve" font-family="CourierNewPS-BoldMT" font-weight="bold" font-size="28.0" fill="#000000" transform="matrix(1.00, 0.00, -0.00, -1.00, 722.7, 377.0)">o</text><text xml:space="preserve" font-family="CourierNewPS-BoldMT" font-weight="bold" font-size="28.0" fill="#000000" transform="matrix(1.00, 0.00, -0.00, -1.00, 739.5, 377.0)">n</text><text xml:space="preserve" font-family="CourierNewPSMT" font-size="28.0" fill="#000000" transform="matrix(1.00, 0.00, -0.00, -1.00, 756.3, 377.0)">(</text><text xml:space="preserve" font-family="CourierNewPSMT" font-size="28.0" fill="#000000" transform="matrix(1.00, 0.00, -0.00, -1.00, 773.1, 377.0)">e</text><text xml:space="preserve" font-family="CourierNewPSMT" font-size="28.0" fill="#000000" transform="matrix(1.00, 0.00, -0.00, -1.00, 789.9, 377.0)">v</text><text xml:space="preserve" font-family="CourierNewPSMT" font-size="28.0" fill="#000000" transform="matrix(1.00, 0.00, -0.00, -1.00, 806.7, 377.0)">e</text><text xml:space="preserve" font-family="CourierNewPSMT" font-size="28.0" fill="#000000" transform="matrix(1.00, 0.00, -0.00, -1.00, 823.5, 377.0)">n</text><text xml:space="preserve" font-family="CourierNewPSMT" font-size="28.0" fill="#000000" transform="matrix(1.00, 0.00, -0.00, -1.00, 840.3, 377.0)">t</text><text xml:space="preserve" font-family="CourierNewPSMT" font-size="28.0" fill="#000000" transform="matrix(1.00, 0.00, -0.00, -1.00, 857.1, 377.0)">)</text><text xml:space="preserve" font-family="CourierNewPSMT" font-size="28.0" fill="#000000" transform="matrix(1.00, 0.00, -0.00, -1.00, 873.9, 377.0)"> </text><text xml:space="preserve" font-family="CourierNewPSMT" font-size="28.0" fill="#000000" transform="matrix(1.00, 0.00, -0.00, -1.00, 890.8, 377.0)">{</text><text xml:space="preserve" font-family="CourierNewPSMT" font-size="28.0" fill="#000000" transform="matrix(1.00, 0.00, -0.00, -1.00, 907.6, 377.0)"> </text><text xml:space="preserve" font-family="CourierNewPSMT" font-size="28.0" fill="#000000" transform="matrix(1.00, 0.00, -0.00, -1.00, 101.0, 346.0)"> </text><text xml:space="preserve" font-family="CourierNewPSMT" font-size="28.0" fill="#000000" transform="matrix(1.00, 0.00, -0.00, -1.00, 117.8, 346.0)"> </text><text xml:space="preserve" font-family="CourierNewPSMT" font-size="28.0" fill="#021993" transform="matrix(1.00, 0.00, -0.00, -1.00, 134.6, 346.0)">a</text><text xml:space="preserve" font-family="CourierNewPSMT" font-size="28.0" fill="#021993" transform="matrix(1.00, 0.00, -0.00, -1.00, 151.4, 346.0)">l</text><text xml:space="preserve" font-family="CourierNewPSMT" font-size="28.0" fill="#021993" transform="matrix(1.00, 0.00, -0.00, -1.00, 168.2, 346.0)">e</text><text xml:space="preserve" font-family="CourierNewPSMT" font-size="28.0" fill="#021993" transform="matrix(1.00, 0.00, -0.00, -1.00, 185.0, 346.0)">r</text><text xml:space="preserve" font-family="CourierNewPSMT" font-size="28.0" fill="#021993" transform="matrix(1.00, 0.00, -0.00, -1.00, 201.8, 346.0)">t</text><text xml:space="preserve" font-family="CourierNewPSMT" font-size="28.0" fill="#000000" transform="matrix(1.00, 0.00, -0.00, -1.00, 218.6, 346.0)">(</text><text xml:space="preserve" font-family="CourierNewPSMT" font-size="28.0" fill="#CC1C00" transform="matrix(1.00, 0.00, -0.00, -1.00, 235.4, 346.0)">'</text><text xml:space="preserve" font-family="CourierNewPSMT" font-size="28.0" fill="#CC1C00" transform="matrix(1.00, 0.00, -0.00, -1.00, 252.2, 346.0)">I</text><text xml:space="preserve" font-family="CourierNewPSMT" font-size="28.0" fill="#CC1C00" transform="matrix(1.00, 0.00, -0.00, -1.00, 269.0, 346.0)"> </text><text xml:space="preserve" font-family="CourierNewPSMT" font-size="28.0" fill="#CC1C00" transform="matrix(1.00, 0.00, -0.00, -1.00, 285.8, 346.0)">w</text><text xml:space="preserve" font-family="CourierNewPSMT" font-size="28.0" fill="#CC1C00" transform="matrix(1.00, 0.00, -0.00, -1.00, 302.6, 346.0)">a</text><text xml:space="preserve" font-family="CourierNewPSMT" font-size="28.0" fill="#CC1C00" transform="matrix(1.00, 0.00, -0.00, -1.00, 319.4, 346.0)">s</text><text xml:space="preserve" font-family="CourierNewPSMT" font-size="28.0" fill="#CC1C00" transform="matrix(1.00, 0.00, -0.00, -1.00, 336.3, 346.0)"> </text><text xml:space="preserve" font-family="CourierNewPSMT" font-size="28.0" fill="#CC1C00" transform="matrix(1.00, 0.00, -0.00, -1.00, 353.1, 346.0)">c</text><text xml:space="preserve" font-family="CourierNewPSMT" font-size="28.0" fill="#CC1C00" transform="matrix(1.00, 0.00, -0.00, -1.00, 369.9, 346.0)">l</text><text xml:space="preserve" font-family="CourierNewPSMT" font-size="28.0" fill="#CC1C00" transform="matrix(1.00, 0.00, -0.00, -1.00, 386.7, 346.0)">i</text><text xml:space="preserve" font-family="CourierNewPSMT" font-size="28.0" fill="#CC1C00" transform="matrix(1.00, 0.00, -0.00, -1.00, 403.5, 346.0)">c</text><text xml:space="preserve" font-family="CourierNewPSMT" font-size="28.0" fill="#CC1C00" transform="matrix(1.00, 0.00, -0.00, -1.00, 420.3, 346.0)">k</text><text xml:space="preserve" font-family="CourierNewPSMT" font-size="28.0" fill="#CC1C00" transform="matrix(1.00, 0.00, -0.00, -1.00, 437.1, 346.0)">e</text><text xml:space="preserve" font-family="CourierNewPSMT" font-size="28.0" fill="#CC1C00" transform="matrix(1.00, 0.00, -0.00, -1.00, 453.9, 346.0)">d</text><text xml:space="preserve" font-family="CourierNewPSMT" font-size="28.0" fill="#CC1C00" transform="matrix(1.00, 0.00, -0.00, -1.00, 470.7, 346.0)">!</text><text xml:space="preserve" font-family="CourierNewPSMT" font-size="28.0" fill="#CC1C00" transform="matrix(1.00, 0.00, -0.00, -1.00, 487.5, 346.0)">'</text><text xml:space="preserve" font-family="CourierNewPSMT" font-size="28.0" fill="#000000" transform="matrix(1.00, 0.00, -0.00, -1.00, 504.3, 346.0)">)</text><text xml:space="preserve" font-family="CourierNewPSMT" font-size="28.0" fill="#000000" transform="matrix(1.00, 0.00, -0.00, -1.00, 521.1, 346.0)"> </text><text xml:space="preserve" font-family="CourierNewPSMT" font-size="28.0" fill="#000000" transform="matrix(1.00, 0.00, -0.00, -1.00, 101.0, 315.0)">}</text><text xml:space="preserve" font-family="CourierNewPSMT" font-size="28.0" fill="#000000" transform="matrix(1.00, 0.00, -0.00, -1.00, 117.8, 315.0)">)</text><text xml:space="preserve" font-family="CourierNewPSMT" font-size="28.0" fill="#000000" transform="matrix(1.00, 0.00, -0.00, -1.00, 134.6, 315.0)"> </text></g></g></g></svg>