<?xml version="1.0" encoding="UTF-8" standalone="no"?><svg xmlns="http://www.w3.org/2000/svg" xmlns:xlink="http://www.w3.org/1999/xlink" clip-rule="evenodd" stroke-miterlimit="4.00" viewBox="0 0 1024 768"><desc>SVG generated by Keynote</desc><defs></defs><g transform="matrix(1.00, 0.00, -0.00, -1.00, 0.0, 768.0)"><path d="M 0.0 768.0 L 1024.0 768.0 L 1024.0 0.0 L 0.0 0.0 Z M 0.0 768.0 " fill="#FEFFFF"></path><text xml:space="preserve" font-family="Courier" font-size="80.0" fill="#164E86" transform="matrix(1.00, 0.00, -0.00, -1.00, 104.0, 620.0)">s</text><text xml:space="preserve" font-family="Courier" font-size="80.0" fill="#164E86" transform="matrix(1.00, 0.00, -0.00, -1.00, 152.0, 620.0)">t</text><text xml:space="preserve" font-family="Courier" font-size="80.0" fill="#164E86" transform="matrix(1.00, 0.00, -0.00, -1.00, 200.0, 620.0)">o</text><text xml:space="preserve" font-family="Courier" font-size="80.0" fill="#164E86" transform="matrix(1.00, 0.00, -0.00, -1.00, 248.0, 620.0)">p</text><text xml:space="preserve" font-family="Courier" font-size="80.0" fill="#164E86" transform="matrix(1.00, 0.00, -0.00, -1.00, 296.1, 620.0)">P</text><text xml:space="preserve" font-family="Courier" font-size="80.0" fill="#164E86" transform="matrix(1.00, 0.00, -0.00, -1.00, 344.1, 620.0)">r</text><text xml:space="preserve" font-family="Courier" font-size="80.0" fill="#164E86" transform="matrix(1.00, 0.00, -0.00, -1.00, 392.1, 620.0)">o</text><text xml:space="preserve" font-family="Courier" font-size="80.0" fill="#164E86" transform="matrix(1.00, 0.00, -0.00, -1.00, 440.1, 620.0)">p</text><text xml:space="preserve" font-family="Courier" font-size="80.0" fill="#164E86" transform="matrix(1.00, 0.00, -0.00, -1.00, 488.1, 620.0)">a</text><text xml:space="preserve" font-family="Courier" font-size="80.0" fill="#164E86" transform="matrix(1.00, 0.00, -0.00, -1.00, 536.1, 620.0)">g</text><text xml:space="preserve" font-family="Courier" font-size="80.0" fill="#164E86" transform="matrix(1.00, 0.00, -0.00, -1.00, 584.2, 620.0)">a</text><text xml:space="preserve" font-family="Courier" font-size="80.0" fill="#164E86" transform="matrix(1.00, 0.00, -0.00, -1.00, 632.2, 620.0)">t</text><text xml:space="preserve" font-family="Courier" font-size="80.0" fill="#164E86" transform="matrix(1.00, 0.00, -0.00, -1.00, 680.2, 620.0)">i</text><text xml:space="preserve" font-family="Courier" font-size="80.0" fill="#164E86" transform="matrix(1.00, 0.00, -0.00, -1.00, 728.2, 620.0)">o</text><text xml:space="preserve" font-family="Courier" font-size="80.0" fill="#164E86" transform="matrix(1.00, 0.00, -0.00, -1.00, 776.2, 620.0)">n</text><text xml:space="preserve" font-family="Courier" font-size="80.0" fill="#164E86" transform="matrix(1.00, 0.00, -0.00, -1.00, 824.2, 620.0)">(</text><text xml:space="preserve" font-family="Courier" font-size="80.0" fill="#164E86" transform="matrix(1.00, 0.00, -0.00, -1.00, 872.3, 620.0)">)</text><path d="M 0.0 0.0 L 874.0 0.0 L 874.0 495.0 L 0.0 495.0 Z M 0.0 0.0 " fill="none" stroke="#51A7F9" stroke-width="1.00" transform="matrix(1.00, 0.00, 0.00, -1.00, 75.0, 563.0)"></path><g><clipPath id="clip-32"><path d="M 73.2 69.0 L 950.8 69.0 L 950.8 562.0 L 73.2 562.0 Z M 73.2 69.0 "></path></clipPath><g clip-path="url(#clip-32)"><text xml:space="preserve" font-family="CourierNewPS-BoldMT" font-weight="bold" font-size="24.0" fill="#000000" transform="matrix(1.00, 0.00, -0.00, -1.00, 80.0, 471.0)">c</text><text xml:space="preserve" font-family="CourierNewPS-BoldMT" font-weight="bold" font-size="24.0" fill="#000000" transform="matrix(1.00, 0.00, -0.00, -1.00, 94.4, 471.0)">o</text><text xml:space="preserve" font-family="CourierNewPS-BoldMT" font-weight="bold" font-size="24.0" fill="#000000" transform="matrix(1.00, 0.00, -0.00, -1.00, 108.8, 471.0)">n</text><text xml:space="preserve" font-family="CourierNewPS-BoldMT" font-weight="bold" font-size="24.0" fill="#000000" transform="matrix(1.00, 0.00, -0.00, -1.00, 123.2, 471.0)">s</text><text xml:space="preserve" font-family="CourierNewPS-BoldMT" font-weight="bold" font-size="24.0" fill="#000000" transform="matrix(1.00, 0.00, -0.00, -1.00, 137.6, 471.0)">t</text><text xml:space="preserve" font-family="CourierNewPSMT" font-size="24.0" fill="#000000" transform="matrix(1.00, 0.00, -0.00, -1.00, 152.0, 471.0)"> </text><text xml:space="preserve" font-family="CourierNewPSMT" font-size="24.0" fill="#000000" transform="matrix(1.00, 0.00, -0.00, -1.00, 166.4, 471.0)">d</text><text xml:space="preserve" font-family="CourierNewPSMT" font-size="24.0" fill="#000000" transform="matrix(1.00, 0.00, -0.00, -1.00, 180.8, 471.0)">i</text><text xml:space="preserve" font-family="CourierNewPSMT" font-size="24.0" fill="#000000" transform="matrix(1.00, 0.00, -0.00, -1.00, 195.2, 471.0)">v</text><text xml:space="preserve" font-family="CourierNewPSMT" font-size="24.0" fill="#000000" transform="matrix(1.00, 0.00, -0.00, -1.00, 209.6, 471.0)">s</text><text xml:space="preserve" font-family="CourierNewPSMT" font-size="24.0" fill="#000000" transform="matrix(1.00, 0.00, -0.00, -1.00, 224.0, 471.0)"> </text><text xml:space="preserve" font-family="CourierNewPSMT" font-size="24.0" fill="#000000" transform="matrix(1.00, 0.00, -0.00, -1.00, 238.4, 471.0)">=</text><text xml:space="preserve" font-family="CourierNewPSMT" font-size="24.0" fill="#000000" transform="matrix(1.00, 0.00, -0.00, -1.00, 252.8, 471.0)"> </text><text xml:space="preserve" font-family="CourierNewPSMT" font-size="24.0" fill="#000000" transform="matrix(1.00, 0.00, -0.00, -1.00, 267.2, 471.0)">d</text><text xml:space="preserve" font-family="CourierNewPSMT" font-size="24.0" fill="#000000" transform="matrix(1.00, 0.00, -0.00, -1.00, 281.7, 471.0)">o</text><text xml:space="preserve" font-family="CourierNewPSMT" font-size="24.0" fill="#000000" transform="matrix(1.00, 0.00, -0.00, -1.00, 296.1, 471.0)">c</text><text xml:space="preserve" font-family="CourierNewPSMT" font-size="24.0" fill="#000000" transform="matrix(1.00, 0.00, -0.00, -1.00, 310.5, 471.0)">u</text><text xml:space="preserve" font-family="CourierNewPSMT" font-size="24.0" fill="#000000" transform="matrix(1.00, 0.00, -0.00, -1.00, 324.9, 471.0)">m</text><text xml:space="preserve" font-family="CourierNewPSMT" font-size="24.0" fill="#000000" transform="matrix(1.00, 0.00, -0.00, -1.00, 339.3, 471.0)">e</text><text xml:space="preserve" font-family="CourierNewPSMT" font-size="24.0" fill="#000000" transform="matrix(1.00, 0.00, -0.00, -1.00, 353.7, 471.0)">n</text><text xml:space="preserve" font-family="CourierNewPSMT" font-size="24.0" fill="#000000" transform="matrix(1.00, 0.00, -0.00, -1.00, 368.1, 471.0)">t</text><text xml:space="preserve" font-family="CourierNewPSMT" font-size="24.0" fill="#000000" transform="matrix(1.00, 0.00, -0.00, -1.00, 382.5, 471.0)">.</text><text xml:space="preserve" font-family="CourierNewPSMT" font-size="24.0" fill="#021993" transform="matrix(1.00, 0.00, -0.00, -1.00, 396.9, 471.0)">q</text><text xml:space="preserve" font-family="CourierNewPSMT" font-size="24.0" fill="#021993" transform="matrix(1.00, 0.00, -0.00, -1.00, 411.3, 471.0)">u</text><text xml:space="preserve" font-family="CourierNewPSMT" font-size="24.0" fill="#021993" transform="matrix(1.00, 0.00, -0.00, -1.00, 425.7, 471.0)">e</text><text xml:space="preserve" font-family="CourierNewPSMT" font-size="24.0" fill="#021993" transform="matrix(1.00, 0.00, -0.00, -1.00, 440.1, 471.0)">r</text><text xml:space="preserve" font-family="CourierNewPSMT" font-size="24.0" fill="#021993" transform="matrix(1.00, 0.00, -0.00, -1.00, 454.5, 471.0)">y</text><text xml:space="preserve" font-family="CourierNewPSMT" font-size="24.0" fill="#021993" transform="matrix(1.00, 0.00, -0.00, -1.00, 468.9, 471.0)">S</text><text xml:space="preserve" font-family="CourierNewPSMT" font-size="24.0" fill="#021993" transform="matrix(1.00, 0.00, -0.00, -1.00, 483.3, 471.0)">e</text><text xml:space="preserve" font-family="CourierNewPSMT" font-size="24.0" fill="#021993" transform="matrix(1.00, 0.00, -0.00, -1.00, 497.7, 471.0)">l</text><text xml:space="preserve" font-family="CourierNewPSMT" font-size="24.0" fill="#021993" transform="matrix(1.00, 0.00, -0.00, -1.00, 512.1, 471.0)">e</text><text xml:space="preserve" font-family="CourierNewPSMT" font-size="24.0" fill="#021993" transform="matrix(1.00, 0.00, -0.00, -1.00, 526.5, 471.0)">c</text><text xml:space="preserve" font-family="CourierNewPSMT" font-size="24.0" fill="#021993" transform="matrix(1.00, 0.00, -0.00, -1.00, 540.9, 471.0)">t</text><text xml:space="preserve" font-family="CourierNewPSMT" font-size="24.0" fill="#021993" transform="matrix(1.00, 0.00, -0.00, -1.00, 555.3, 471.0)">o</text><text xml:space="preserve" font-family="CourierNewPSMT" font-size="24.0" fill="#021993" transform="matrix(1.00, 0.00, -0.00, -1.00, 569.7, 471.0)">r</text><text xml:space="preserve" font-family="CourierNewPSMT" font-size="24.0" fill="#021993" transform="matrix(1.00, 0.00, -0.00, -1.00, 584.1, 471.0)">A</text><text xml:space="preserve" font-family="CourierNewPSMT" font-size="24.0" fill="#021993" transform="matrix(1.00, 0.00, -0.00, -1.00, 598.5, 471.0)">l</text><text xml:space="preserve" font-family="CourierNewPSMT" font-size="24.0" fill="#021993" transform="matrix(1.00, 0.00, -0.00, -1.00, 612.9, 471.0)">l</text><text xml:space="preserve" font-family="CourierNewPSMT" font-size="24.0" fill="#000000" transform="matrix(1.00, 0.00, -0.00, -1.00, 627.3, 471.0)">(</text><text xml:space="preserve" font-family="CourierNewPSMT" font-size="24.0" fill="#CC1C00" transform="matrix(1.00, 0.00, -0.00, -1.00, 641.7, 471.0)">'</text><text xml:space="preserve" font-family="CourierNewPSMT" font-size="24.0" fill="#CC1C00" transform="matrix(1.00, 0.00, -0.00, -1.00, 656.1, 471.0)">d</text><text xml:space="preserve" font-family="CourierNewPSMT" font-size="24.0" fill="#CC1C00" transform="matrix(1.00, 0.00, -0.00, -1.00, 670.5, 471.0)">i</text><text xml:space="preserve" font-family="CourierNewPSMT" font-size="24.0" fill="#CC1C00" transform="matrix(1.00, 0.00, -0.00, -1.00, 684.9, 471.0)">v</text><text xml:space="preserve" font-family="CourierNewPSMT" font-size="24.0" fill="#CC1C00" transform="matrix(1.00, 0.00, -0.00, -1.00, 699.3, 471.0)">'</text><text xml:space="preserve" font-family="CourierNewPSMT" font-size="24.0" fill="#000000" transform="matrix(1.00, 0.00, -0.00, -1.00, 713.7, 471.0)">)</text><text xml:space="preserve" font-family="CourierNewPSMT" font-size="24.0" fill="#000000" transform="matrix(1.00, 0.00, -0.00, -1.00, 728.1, 471.0)"> </text><text xml:space="preserve" font-family="CourierNewPS-BoldMT" font-weight="bold" font-size="24.0" fill="#000000" transform="matrix(1.00, 0.00, -0.00, -1.00, 80.0, 417.0)">f</text><text xml:space="preserve" font-family="CourierNewPS-BoldMT" font-weight="bold" font-size="24.0" fill="#000000" transform="matrix(1.00, 0.00, -0.00, -1.00, 94.4, 417.0)">u</text><text xml:space="preserve" font-family="CourierNewPS-BoldMT" font-weight="bold" font-size="24.0" fill="#000000" transform="matrix(1.00, 0.00, -0.00, -1.00, 108.8, 417.0)">n</text><text xml:space="preserve" font-family="CourierNewPS-BoldMT" font-weight="bold" font-size="24.0" fill="#000000" transform="matrix(1.00, 0.00, -0.00, -1.00, 123.2, 417.0)">c</text><text xml:space="preserve" font-family="CourierNewPS-BoldMT" font-weight="bold" font-size="24.0" fill="#000000" transform="matrix(1.00, 0.00, -0.00, -1.00, 137.6, 417.0)">t</text><text xml:space="preserve" font-family="CourierNewPS-BoldMT" font-weight="bold" font-size="24.0" fill="#000000" transform="matrix(1.00, 0.00, -0.00, -1.00, 152.0, 417.0)">i</text><text xml:space="preserve" font-family="CourierNewPS-BoldMT" font-weight="bold" font-size="24.0" fill="#000000" transform="matrix(1.00, 0.00, -0.00, -1.00, 166.4, 417.0)">o</text><text xml:space="preserve" font-family="CourierNewPS-BoldMT" font-weight="bold" font-size="24.0" fill="#000000" transform="matrix(1.00, 0.00, -0.00, -1.00, 180.8, 417.0)">n</text><text xml:space="preserve" font-family="CourierNewPSMT" font-size="24.0" fill="#000000" transform="matrix(1.00, 0.00, -0.00, -1.00, 195.2, 417.0)"> </text><text xml:space="preserve" font-family="CourierNewPSMT" font-size="24.0" fill="#021993" transform="matrix(1.00, 0.00, -0.00, -1.00, 209.6, 417.0)">b</text><text xml:space="preserve" font-family="CourierNewPSMT" font-size="24.0" fill="#021993" transform="matrix(1.00, 0.00, -0.00, -1.00, 224.0, 417.0)">u</text><text xml:space="preserve" font-family="CourierNewPSMT" font-size="24.0" fill="#021993" transform="matrix(1.00, 0.00, -0.00, -1.00, 238.4, 417.0)">b</text><text xml:space="preserve" font-family="CourierNewPSMT" font-size="24.0" fill="#021993" transform="matrix(1.00, 0.00, -0.00, -1.00, 252.8, 417.0)">b</text><text xml:space="preserve" font-family="CourierNewPSMT" font-size="24.0" fill="#021993" transform="matrix(1.00, 0.00, -0.00, -1.00, 267.2, 417.0)">l</text><text xml:space="preserve" font-family="CourierNewPSMT" font-size="24.0" fill="#021993" transform="matrix(1.00, 0.00, -0.00, -1.00, 281.6, 417.0)">e</text><text xml:space="preserve" font-family="CourierNewPSMT" font-size="24.0" fill="#000000" transform="matrix(1.00, 0.00, -0.00, -1.00, 296.0, 417.0)">(</text><text xml:space="preserve" font-family="CourierNewPSMT" font-size="24.0" fill="#000000" transform="matrix(1.00, 0.00, -0.00, -1.00, 310.4, 417.0)">e</text><text xml:space="preserve" font-family="CourierNewPSMT" font-size="24.0" fill="#000000" transform="matrix(1.00, 0.00, -0.00, -1.00, 324.8, 417.0)">)</text><text xml:space="preserve" font-family="CourierNewPSMT" font-size="24.0" fill="#000000" transform="matrix(1.00, 0.00, -0.00, -1.00, 339.2, 417.0)"> </text><text xml:space="preserve" font-family="CourierNewPSMT" font-size="24.0" fill="#000000" transform="matrix(1.00, 0.00, -0.00, -1.00, 353.7, 417.0)">{</text><text xml:space="preserve" font-family="CourierNewPSMT" font-size="24.0" fill="#000000" transform="matrix(1.00, 0.00, -0.00, -1.00, 368.1, 417.0)"> </text><text xml:space="preserve" font-family="CourierNewPSMT" font-size="24.0" fill="#000000" transform="matrix(1.00, 0.00, -0.00, -1.00, 80.0, 390.0)"> </text><text xml:space="preserve" font-family="CourierNewPSMT" font-size="24.0" fill="#000000" transform="matrix(1.00, 0.00, -0.00, -1.00, 94.4, 390.0)"> </text><text xml:space="preserve" font-family="CourierNewPS-ItalicMT" font-style="italic" font-size="24.0" fill="#959395" transform="matrix(1.00, 0.00, -0.00, -1.00, 108.8, 390.0)">/</text><text xml:space="preserve" font-family="CourierNewPS-ItalicMT" font-style="italic" font-size="24.0" fill="#959395" transform="matrix(1.00, 0.00, -0.00, -1.00, 123.2, 390.0)">/</text><text xml:space="preserve" font-family="CourierNewPS-ItalicMT" font-style="italic" font-size="24.0" fill="#959395" transform="matrix(1.00, 0.00, -0.00, -1.00, 137.6, 390.0)"> </text><text xml:space="preserve" font-family="CourierNewPS-ItalicMT" font-style="italic" font-size="24.0" fill="#959395" transform="matrix(1.00, 0.00, -0.00, -1.00, 152.0, 390.0)">s</text><text xml:space="preserve" font-family="CourierNewPS-ItalicMT" font-style="italic" font-size="24.0" fill="#959395" transform="matrix(1.00, 0.00, -0.00, -1.00, 166.4, 390.0)">t</text><text xml:space="preserve" font-family="CourierNewPS-ItalicMT" font-style="italic" font-size="24.0" fill="#959395" transform="matrix(1.00, 0.00, -0.00, -1.00, 180.8, 390.0)">o</text><text xml:space="preserve" font-family="CourierNewPS-ItalicMT" font-style="italic" font-size="24.0" fill="#959395" transform="matrix(1.00, 0.00, -0.00, -1.00, 195.2, 390.0)">p</text><text xml:space="preserve" font-family="CourierNewPS-ItalicMT" font-style="italic" font-size="24.0" fill="#959395" transform="matrix(1.00, 0.00, -0.00, -1.00, 209.6, 390.0)">!</text><text xml:space="preserve" font-family="CourierNewPS-ItalicMT" font-style="italic" font-size="24.0" fill="#959395" transform="matrix(1.00, 0.00, -0.00, -1.00, 224.0, 390.0)"> </text><text xml:space="preserve" font-family="CourierNewPS-ItalicMT" font-style="italic" font-size="24.0" fill="#959395" transform="matrix(1.00, 0.00, -0.00, -1.00, 238.4, 390.0)">t</text><text xml:space="preserve" font-family="CourierNewPS-ItalicMT" font-style="italic" font-size="24.0" fill="#959395" transform="matrix(1.00, 0.00, -0.00, -1.00, 252.9, 390.0)">h</text><text xml:space="preserve" font-family="CourierNewPS-ItalicMT" font-style="italic" font-size="24.0" fill="#959395" transform="matrix(1.00, 0.00, -0.00, -1.00, 267.3, 390.0)">a</text><text xml:space="preserve" font-family="CourierNewPS-ItalicMT" font-style="italic" font-size="24.0" fill="#959395" transform="matrix(1.00, 0.00, -0.00, -1.00, 281.7, 390.0)">t</text><text xml:space="preserve" font-family="CourierNewPS-ItalicMT" font-style="italic" font-size="24.0" fill="#959395" transform="matrix(1.00, 0.00, -0.00, -1.00, 296.1, 390.0)">!</text><text xml:space="preserve" font-family="CourierNewPS-ItalicMT" font-style="italic" font-size="24.0" fill="#959395" transform="matrix(1.00, 0.00, -0.00, -1.00, 310.5, 390.0)"> </text><text xml:space="preserve" font-family="CourierNewPS-ItalicMT" font-style="italic" font-size="24.0" fill="#959395" transform="matrix(1.00, 0.00, -0.00, -1.00, 324.9, 390.0)">p</text><text xml:space="preserve" font-family="CourierNewPS-ItalicMT" font-style="italic" font-size="24.0" fill="#959395" transform="matrix(1.00, 0.00, -0.00, -1.00, 339.3, 390.0)">r</text><text xml:space="preserve" font-family="CourierNewPS-ItalicMT" font-style="italic" font-size="24.0" fill="#959395" transform="matrix(1.00, 0.00, -0.00, -1.00, 353.7, 390.0)">o</text><text xml:space="preserve" font-family="CourierNewPS-ItalicMT" font-style="italic" font-size="24.0" fill="#959395" transform="matrix(1.00, 0.00, -0.00, -1.00, 368.1, 390.0)">p</text><text xml:space="preserve" font-family="CourierNewPS-ItalicMT" font-style="italic" font-size="24.0" fill="#959395" transform="matrix(1.00, 0.00, -0.00, -1.00, 382.5, 390.0)">a</text><text xml:space="preserve" font-family="CourierNewPS-ItalicMT" font-style="italic" font-size="24.0" fill="#959395" transform="matrix(1.00, 0.00, -0.00, -1.00, 396.9, 390.0)">g</text><text xml:space="preserve" font-family="CourierNewPS-ItalicMT" font-style="italic" font-size="24.0" fill="#959395" transform="matrix(1.00, 0.00, -0.00, -1.00, 411.3, 390.0)">a</text><text xml:space="preserve" font-family="CourierNewPS-ItalicMT" font-style="italic" font-size="24.0" fill="#959395" transform="matrix(1.00, 0.00, -0.00, -1.00, 425.7, 390.0)">t</text><text xml:space="preserve" font-family="CourierNewPS-ItalicMT" font-style="italic" font-size="24.0" fill="#959395" transform="matrix(1.00, 0.00, -0.00, -1.00, 440.1, 390.0)">i</text><text xml:space="preserve" font-family="CourierNewPS-ItalicMT" font-style="italic" font-size="24.0" fill="#959395" transform="matrix(1.00, 0.00, -0.00, -1.00, 454.5, 390.0)">o</text><text xml:space="preserve" font-family="CourierNewPS-ItalicMT" font-style="italic" font-size="24.0" fill="#959395" transform="matrix(1.00, 0.00, -0.00, -1.00, 468.9, 390.0)">n</text><text xml:space="preserve" font-family="CourierNewPS-ItalicMT" font-style="italic" font-size="24.0" fill="#959395" transform="matrix(1.00, 0.00, -0.00, -1.00, 483.3, 390.0)">!</text><text xml:space="preserve" font-family="CourierNewPSMT" font-size="24.0" fill="#000000" transform="matrix(1.00, 0.00, -0.00, -1.00, 497.7, 390.0)"> </text><text xml:space="preserve" font-family="CourierNewPSMT" font-size="24.0" fill="#000000" transform="matrix(1.00, 0.00, -0.00, -1.00, 80.0, 363.0)"> </text><text xml:space="preserve" font-family="CourierNewPSMT" font-size="24.0" fill="#000000" transform="matrix(1.00, 0.00, -0.00, -1.00, 94.4, 363.0)"> </text><text xml:space="preserve" font-family="CourierNewPSMT" font-size="24.0" fill="#000000" transform="matrix(1.00, 0.00, -0.00, -1.00, 108.8, 363.0)">e</text><text xml:space="preserve" font-family="CourierNewPSMT" font-size="24.0" fill="#000000" transform="matrix(1.00, 0.00, -0.00, -1.00, 123.2, 363.0)">.</text><text xml:space="preserve" font-family="CourierNewPSMT" font-size="24.0" fill="#021993" transform="matrix(1.00, 0.00, -0.00, -1.00, 137.6, 363.0)">s</text><text xml:space="preserve" font-family="CourierNewPSMT" font-size="24.0" fill="#021993" transform="matrix(1.00, 0.00, -0.00, -1.00, 152.0, 363.0)">t</text><text xml:space="preserve" font-family="CourierNewPSMT" font-size="24.0" fill="#021993" transform="matrix(1.00, 0.00, -0.00, -1.00, 166.4, 363.0)">o</text><text xml:space="preserve" font-family="CourierNewPSMT" font-size="24.0" fill="#021993" transform="matrix(1.00, 0.00, -0.00, -1.00, 180.8, 363.0)">p</text><text xml:space="preserve" font-family="CourierNewPSMT" font-size="24.0" fill="#021993" transform="matrix(1.00, 0.00, -0.00, -1.00, 195.2, 363.0)">P</text><text xml:space="preserve" font-family="CourierNewPSMT" font-size="24.0" fill="#021993" transform="matrix(1.00, 0.00, -0.00, -1.00, 209.6, 363.0)">r</text><text xml:space="preserve" font-family="CourierNewPSMT" font-size="24.0" fill="#021993" transform="matrix(1.00, 0.00, -0.00, -1.00, 224.0, 363.0)">o</text><text xml:space="preserve" font-family="CourierNewPSMT" font-size="24.0" fill="#021993" transform="matrix(1.00, 0.00, -0.00, -1.00, 238.4, 363.0)">p</text><text xml:space="preserve" font-family="CourierNewPSMT" font-size="24.0" fill="#021993" transform="matrix(1.00, 0.00, -0.00, -1.00, 252.8, 363.0)">a</text><text xml:space="preserve" font-family="CourierNewPSMT" font-size="24.0" fill="#021993" transform="matrix(1.00, 0.00, -0.00, -1.00, 267.3, 363.0)">g</text><text xml:space="preserve" font-family="CourierNewPSMT" font-size="24.0" fill="#021993" transform="matrix(1.00, 0.00, -0.00, -1.00, 281.7, 363.0)">a</text><text xml:space="preserve" font-family="CourierNewPSMT" font-size="24.0" fill="#021993" transform="matrix(1.00, 0.00, -0.00, -1.00, 296.1, 363.0)">t</text><text xml:space="preserve" font-family="CourierNewPSMT" font-size="24.0" fill="#021993" transform="matrix(1.00, 0.00, -0.00, -1.00, 310.5, 363.0)">i</text><text xml:space="preserve" font-family="CourierNewPSMT" font-size="24.0" fill="#021993" transform="matrix(1.00, 0.00, -0.00, -1.00, 324.9, 363.0)">o</text><text xml:space="preserve" font-family="CourierNewPSMT" font-size="24.0" fill="#021993" transform="matrix(1.00, 0.00, -0.00, -1.00, 339.3, 363.0)">n</text><text xml:space="preserve" font-family="CourierNewPSMT" font-size="24.0" fill="#000000" transform="matrix(1.00, 0.00, -0.00, -1.00, 353.6, 363.0)">(</text><text xml:space="preserve" font-family="CourierNewPSMT" font-size="24.0" fill="#000000" transform="matrix(1.00, 0.00, -0.00, -1.00, 368.0, 363.0)">)</text><text xml:space="preserve" font-family="CourierNewPSMT" font-size="24.0" fill="#000000" transform="matrix(1.00, 0.00, -0.00, -1.00, 382.5, 363.0)"> </text><text xml:space="preserve" font-family="CourierNewPSMT" font-size="24.0" fill="#000000" transform="matrix(1.00, 0.00, -0.00, -1.00, 80.0, 309.0)"> </text><text xml:space="preserve" font-family="CourierNewPSMT" font-size="24.0" fill="#000000" transform="matrix(1.00, 0.00, -0.00, -1.00, 94.4, 309.0)"> </text><text xml:space="preserve" font-family="CourierNewPSMT" font-size="24.0" fill="#000000" transform="matrix(1.00, 0.00, -0.00, -1.00, 108.8, 309.0)">c</text><text xml:space="preserve" font-family="CourierNewPSMT" font-size="24.0" fill="#000000" transform="matrix(1.00, 0.00, -0.00, -1.00, 123.2, 309.0)">o</text><text xml:space="preserve" font-family="CourierNewPSMT" font-size="24.0" fill="#000000" transform="matrix(1.00, 0.00, -0.00, -1.00, 137.6, 309.0)">n</text><text xml:space="preserve" font-family="CourierNewPSMT" font-size="24.0" fill="#000000" transform="matrix(1.00, 0.00, -0.00, -1.00, 152.0, 309.0)">s</text><text xml:space="preserve" font-family="CourierNewPSMT" font-size="24.0" fill="#000000" transform="matrix(1.00, 0.00, -0.00, -1.00, 166.4, 309.0)">o</text><text xml:space="preserve" font-family="CourierNewPSMT" font-size="24.0" fill="#000000" transform="matrix(1.00, 0.00, -0.00, -1.00, 180.8, 309.0)">l</text><text xml:space="preserve" font-family="CourierNewPSMT" font-size="24.0" fill="#000000" transform="matrix(1.00, 0.00, -0.00, -1.00, 195.2, 309.0)">e</text><text xml:space="preserve" font-family="CourierNewPSMT" font-size="24.0" fill="#000000" transform="matrix(1.00, 0.00, -0.00, -1.00, 209.6, 309.0)">.</text><text xml:space="preserve" font-family="CourierNewPSMT" font-size="24.0" fill="#021993" transform="matrix(1.00, 0.00, -0.00, -1.00, 224.0, 309.0)">l</text><text xml:space="preserve" font-family="CourierNewPSMT" font-size="24.0" fill="#021993" transform="matrix(1.00, 0.00, -0.00, -1.00, 238.4, 309.0)">o</text><text xml:space="preserve" font-family="CourierNewPSMT" font-size="24.0" fill="#021993" transform="matrix(1.00, 0.00, -0.00, -1.00, 252.8, 309.0)">g</text><text xml:space="preserve" font-family="CourierNewPSMT" font-size="24.0" fill="#000000" transform="matrix(1.00, 0.00, -0.00, -1.00, 267.2, 309.0)">(</text><text xml:space="preserve" font-family="CourierNewPS-BoldMT" font-weight="bold" font-size="24.0" fill="#000000" transform="matrix(1.00, 0.00, -0.00, -1.00, 281.6, 309.0)">t</text><text xml:space="preserve" font-family="CourierNewPS-BoldMT" font-weight="bold" font-size="24.0" fill="#000000" transform="matrix(1.00, 0.00, -0.00, -1.00, 296.0, 309.0)">h</text><text xml:space="preserve" font-family="CourierNewPS-BoldMT" font-weight="bold" font-size="24.0" fill="#000000" transform="matrix(1.00, 0.00, -0.00, -1.00, 310.4, 309.0)">i</text><text xml:space="preserve" font-family="CourierNewPS-BoldMT" font-weight="bold" font-size="24.0" fill="#000000" transform="matrix(1.00, 0.00, -0.00, -1.00, 324.8, 309.0)">s</text><text xml:space="preserve" font-family="CourierNewPSMT" font-size="24.0" fill="#000000" transform="matrix(1.00, 0.00, -0.00, -1.00, 339.2, 309.0)">.</text><text xml:space="preserve" font-family="CourierNewPSMT" font-size="24.0" fill="#000000" transform="matrix(1.00, 0.00, -0.00, -1.00, 353.6, 309.0)">f</text><text xml:space="preserve" font-family="CourierNewPSMT" font-size="24.0" fill="#000000" transform="matrix(1.00, 0.00, -0.00, -1.00, 368.1, 309.0)">i</text><text xml:space="preserve" font-family="CourierNewPSMT" font-size="24.0" fill="#000000" transform="matrix(1.00, 0.00, -0.00, -1.00, 382.5, 309.0)">r</text><text xml:space="preserve" font-family="CourierNewPSMT" font-size="24.0" fill="#000000" transform="matrix(1.00, 0.00, -0.00, -1.00, 396.9, 309.0)">s</text><text xml:space="preserve" font-family="CourierNewPSMT" font-size="24.0" fill="#000000" transform="matrix(1.00, 0.00, -0.00, -1.00, 411.3, 309.0)">t</text><text xml:space="preserve" font-family="CourierNewPSMT" font-size="24.0" fill="#000000" transform="matrix(1.00, 0.00, -0.00, -1.00, 425.7, 309.0)">C</text><text xml:space="preserve" font-family="CourierNewPSMT" font-size="24.0" fill="#000000" transform="matrix(1.00, 0.00, -0.00, -1.00, 440.1, 309.0)">h</text><text xml:space="preserve" font-family="CourierNewPSMT" font-size="24.0" fill="#000000" transform="matrix(1.00, 0.00, -0.00, -1.00, 454.5, 309.0)">i</text><text xml:space="preserve" font-family="CourierNewPSMT" font-size="24.0" fill="#000000" transform="matrix(1.00, 0.00, -0.00, -1.00, 468.9, 309.0)">l</text><text xml:space="preserve" font-family="CourierNewPSMT" font-size="24.0" fill="#000000" transform="matrix(1.00, 0.00, -0.00, -1.00, 483.3, 309.0)">d</text><text xml:space="preserve" font-family="CourierNewPSMT" font-size="24.0" fill="#000000" transform="matrix(1.00, 0.00, -0.00, -1.00, 497.7, 309.0)">.</text><text xml:space="preserve" font-family="CourierNewPSMT" font-size="24.0" fill="#000000" transform="matrix(1.00, 0.00, -0.00, -1.00, 512.1, 309.0)">n</text><text xml:space="preserve" font-family="CourierNewPSMT" font-size="24.0" fill="#000000" transform="matrix(1.00, 0.00, -0.00, -1.00, 526.5, 309.0)">o</text><text xml:space="preserve" font-family="CourierNewPSMT" font-size="24.0" fill="#000000" transform="matrix(1.00, 0.00, -0.00, -1.00, 540.9, 309.0)">d</text><text xml:space="preserve" font-family="CourierNewPSMT" font-size="24.0" fill="#000000" transform="matrix(1.00, 0.00, -0.00, -1.00, 555.3, 309.0)">e</text><text xml:space="preserve" font-family="CourierNewPSMT" font-size="24.0" fill="#000000" transform="matrix(1.00, 0.00, -0.00, -1.00, 569.7, 309.0)">V</text><text xml:space="preserve" font-family="CourierNewPSMT" font-size="24.0" fill="#000000" transform="matrix(1.00, 0.00, -0.00, -1.00, 584.1, 309.0)">a</text><text xml:space="preserve" font-family="CourierNewPSMT" font-size="24.0" fill="#000000" transform="matrix(1.00, 0.00, -0.00, -1.00, 598.5, 309.0)">l</text><text xml:space="preserve" font-family="CourierNewPSMT" font-size="24.0" fill="#000000" transform="matrix(1.00, 0.00, -0.00, -1.00, 612.9, 309.0)">u</text><text xml:space="preserve" font-family="CourierNewPSMT" font-size="24.0" fill="#000000" transform="matrix(1.00, 0.00, -0.00, -1.00, 627.3, 309.0)">e</text><text xml:space="preserve" font-family="CourierNewPSMT" font-size="24.0" fill="#000000" transform="matrix(1.00, 0.00, -0.00, -1.00, 641.7, 309.0)">.</text><text xml:space="preserve" font-family="CourierNewPSMT" font-size="24.0" fill="#021993" transform="matrix(1.00, 0.00, -0.00, -1.00, 656.1, 309.0)">t</text><text xml:space="preserve" font-family="CourierNewPSMT" font-size="24.0" fill="#021993" transform="matrix(1.00, 0.00, -0.00, -1.00, 670.5, 309.0)">r</text><text xml:space="preserve" font-family="CourierNewPSMT" font-size="24.0" fill="#021993" transform="matrix(1.00, 0.00, -0.00, -1.00, 684.9, 309.0)">i</text><text xml:space="preserve" font-family="CourierNewPSMT" font-size="24.0" fill="#021993" transform="matrix(1.00, 0.00, -0.00, -1.00, 699.3, 309.0)">m</text><text xml:space="preserve" font-family="CourierNewPSMT" font-size="24.0" fill="#000000" transform="matrix(1.00, 0.00, -0.00, -1.00, 713.7, 309.0)">(</text><text xml:space="preserve" font-family="CourierNewPSMT" font-size="24.0" fill="#000000" transform="matrix(1.00, 0.00, -0.00, -1.00, 728.1, 309.0)">)</text><text xml:space="preserve" font-family="CourierNewPSMT" font-size="24.0" fill="#000000" transform="matrix(1.00, 0.00, -0.00, -1.00, 742.5, 309.0)"> </text><text xml:space="preserve" font-family="CourierNewPSMT" font-size="24.0" fill="#000000" transform="matrix(1.00, 0.00, -0.00, -1.00, 756.9, 309.0)">+</text><text xml:space="preserve" font-family="CourierNewPSMT" font-size="24.0" fill="#000000" transform="matrix(1.00, 0.00, -0.00, -1.00, 771.3, 309.0)"> </text><text xml:space="preserve" font-family="CourierNewPSMT" font-size="24.0" fill="#CC1C00" transform="matrix(1.00, 0.00, -0.00, -1.00, 785.7, 309.0)">'</text><text xml:space="preserve" font-family="CourierNewPSMT" font-size="24.0" fill="#CC1C00" transform="matrix(1.00, 0.00, -0.00, -1.00, 800.1, 309.0)"> </text><text xml:space="preserve" font-family="CourierNewPSMT" font-size="24.0" fill="#CC1C00" transform="matrix(1.00, 0.00, -0.00, -1.00, 80.0, 282.0)">b</text><text xml:space="preserve" font-family="CourierNewPSMT" font-size="24.0" fill="#CC1C00" transform="matrix(1.00, 0.00, -0.00, -1.00, 94.4, 282.0)">u</text><text xml:space="preserve" font-family="CourierNewPSMT" font-size="24.0" fill="#CC1C00" transform="matrix(1.00, 0.00, -0.00, -1.00, 108.8, 282.0)">b</text><text xml:space="preserve" font-family="CourierNewPSMT" font-size="24.0" fill="#CC1C00" transform="matrix(1.00, 0.00, -0.00, -1.00, 123.2, 282.0)">b</text><text xml:space="preserve" font-family="CourierNewPSMT" font-size="24.0" fill="#CC1C00" transform="matrix(1.00, 0.00, -0.00, -1.00, 137.6, 282.0)">l</text><text xml:space="preserve" font-family="CourierNewPSMT" font-size="24.0" fill="#CC1C00" transform="matrix(1.00, 0.00, -0.00, -1.00, 152.0, 282.0)">e</text><text xml:space="preserve" font-family="CourierNewPSMT" font-size="24.0" fill="#CC1C00" transform="matrix(1.00, 0.00, -0.00, -1.00, 166.4, 282.0)">d</text><text xml:space="preserve" font-family="CourierNewPSMT" font-size="24.0" fill="#CC1C00" transform="matrix(1.00, 0.00, -0.00, -1.00, 180.8, 282.0)">'</text><text xml:space="preserve" font-family="CourierNewPSMT" font-size="24.0" fill="#000000" transform="matrix(1.00, 0.00, -0.00, -1.00, 195.2, 282.0)">)</text><text xml:space="preserve" font-family="CourierNewPSMT" font-size="24.0" fill="#000000" transform="matrix(1.00, 0.00, -0.00, -1.00, 209.6, 282.0)"> </text><text xml:space="preserve" font-family="CourierNewPSMT" font-size="24.0" fill="#000000" transform="matrix(1.00, 0.00, -0.00, -1.00, 80.0, 255.0)">}</text><text xml:space="preserve" font-family="CourierNewPSMT" font-size="24.0" fill="#000000" transform="matrix(1.00, 0.00, -0.00, -1.00, 94.4, 255.0)"> </text><text xml:space="preserve" font-family="CourierNewPS-BoldMT" font-weight="bold" font-size="24.0" fill="#000000" transform="matrix(1.00, 0.00, -0.00, -1.00, 80.0, 201.0)">f</text><text xml:space="preserve" font-family="CourierNewPS-BoldMT" font-weight="bold" font-size="24.0" fill="#000000" transform="matrix(1.00, 0.00, -0.00, -1.00, 94.4, 201.0)">o</text><text xml:space="preserve" font-family="CourierNewPS-BoldMT" font-weight="bold" font-size="24.0" fill="#000000" transform="matrix(1.00, 0.00, -0.00, -1.00, 108.8, 201.0)">r</text><text xml:space="preserve" font-family="CourierNewPSMT" font-size="24.0" fill="#000000" transform="matrix(1.00, 0.00, -0.00, -1.00, 123.2, 201.0)"> </text><text xml:space="preserve" font-family="CourierNewPSMT" font-size="24.0" fill="#000000" transform="matrix(1.00, 0.00, -0.00, -1.00, 137.6, 201.0)">(</text><text xml:space="preserve" font-family="CourierNewPS-BoldMT" font-weight="bold" font-size="24.0" fill="#000000" transform="matrix(1.00, 0.00, -0.00, -1.00, 152.0, 201.0)">l</text><text xml:space="preserve" font-family="CourierNewPS-BoldMT" font-weight="bold" font-size="24.0" fill="#000000" transform="matrix(1.00, 0.00, -0.00, -1.00, 166.4, 201.0)">e</text><text xml:space="preserve" font-family="CourierNewPS-BoldMT" font-weight="bold" font-size="24.0" fill="#000000" transform="matrix(1.00, 0.00, -0.00, -1.00, 180.8, 201.0)">t</text><text xml:space="preserve" font-family="CourierNewPSMT" font-size="24.0" fill="#000000" transform="matrix(1.00, 0.00, -0.00, -1.00, 195.2, 201.0)"> </text><text xml:space="preserve" font-family="CourierNewPSMT" font-size="24.0" fill="#000000" transform="matrix(1.00, 0.00, -0.00, -1.00, 209.6, 201.0)">i</text><text xml:space="preserve" font-family="CourierNewPSMT" font-size="24.0" fill="#000000" transform="matrix(1.00, 0.00, -0.00, -1.00, 224.0, 201.0)"> </text><text xml:space="preserve" font-family="CourierNewPSMT" font-size="24.0" fill="#000000" transform="matrix(1.00, 0.00, -0.00, -1.00, 238.4, 201.0)">=</text><text xml:space="preserve" font-family="CourierNewPSMT" font-size="24.0" fill="#000000" transform="matrix(1.00, 0.00, -0.00, -1.00, 252.8, 201.0)"> </text><text xml:space="preserve" font-family="CourierNewPSMT" font-size="24.0" fill="#BE8F00" transform="matrix(1.00, 0.00, -0.00, -1.00, 267.2, 201.0)">0</text><text xml:space="preserve" font-family="CourierNewPSMT" font-size="24.0" fill="#000000" transform="matrix(1.00, 0.00, -0.00, -1.00, 281.6, 201.0)">;</text><text xml:space="preserve" font-family="CourierNewPSMT" font-size="24.0" fill="#000000" transform="matrix(1.00, 0.00, -0.00, -1.00, 296.0, 201.0)"> </text><text xml:space="preserve" font-family="CourierNewPSMT" font-size="24.0" fill="#000000" transform="matrix(1.00, 0.00, -0.00, -1.00, 310.4, 201.0)">i</text><text xml:space="preserve" font-family="CourierNewPSMT" font-size="24.0" fill="#000000" transform="matrix(1.00, 0.00, -0.00, -1.00, 324.8, 201.0)"> </text><text xml:space="preserve" font-family="CourierNewPSMT" font-size="24.0" fill="#000000" transform="matrix(1.00, 0.00, -0.00, -1.00, 339.3, 201.0)">&lt;</text><text xml:space="preserve" font-family="CourierNewPSMT" font-size="24.0" fill="#000000" transform="matrix(1.00, 0.00, -0.00, -1.00, 353.7, 201.0)"> </text><text xml:space="preserve" font-family="CourierNewPSMT" font-size="24.0" fill="#000000" transform="matrix(1.00, 0.00, -0.00, -1.00, 368.1, 201.0)">d</text><text xml:space="preserve" font-family="CourierNewPSMT" font-size="24.0" fill="#000000" transform="matrix(1.00, 0.00, -0.00, -1.00, 382.5, 201.0)">i</text><text xml:space="preserve" font-family="CourierNewPSMT" font-size="24.0" fill="#000000" transform="matrix(1.00, 0.00, -0.00, -1.00, 396.9, 201.0)">v</text><text xml:space="preserve" font-family="CourierNewPSMT" font-size="24.0" fill="#000000" transform="matrix(1.00, 0.00, -0.00, -1.00, 411.3, 201.0)">s</text><text xml:space="preserve" font-family="CourierNewPSMT" font-size="24.0" fill="#000000" transform="matrix(1.00, 0.00, -0.00, -1.00, 425.7, 201.0)">.</text><text xml:space="preserve" font-family="CourierNewPSMT" font-size="24.0" fill="#000000" transform="matrix(1.00, 0.00, -0.00, -1.00, 440.1, 201.0)">l</text><text xml:space="preserve" font-family="CourierNewPSMT" font-size="24.0" fill="#000000" transform="matrix(1.00, 0.00, -0.00, -1.00, 454.5, 201.0)">e</text><text xml:space="preserve" font-family="CourierNewPSMT" font-size="24.0" fill="#000000" transform="matrix(1.00, 0.00, -0.00, -1.00, 468.9, 201.0)">n</text><text xml:space="preserve" font-family="CourierNewPSMT" font-size="24.0" fill="#000000" transform="matrix(1.00, 0.00, -0.00, -1.00, 483.3, 201.0)">g</text><text xml:space="preserve" font-family="CourierNewPSMT" font-size="24.0" fill="#000000" transform="matrix(1.00, 0.00, -0.00, -1.00, 497.7, 201.0)">t</text><text xml:space="preserve" font-family="CourierNewPSMT" font-size="24.0" fill="#000000" transform="matrix(1.00, 0.00, -0.00, -1.00, 512.1, 201.0)">h</text><text xml:space="preserve" font-family="CourierNewPSMT" font-size="24.0" fill="#000000" transform="matrix(1.00, 0.00, -0.00, -1.00, 526.5, 201.0)">;</text><text xml:space="preserve" font-family="CourierNewPSMT" font-size="24.0" fill="#000000" transform="matrix(1.00, 0.00, -0.00, -1.00, 540.9, 201.0)"> </text><text xml:space="preserve" font-family="CourierNewPSMT" font-size="24.0" fill="#000000" transform="matrix(1.00, 0.00, -0.00, -1.00, 555.3, 201.0)">i</text><text xml:space="preserve" font-family="CourierNewPSMT" font-size="24.0" fill="#000000" transform="matrix(1.00, 0.00, -0.00, -1.00, 569.7, 201.0)">+</text><text xml:space="preserve" font-family="CourierNewPSMT" font-size="24.0" fill="#000000" transform="matrix(1.00, 0.00, -0.00, -1.00, 584.1, 201.0)">+</text><text xml:space="preserve" font-family="CourierNewPSMT" font-size="24.0" fill="#000000" transform="matrix(1.00, 0.00, -0.00, -1.00, 598.5, 201.0)">)</text><text xml:space="preserve" font-family="CourierNewPSMT" font-size="24.0" fill="#000000" transform="matrix(1.00, 0.00, -0.00, -1.00, 612.9, 201.0)"> </text><text xml:space="preserve" font-family="CourierNewPSMT" font-size="24.0" fill="#000000" transform="matrix(1.00, 0.00, -0.00, -1.00, 627.3, 201.0)">{</text><text xml:space="preserve" font-family="CourierNewPSMT" font-size="24.0" fill="#000000" transform="matrix(1.00, 0.00, -0.00, -1.00, 641.8, 201.0)"> </text><text xml:space="preserve" font-family="CourierNewPSMT" font-size="24.0" fill="#000000" transform="matrix(1.00, 0.00, -0.00, -1.00, 80.0, 174.0)"> </text><text xml:space="preserve" font-family="CourierNewPSMT" font-size="24.0" fill="#000000" transform="matrix(1.00, 0.00, -0.00, -1.00, 94.4, 174.0)"> </text><text xml:space="preserve" font-family="CourierNewPSMT" font-size="24.0" fill="#000000" transform="matrix(1.00, 0.00, -0.00, -1.00, 108.8, 174.0)">d</text><text xml:space="preserve" font-family="CourierNewPSMT" font-size="24.0" fill="#000000" transform="matrix(1.00, 0.00, -0.00, -1.00, 123.2, 174.0)">i</text><text xml:space="preserve" font-family="CourierNewPSMT" font-size="24.0" fill="#000000" transform="matrix(1.00, 0.00, -0.00, -1.00, 137.6, 174.0)">v</text><text xml:space="preserve" font-family="CourierNewPSMT" font-size="24.0" fill="#000000" transform="matrix(1.00, 0.00, -0.00, -1.00, 152.0, 174.0)">s</text><text xml:space="preserve" font-family="CourierNewPSMT" font-size="24.0" fill="#000000" transform="matrix(1.00, 0.00, -0.00, -1.00, 166.4, 174.0)">[</text><text xml:space="preserve" font-family="CourierNewPSMT" font-size="24.0" fill="#000000" transform="matrix(1.00, 0.00, -0.00, -1.00, 180.8, 174.0)">i</text><text xml:space="preserve" font-family="CourierNewPSMT" font-size="24.0" fill="#000000" transform="matrix(1.00, 0.00, -0.00, -1.00, 195.2, 174.0)">]</text><text xml:space="preserve" font-family="CourierNewPSMT" font-size="24.0" fill="#000000" transform="matrix(1.00, 0.00, -0.00, -1.00, 209.6, 174.0)">.</text><text xml:space="preserve" font-family="CourierNewPSMT" font-size="24.0" fill="#021993" transform="matrix(1.00, 0.00, -0.00, -1.00, 224.0, 174.0)">a</text><text xml:space="preserve" font-family="CourierNewPSMT" font-size="24.0" fill="#021993" transform="matrix(1.00, 0.00, -0.00, -1.00, 238.4, 174.0)">d</text><text xml:space="preserve" font-family="CourierNewPSMT" font-size="24.0" fill="#021993" transform="matrix(1.00, 0.00, -0.00, -1.00, 252.8, 174.0)">d</text><text xml:space="preserve" font-family="CourierNewPSMT" font-size="24.0" fill="#021993" transform="matrix(1.00, 0.00, -0.00, -1.00, 267.2, 174.0)">E</text><text xml:space="preserve" font-family="CourierNewPSMT" font-size="24.0" fill="#021993" transform="matrix(1.00, 0.00, -0.00, -1.00, 281.6, 174.0)">v</text><text xml:space="preserve" font-family="CourierNewPSMT" font-size="24.0" fill="#021993" transform="matrix(1.00, 0.00, -0.00, -1.00, 296.0, 174.0)">e</text><text xml:space="preserve" font-family="CourierNewPSMT" font-size="24.0" fill="#021993" transform="matrix(1.00, 0.00, -0.00, -1.00, 310.5, 174.0)">n</text><text xml:space="preserve" font-family="CourierNewPSMT" font-size="24.0" fill="#021993" transform="matrix(1.00, 0.00, -0.00, -1.00, 324.9, 174.0)">t</text><text xml:space="preserve" font-family="CourierNewPSMT" font-size="24.0" fill="#021993" transform="matrix(1.00, 0.00, -0.00, -1.00, 339.3, 174.0)">L</text><text xml:space="preserve" font-family="CourierNewPSMT" font-size="24.0" fill="#021993" transform="matrix(1.00, 0.00, -0.00, -1.00, 353.7, 174.0)">i</text><text xml:space="preserve" font-family="CourierNewPSMT" font-size="24.0" fill="#021993" transform="matrix(1.00, 0.00, -0.00, -1.00, 368.1, 174.0)">s</text><text xml:space="preserve" font-family="CourierNewPSMT" font-size="24.0" fill="#021993" transform="matrix(1.00, 0.00, -0.00, -1.00, 382.5, 174.0)">t</text><text xml:space="preserve" font-family="CourierNewPSMT" font-size="24.0" fill="#021993" transform="matrix(1.00, 0.00, -0.00, -1.00, 396.9, 174.0)">e</text><text xml:space="preserve" font-family="CourierNewPSMT" font-size="24.0" fill="#021993" transform="matrix(1.00, 0.00, -0.00, -1.00, 411.3, 174.0)">n</text><text xml:space="preserve" font-family="CourierNewPSMT" font-size="24.0" fill="#021993" transform="matrix(1.00, 0.00, -0.00, -1.00, 425.7, 174.0)">e</text><text xml:space="preserve" font-family="CourierNewPSMT" font-size="24.0" fill="#021993" transform="matrix(1.00, 0.00, -0.00, -1.00, 440.1, 174.0)">r</text><text xml:space="preserve" font-family="CourierNewPSMT" font-size="24.0" fill="#000000" transform="matrix(1.00, 0.00, -0.00, -1.00, 454.5, 174.0)">(</text><text xml:space="preserve" font-family="CourierNewPSMT" font-size="24.0" fill="#CC1C00" transform="matrix(1.00, 0.00, -0.00, -1.00, 468.9, 174.0)">'</text><text xml:space="preserve" font-family="CourierNewPSMT" font-size="24.0" fill="#CC1C00" transform="matrix(1.00, 0.00, -0.00, -1.00, 483.3, 174.0)">c</text><text xml:space="preserve" font-family="CourierNewPSMT" font-size="24.0" fill="#CC1C00" transform="matrix(1.00, 0.00, -0.00, -1.00, 497.7, 174.0)">l</text><text xml:space="preserve" font-family="CourierNewPSMT" font-size="24.0" fill="#CC1C00" transform="matrix(1.00, 0.00, -0.00, -1.00, 512.1, 174.0)">i</text><text xml:space="preserve" font-family="CourierNewPSMT" font-size="24.0" fill="#CC1C00" transform="matrix(1.00, 0.00, -0.00, -1.00, 526.5, 174.0)">c</text><text xml:space="preserve" font-family="CourierNewPSMT" font-size="24.0" fill="#CC1C00" transform="matrix(1.00, 0.00, -0.00, -1.00, 540.9, 174.0)">k</text><text xml:space="preserve" font-family="CourierNewPSMT" font-size="24.0" fill="#CC1C00" transform="matrix(1.00, 0.00, -0.00, -1.00, 555.3, 174.0)">'</text><text xml:space="preserve" font-family="CourierNewPSMT" font-size="24.0" fill="#000000" transform="matrix(1.00, 0.00, -0.00, -1.00, 569.7, 174.0)">,</text><text xml:space="preserve" font-family="CourierNewPSMT" font-size="24.0" fill="#000000" transform="matrix(1.00, 0.00, -0.00, -1.00, 584.1, 174.0)"> </text><text xml:space="preserve" font-family="CourierNewPSMT" font-size="24.0" fill="#000000" transform="matrix(1.00, 0.00, -0.00, -1.00, 598.5, 174.0)">b</text><text xml:space="preserve" font-family="CourierNewPSMT" font-size="24.0" fill="#000000" transform="matrix(1.00, 0.00, -0.00, -1.00, 612.9, 174.0)">u</text><text xml:space="preserve" font-family="CourierNewPSMT" font-size="24.0" fill="#000000" transform="matrix(1.00, 0.00, -0.00, -1.00, 627.3, 174.0)">b</text><text xml:space="preserve" font-family="CourierNewPSMT" font-size="24.0" fill="#000000" transform="matrix(1.00, 0.00, -0.00, -1.00, 641.7, 174.0)">b</text><text xml:space="preserve" font-family="CourierNewPSMT" font-size="24.0" fill="#000000" transform="matrix(1.00, 0.00, -0.00, -1.00, 656.1, 174.0)">l</text><text xml:space="preserve" font-family="CourierNewPSMT" font-size="24.0" fill="#000000" transform="matrix(1.00, 0.00, -0.00, -1.00, 670.5, 174.0)">e</text><text xml:space="preserve" font-family="CourierNewPSMT" font-size="24.0" fill="#000000" transform="matrix(1.00, 0.00, -0.00, -1.00, 684.9, 174.0)">)</text><text xml:space="preserve" font-family="CourierNewPSMT" font-size="24.0" fill="#000000" transform="matrix(1.00, 0.00, -0.00, -1.00, 699.3, 174.0)"> </text><text xml:space="preserve" font-family="CourierNewPSMT" font-size="24.0" fill="#000000" transform="matrix(1.00, 0.00, -0.00, -1.00, 80.0, 147.0)">}</text></g></g></g></svg>