<?xml version="1.0" encoding="UTF-8" standalone="no"?><svg xmlns="http://www.w3.org/2000/svg" xmlns:xlink="http://www.w3.org/1999/xlink" clip-rule="evenodd" stroke-miterlimit="4.00" viewBox="0 0 1024 768"><desc>SVG generated by Keynote</desc><defs></defs><g transform="matrix(1.00, 0.00, -0.00, -1.00, 0.0, 768.0)"><path d="M 0.0 768.0 L 1024.0 768.0 L 1024.0 0.0 L 0.0 0.0 Z M 0.0 768.0 " fill="#FEFFFF"></path><text xml:space="preserve" font-family="Helvetica-Light" font-size="80.0" fill="#000000" transform="matrix(1.00, 0.00, -0.00, -1.00, 87.0, 618.0)">I</text><text xml:space="preserve" font-family="Helvetica-Light" font-size="80.0" fill="#000000" transform="matrix(1.00, 0.00, -0.00, -1.00, 109.2, 618.0)">n</text><text xml:space="preserve" font-family="Helvetica-Light" font-size="80.0" fill="#000000" transform="matrix(1.00, 0.00, -0.00, -1.00, 153.7, 618.0)">s</text><text xml:space="preserve" font-family="Helvetica-Light" font-size="80.0" fill="#000000" transform="matrix(1.00, 0.00, -0.00, -1.00, 193.7, 618.0)">e</text><text xml:space="preserve" font-family="Helvetica-Light" font-size="80.0" fill="#000000" transform="matrix(1.00, 0.00, -0.00, -1.00, 238.2, 618.0)">r</text><text xml:space="preserve" font-family="Helvetica-Light" font-size="80.0" fill="#000000" transform="matrix(1.00, 0.00, -0.00, -1.00, 266.3, 618.0)">t</text><text xml:space="preserve" font-family="Helvetica-Light" font-size="80.0" fill="#000000" transform="matrix(1.00, 0.00, -0.00, -1.00, 288.5, 618.0)">i</text><text xml:space="preserve" font-family="Helvetica-Light" font-size="80.0" fill="#000000" transform="matrix(1.00, 0.00, -0.00, -1.00, 306.3, 618.0)">n</text><text xml:space="preserve" font-family="Helvetica-Light" font-size="80.0" fill="#000000" transform="matrix(1.00, 0.00, -0.00, -1.00, 350.8, 618.0)">g</text><text xml:space="preserve" font-family="Helvetica-Light" font-size="80.0" fill="#000000" transform="matrix(1.00, 0.00, -0.00, -1.00, 399.6, 618.0)"> </text><text xml:space="preserve" font-family="Helvetica-Light" font-size="80.0" fill="#000000" transform="matrix(1.00, 0.00, -0.00, -1.00, 421.9, 618.0)">N</text><text xml:space="preserve" font-family="Helvetica-Light" font-size="80.0" fill="#000000" transform="matrix(1.00, 0.00, -0.00, -1.00, 479.6, 618.0)">e</text><text xml:space="preserve" font-family="Helvetica-Light" font-size="80.0" fill="#000000" transform="matrix(1.00, 0.00, -0.00, -1.00, 524.1, 618.0)">s</text><text xml:space="preserve" font-family="Helvetica-Light" font-size="80.0" fill="#000000" transform="matrix(1.00, 0.00, -0.00, -1.00, 564.1, 618.0)">t</text><text xml:space="preserve" font-family="Helvetica-Light" font-size="80.0" fill="#000000" transform="matrix(1.00, 0.00, -0.00, -1.00, 586.4, 618.0)">e</text><text xml:space="preserve" font-family="Helvetica-Light" font-size="80.0" fill="#000000" transform="matrix(1.00, 0.00, -0.00, -1.00, 630.8, 618.0)">d</text><text xml:space="preserve" font-family="Helvetica-Light" font-size="80.0" fill="#000000" transform="matrix(1.00, 0.00, -0.00, -1.00, 679.7, 618.0)"> </text><text xml:space="preserve" font-family="Helvetica-Light" font-size="80.0" fill="#000000" transform="matrix(1.00, 0.00, -0.00, -1.00, 702.0, 618.0)">N</text><text xml:space="preserve" font-family="Helvetica-Light" font-size="80.0" fill="#000000" transform="matrix(1.00, 0.00, -0.00, -1.00, 759.7, 618.0)">o</text><text xml:space="preserve" font-family="Helvetica-Light" font-size="80.0" fill="#000000" transform="matrix(1.00, 0.00, -0.00, -1.00, 804.2, 618.0)">d</text><text xml:space="preserve" font-family="Helvetica-Light" font-size="80.0" fill="#000000" transform="matrix(1.00, 0.00, -0.00, -1.00, 853.1, 618.0)">e</text><text xml:space="preserve" font-family="Helvetica-Light" font-size="80.0" fill="#000000" transform="matrix(1.00, 0.00, -0.00, -1.00, 897.6, 618.0)">s</text><path d="M 0.0 0.0 L 769.7 0.0 L 769.7 328.0 L 0.0 328.0 Z M 0.0 0.0 " fill="none" stroke="#51A7F9" stroke-width="1.00" transform="matrix(1.00, 0.00, 0.00, -1.00, 127.1, 537.6)"></path><g><clipPath id="clip-16"><path d="M 124.6 207.0 L 899.4 207.0 L 899.4 540.1 L 124.6 540.1 Z M 124.6 207.0 "></path></clipPath><g clip-path="url(#clip-16)"><text xml:space="preserve" font-family="CourierNewPS-BoldMT" font-weight="bold" font-size="25.0" fill="#000000" transform="matrix(1.00, 0.00, -0.00, -1.00, 132.0, 483.0)">v</text><text xml:space="preserve" font-family="CourierNewPS-BoldMT" font-weight="bold" font-size="25.0" fill="#000000" transform="matrix(1.00, 0.00, -0.00, -1.00, 147.0, 483.0)">a</text><text xml:space="preserve" font-family="CourierNewPS-BoldMT" font-weight="bold" font-size="25.0" fill="#000000" transform="matrix(1.00, 0.00, -0.00, -1.00, 162.0, 483.0)">r</text><text xml:space="preserve" font-family="CourierNewPSMT" font-size="25.0" fill="#000000" transform="matrix(1.00, 0.00, -0.00, -1.00, 177.0, 483.0)"> </text><text xml:space="preserve" font-family="CourierNewPSMT" font-size="25.0" fill="#000000" transform="matrix(1.00, 0.00, -0.00, -1.00, 192.0, 483.0)">u</text><text xml:space="preserve" font-family="CourierNewPSMT" font-size="25.0" fill="#000000" transform="matrix(1.00, 0.00, -0.00, -1.00, 207.0, 483.0)">l</text><text xml:space="preserve" font-family="CourierNewPSMT" font-size="25.0" fill="#000000" transform="matrix(1.00, 0.00, -0.00, -1.00, 222.0, 483.0)"> </text><text xml:space="preserve" font-family="CourierNewPSMT" font-size="25.0" fill="#000000" transform="matrix(1.00, 0.00, -0.00, -1.00, 237.0, 483.0)">=</text><text xml:space="preserve" font-family="CourierNewPSMT" font-size="25.0" fill="#000000" transform="matrix(1.00, 0.00, -0.00, -1.00, 252.0, 483.0)"> </text><text xml:space="preserve" font-family="CourierNewPSMT" font-size="25.0" fill="#000000" transform="matrix(1.00, 0.00, -0.00, -1.00, 267.0, 483.0)">d</text><text xml:space="preserve" font-family="CourierNewPSMT" font-size="25.0" fill="#000000" transform="matrix(1.00, 0.00, -0.00, -1.00, 282.0, 483.0)">o</text><text xml:space="preserve" font-family="CourierNewPSMT" font-size="25.0" fill="#000000" transform="matrix(1.00, 0.00, -0.00, -1.00, 297.0, 483.0)">c</text><text xml:space="preserve" font-family="CourierNewPSMT" font-size="25.0" fill="#000000" transform="matrix(1.00, 0.00, -0.00, -1.00, 312.1, 483.0)">u</text><text xml:space="preserve" font-family="CourierNewPSMT" font-size="25.0" fill="#000000" transform="matrix(1.00, 0.00, -0.00, -1.00, 327.1, 483.0)">m</text><text xml:space="preserve" font-family="CourierNewPSMT" font-size="25.0" fill="#000000" transform="matrix(1.00, 0.00, -0.00, -1.00, 342.1, 483.0)">e</text><text xml:space="preserve" font-family="CourierNewPSMT" font-size="25.0" fill="#000000" transform="matrix(1.00, 0.00, -0.00, -1.00, 357.1, 483.0)">n</text><text xml:space="preserve" font-family="CourierNewPSMT" font-size="25.0" fill="#000000" transform="matrix(1.00, 0.00, -0.00, -1.00, 372.1, 483.0)">t</text><text xml:space="preserve" font-family="CourierNewPSMT" font-size="25.0" fill="#000000" transform="matrix(1.00, 0.00, -0.00, -1.00, 387.1, 483.0)">.</text><text xml:space="preserve" font-family="CourierNewPSMT" font-size="25.0" fill="#021993" transform="matrix(1.00, 0.00, -0.00, -1.00, 402.0, 483.0)">c</text><text xml:space="preserve" font-family="CourierNewPSMT" font-size="25.0" fill="#021993" transform="matrix(1.00, 0.00, -0.00, -1.00, 417.0, 483.0)">r</text><text xml:space="preserve" font-family="CourierNewPSMT" font-size="25.0" fill="#021993" transform="matrix(1.00, 0.00, -0.00, -1.00, 432.1, 483.0)">e</text><text xml:space="preserve" font-family="CourierNewPSMT" font-size="25.0" fill="#021993" transform="matrix(1.00, 0.00, -0.00, -1.00, 447.1, 483.0)">a</text><text xml:space="preserve" font-family="CourierNewPSMT" font-size="25.0" fill="#021993" transform="matrix(1.00, 0.00, -0.00, -1.00, 462.1, 483.0)">t</text><text xml:space="preserve" font-family="CourierNewPSMT" font-size="25.0" fill="#021993" transform="matrix(1.00, 0.00, -0.00, -1.00, 477.1, 483.0)">e</text><text xml:space="preserve" font-family="CourierNewPSMT" font-size="25.0" fill="#021993" transform="matrix(1.00, 0.00, -0.00, -1.00, 492.1, 483.0)">E</text><text xml:space="preserve" font-family="CourierNewPSMT" font-size="25.0" fill="#021993" transform="matrix(1.00, 0.00, -0.00, -1.00, 507.1, 483.0)">l</text><text xml:space="preserve" font-family="CourierNewPSMT" font-size="25.0" fill="#021993" transform="matrix(1.00, 0.00, -0.00, -1.00, 522.1, 483.0)">e</text><text xml:space="preserve" font-family="CourierNewPSMT" font-size="25.0" fill="#021993" transform="matrix(1.00, 0.00, -0.00, -1.00, 537.1, 483.0)">m</text><text xml:space="preserve" font-family="CourierNewPSMT" font-size="25.0" fill="#021993" transform="matrix(1.00, 0.00, -0.00, -1.00, 552.1, 483.0)">e</text><text xml:space="preserve" font-family="CourierNewPSMT" font-size="25.0" fill="#021993" transform="matrix(1.00, 0.00, -0.00, -1.00, 567.1, 483.0)">n</text><text xml:space="preserve" font-family="CourierNewPSMT" font-size="25.0" fill="#021993" transform="matrix(1.00, 0.00, -0.00, -1.00, 582.1, 483.0)">t</text><text xml:space="preserve" font-family="CourierNewPSMT" font-size="25.0" fill="#000000" transform="matrix(1.00, 0.00, -0.00, -1.00, 597.1, 483.0)">(</text><text xml:space="preserve" font-family="CourierNewPSMT" font-size="25.0" fill="#CC1C00" transform="matrix(1.00, 0.00, -0.00, -1.00, 612.1, 483.0)">'</text><text xml:space="preserve" font-family="CourierNewPSMT" font-size="25.0" fill="#CC1C00" transform="matrix(1.00, 0.00, -0.00, -1.00, 627.1, 483.0)">u</text><text xml:space="preserve" font-family="CourierNewPSMT" font-size="25.0" fill="#CC1C00" transform="matrix(1.00, 0.00, -0.00, -1.00, 642.1, 483.0)">l</text><text xml:space="preserve" font-family="CourierNewPSMT" font-size="25.0" fill="#CC1C00" transform="matrix(1.00, 0.00, -0.00, -1.00, 657.1, 483.0)">'</text><text xml:space="preserve" font-family="CourierNewPSMT" font-size="25.0" fill="#000000" transform="matrix(1.00, 0.00, -0.00, -1.00, 672.1, 483.0)">)</text><text xml:space="preserve" font-family="CourierNewPSMT" font-size="25.0" fill="#000000" transform="matrix(1.00, 0.00, -0.00, -1.00, 687.1, 483.0)"> </text><text xml:space="preserve" font-family="CourierNewPS-BoldMT" font-weight="bold" font-size="25.0" fill="#000000" transform="matrix(1.00, 0.00, -0.00, -1.00, 132.0, 425.0)">f</text><text xml:space="preserve" font-family="CourierNewPS-BoldMT" font-weight="bold" font-size="25.0" fill="#000000" transform="matrix(1.00, 0.00, -0.00, -1.00, 147.0, 425.0)">o</text><text xml:space="preserve" font-family="CourierNewPS-BoldMT" font-weight="bold" font-size="25.0" fill="#000000" transform="matrix(1.00, 0.00, -0.00, -1.00, 162.0, 425.0)">r</text><text xml:space="preserve" font-family="CourierNewPSMT" font-size="25.0" fill="#000000" transform="matrix(1.00, 0.00, -0.00, -1.00, 177.0, 425.0)"> </text><text xml:space="preserve" font-family="CourierNewPSMT" font-size="25.0" fill="#000000" transform="matrix(1.00, 0.00, -0.00, -1.00, 192.0, 425.0)">(</text><text xml:space="preserve" font-family="CourierNewPS-BoldMT" font-weight="bold" font-size="25.0" fill="#000000" transform="matrix(1.00, 0.00, -0.00, -1.00, 207.0, 425.0)">l</text><text xml:space="preserve" font-family="CourierNewPS-BoldMT" font-weight="bold" font-size="25.0" fill="#000000" transform="matrix(1.00, 0.00, -0.00, -1.00, 222.0, 425.0)">e</text><text xml:space="preserve" font-family="CourierNewPS-BoldMT" font-weight="bold" font-size="25.0" fill="#000000" transform="matrix(1.00, 0.00, -0.00, -1.00, 237.0, 425.0)">t</text><text xml:space="preserve" font-family="CourierNewPSMT" font-size="25.0" fill="#000000" transform="matrix(1.00, 0.00, -0.00, -1.00, 252.0, 425.0)"> </text><text xml:space="preserve" font-family="CourierNewPSMT" font-size="25.0" fill="#000000" transform="matrix(1.00, 0.00, -0.00, -1.00, 267.0, 425.0)">i</text><text xml:space="preserve" font-family="CourierNewPSMT" font-size="25.0" fill="#000000" transform="matrix(1.00, 0.00, -0.00, -1.00, 282.0, 425.0)"> </text><text xml:space="preserve" font-family="CourierNewPSMT" font-size="25.0" fill="#000000" transform="matrix(1.00, 0.00, -0.00, -1.00, 297.0, 425.0)">=</text><text xml:space="preserve" font-family="CourierNewPSMT" font-size="25.0" fill="#000000" transform="matrix(1.00, 0.00, -0.00, -1.00, 312.0, 425.0)"> </text><text xml:space="preserve" font-family="CourierNewPSMT" font-size="25.0" fill="#BE8F00" transform="matrix(1.00, 0.00, -0.00, -1.00, 327.0, 425.0)">0</text><text xml:space="preserve" font-family="CourierNewPSMT" font-size="25.0" fill="#000000" transform="matrix(1.00, 0.00, -0.00, -1.00, 342.0, 425.0)">;</text><text xml:space="preserve" font-family="CourierNewPSMT" font-size="25.0" fill="#000000" transform="matrix(1.00, 0.00, -0.00, -1.00, 357.0, 425.0)"> </text><text xml:space="preserve" font-family="CourierNewPSMT" font-size="25.0" fill="#000000" transform="matrix(1.00, 0.00, -0.00, -1.00, 372.0, 425.0)">i</text><text xml:space="preserve" font-family="CourierNewPSMT" font-size="25.0" fill="#000000" transform="matrix(1.00, 0.00, -0.00, -1.00, 387.0, 425.0)"> </text><text xml:space="preserve" font-family="CourierNewPSMT" font-size="25.0" fill="#000000" transform="matrix(1.00, 0.00, -0.00, -1.00, 402.1, 425.0)">&lt;</text><text xml:space="preserve" font-family="CourierNewPSMT" font-size="25.0" fill="#000000" transform="matrix(1.00, 0.00, -0.00, -1.00, 417.1, 425.0)"> </text><text xml:space="preserve" font-family="CourierNewPSMT" font-size="25.0" fill="#BE8F00" transform="matrix(1.00, 0.00, -0.00, -1.00, 432.0, 425.0)">3</text><text xml:space="preserve" font-family="CourierNewPSMT" font-size="25.0" fill="#000000" transform="matrix(1.00, 0.00, -0.00, -1.00, 447.1, 425.0)">;</text><text xml:space="preserve" font-family="CourierNewPSMT" font-size="25.0" fill="#000000" transform="matrix(1.00, 0.00, -0.00, -1.00, 462.1, 425.0)"> </text><text xml:space="preserve" font-family="CourierNewPSMT" font-size="25.0" fill="#000000" transform="matrix(1.00, 0.00, -0.00, -1.00, 477.1, 425.0)">i</text><text xml:space="preserve" font-family="CourierNewPSMT" font-size="25.0" fill="#000000" transform="matrix(1.00, 0.00, -0.00, -1.00, 492.1, 425.0)">+</text><text xml:space="preserve" font-family="CourierNewPSMT" font-size="25.0" fill="#000000" transform="matrix(1.00, 0.00, -0.00, -1.00, 507.1, 425.0)">+</text><text xml:space="preserve" font-family="CourierNewPSMT" font-size="25.0" fill="#000000" transform="matrix(1.00, 0.00, -0.00, -1.00, 522.1, 425.0)">)</text><text xml:space="preserve" font-family="CourierNewPSMT" font-size="25.0" fill="#000000" transform="matrix(1.00, 0.00, -0.00, -1.00, 537.1, 425.0)"> </text><text xml:space="preserve" font-family="CourierNewPSMT" font-size="25.0" fill="#000000" transform="matrix(1.00, 0.00, -0.00, -1.00, 552.1, 425.0)">{</text><text xml:space="preserve" font-family="CourierNewPSMT" font-size="25.0" fill="#000000" transform="matrix(1.00, 0.00, -0.00, -1.00, 567.1, 425.0)"> </text><text xml:space="preserve" font-family="CourierNewPSMT" font-size="25.0" fill="#000000" transform="matrix(1.00, 0.00, -0.00, -1.00, 132.0, 396.0)"> </text><text xml:space="preserve" font-family="CourierNewPSMT" font-size="25.0" fill="#000000" transform="matrix(1.00, 0.00, -0.00, -1.00, 147.0, 396.0)"> </text><text xml:space="preserve" font-family="CourierNewPS-BoldMT" font-weight="bold" font-size="25.0" fill="#000000" transform="matrix(1.00, 0.00, -0.00, -1.00, 162.0, 396.0)">l</text><text xml:space="preserve" font-family="CourierNewPS-BoldMT" font-weight="bold" font-size="25.0" fill="#000000" transform="matrix(1.00, 0.00, -0.00, -1.00, 177.0, 396.0)">e</text><text xml:space="preserve" font-family="CourierNewPS-BoldMT" font-weight="bold" font-size="25.0" fill="#000000" transform="matrix(1.00, 0.00, -0.00, -1.00, 192.0, 396.0)">t</text><text xml:space="preserve" font-family="CourierNewPSMT" font-size="25.0" fill="#000000" transform="matrix(1.00, 0.00, -0.00, -1.00, 207.0, 396.0)"> </text><text xml:space="preserve" font-family="CourierNewPSMT" font-size="25.0" fill="#000000" transform="matrix(1.00, 0.00, -0.00, -1.00, 222.0, 396.0)">l</text><text xml:space="preserve" font-family="CourierNewPSMT" font-size="25.0" fill="#000000" transform="matrix(1.00, 0.00, -0.00, -1.00, 237.0, 396.0)">i</text><text xml:space="preserve" font-family="CourierNewPSMT" font-size="25.0" fill="#000000" transform="matrix(1.00, 0.00, -0.00, -1.00, 252.0, 396.0)"> </text><text xml:space="preserve" font-family="CourierNewPSMT" font-size="25.0" fill="#000000" transform="matrix(1.00, 0.00, -0.00, -1.00, 267.0, 396.0)">=</text><text xml:space="preserve" font-family="CourierNewPSMT" font-size="25.0" fill="#000000" transform="matrix(1.00, 0.00, -0.00, -1.00, 282.0, 396.0)"> </text><text xml:space="preserve" font-family="CourierNewPSMT" font-size="25.0" fill="#000000" transform="matrix(1.00, 0.00, -0.00, -1.00, 297.0, 396.0)">d</text><text xml:space="preserve" font-family="CourierNewPSMT" font-size="25.0" fill="#000000" transform="matrix(1.00, 0.00, -0.00, -1.00, 312.0, 396.0)">o</text><text xml:space="preserve" font-family="CourierNewPSMT" font-size="25.0" fill="#000000" transform="matrix(1.00, 0.00, -0.00, -1.00, 327.1, 396.0)">c</text><text xml:space="preserve" font-family="CourierNewPSMT" font-size="25.0" fill="#000000" transform="matrix(1.00, 0.00, -0.00, -1.00, 342.1, 396.0)">u</text><text xml:space="preserve" font-family="CourierNewPSMT" font-size="25.0" fill="#000000" transform="matrix(1.00, 0.00, -0.00, -1.00, 357.1, 396.0)">m</text><text xml:space="preserve" font-family="CourierNewPSMT" font-size="25.0" fill="#000000" transform="matrix(1.00, 0.00, -0.00, -1.00, 372.1, 396.0)">e</text><text xml:space="preserve" font-family="CourierNewPSMT" font-size="25.0" fill="#000000" transform="matrix(1.00, 0.00, -0.00, -1.00, 387.1, 396.0)">n</text><text xml:space="preserve" font-family="CourierNewPSMT" font-size="25.0" fill="#000000" transform="matrix(1.00, 0.00, -0.00, -1.00, 402.1, 396.0)">t</text><text xml:space="preserve" font-family="CourierNewPSMT" font-size="25.0" fill="#000000" transform="matrix(1.00, 0.00, -0.00, -1.00, 417.1, 396.0)">.</text><text xml:space="preserve" font-family="CourierNewPSMT" font-size="25.0" fill="#021993" transform="matrix(1.00, 0.00, -0.00, -1.00, 432.0, 396.0)">c</text><text xml:space="preserve" font-family="CourierNewPSMT" font-size="25.0" fill="#021993" transform="matrix(1.00, 0.00, -0.00, -1.00, 447.1, 396.0)">r</text><text xml:space="preserve" font-family="CourierNewPSMT" font-size="25.0" fill="#021993" transform="matrix(1.00, 0.00, -0.00, -1.00, 462.1, 396.0)">e</text><text xml:space="preserve" font-family="CourierNewPSMT" font-size="25.0" fill="#021993" transform="matrix(1.00, 0.00, -0.00, -1.00, 477.1, 396.0)">a</text><text xml:space="preserve" font-family="CourierNewPSMT" font-size="25.0" fill="#021993" transform="matrix(1.00, 0.00, -0.00, -1.00, 492.1, 396.0)">t</text><text xml:space="preserve" font-family="CourierNewPSMT" font-size="25.0" fill="#021993" transform="matrix(1.00, 0.00, -0.00, -1.00, 507.1, 396.0)">e</text><text xml:space="preserve" font-family="CourierNewPSMT" font-size="25.0" fill="#021993" transform="matrix(1.00, 0.00, -0.00, -1.00, 522.1, 396.0)">E</text><text xml:space="preserve" font-family="CourierNewPSMT" font-size="25.0" fill="#021993" transform="matrix(1.00, 0.00, -0.00, -1.00, 537.1, 396.0)">l</text><text xml:space="preserve" font-family="CourierNewPSMT" font-size="25.0" fill="#021993" transform="matrix(1.00, 0.00, -0.00, -1.00, 552.1, 396.0)">e</text><text xml:space="preserve" font-family="CourierNewPSMT" font-size="25.0" fill="#021993" transform="matrix(1.00, 0.00, -0.00, -1.00, 567.1, 396.0)">m</text><text xml:space="preserve" font-family="CourierNewPSMT" font-size="25.0" fill="#021993" transform="matrix(1.00, 0.00, -0.00, -1.00, 582.1, 396.0)">e</text><text xml:space="preserve" font-family="CourierNewPSMT" font-size="25.0" fill="#021993" transform="matrix(1.00, 0.00, -0.00, -1.00, 597.1, 396.0)">n</text><text xml:space="preserve" font-family="CourierNewPSMT" font-size="25.0" fill="#021993" transform="matrix(1.00, 0.00, -0.00, -1.00, 612.1, 396.0)">t</text><text xml:space="preserve" font-family="CourierNewPSMT" font-size="25.0" fill="#000000" transform="matrix(1.00, 0.00, -0.00, -1.00, 627.1, 396.0)">(</text><text xml:space="preserve" font-family="CourierNewPSMT" font-size="25.0" fill="#CC1C00" transform="matrix(1.00, 0.00, -0.00, -1.00, 642.1, 396.0)">'</text><text xml:space="preserve" font-family="CourierNewPSMT" font-size="25.0" fill="#CC1C00" transform="matrix(1.00, 0.00, -0.00, -1.00, 657.1, 396.0)">l</text><text xml:space="preserve" font-family="CourierNewPSMT" font-size="25.0" fill="#CC1C00" transform="matrix(1.00, 0.00, -0.00, -1.00, 672.1, 396.0)">i</text><text xml:space="preserve" font-family="CourierNewPSMT" font-size="25.0" fill="#CC1C00" transform="matrix(1.00, 0.00, -0.00, -1.00, 687.1, 396.0)">'</text><text xml:space="preserve" font-family="CourierNewPSMT" font-size="25.0" fill="#000000" transform="matrix(1.00, 0.00, -0.00, -1.00, 702.1, 396.0)">)</text><text xml:space="preserve" font-family="CourierNewPSMT" font-size="25.0" fill="#000000" transform="matrix(1.00, 0.00, -0.00, -1.00, 717.1, 396.0)"> </text><text xml:space="preserve" font-family="CourierNewPSMT" font-size="25.0" fill="#000000" transform="matrix(1.00, 0.00, -0.00, -1.00, 132.0, 367.0)"> </text><text xml:space="preserve" font-family="CourierNewPSMT" font-size="25.0" fill="#000000" transform="matrix(1.00, 0.00, -0.00, -1.00, 147.0, 367.0)"> </text><text xml:space="preserve" font-family="CourierNewPSMT" font-size="25.0" fill="#000000" transform="matrix(1.00, 0.00, -0.00, -1.00, 162.0, 367.0)">l</text><text xml:space="preserve" font-family="CourierNewPSMT" font-size="25.0" fill="#000000" transform="matrix(1.00, 0.00, -0.00, -1.00, 177.0, 367.0)">i</text><text xml:space="preserve" font-family="CourierNewPSMT" font-size="25.0" fill="#000000" transform="matrix(1.00, 0.00, -0.00, -1.00, 192.0, 367.0)">.</text><text xml:space="preserve" font-family="CourierNewPSMT" font-size="25.0" fill="#000000" transform="matrix(1.00, 0.00, -0.00, -1.00, 207.0, 367.0)">i</text><text xml:space="preserve" font-family="CourierNewPSMT" font-size="25.0" fill="#000000" transform="matrix(1.00, 0.00, -0.00, -1.00, 222.0, 367.0)">n</text><text xml:space="preserve" font-family="CourierNewPSMT" font-size="25.0" fill="#000000" transform="matrix(1.00, 0.00, -0.00, -1.00, 237.0, 367.0)">n</text><text xml:space="preserve" font-family="CourierNewPSMT" font-size="25.0" fill="#000000" transform="matrix(1.00, 0.00, -0.00, -1.00, 252.0, 367.0)">e</text><text xml:space="preserve" font-family="CourierNewPSMT" font-size="25.0" fill="#000000" transform="matrix(1.00, 0.00, -0.00, -1.00, 267.0, 367.0)">r</text><text xml:space="preserve" font-family="CourierNewPSMT" font-size="25.0" fill="#000000" transform="matrix(1.00, 0.00, -0.00, -1.00, 282.0, 367.0)">H</text><text xml:space="preserve" font-family="CourierNewPSMT" font-size="25.0" fill="#000000" transform="matrix(1.00, 0.00, -0.00, -1.00, 297.1, 367.0)">T</text><text xml:space="preserve" font-family="CourierNewPSMT" font-size="25.0" fill="#000000" transform="matrix(1.00, 0.00, -0.00, -1.00, 312.1, 367.0)">M</text><text xml:space="preserve" font-family="CourierNewPSMT" font-size="25.0" fill="#000000" transform="matrix(1.00, 0.00, -0.00, -1.00, 327.1, 367.0)">L</text><text xml:space="preserve" font-family="CourierNewPSMT" font-size="25.0" fill="#000000" transform="matrix(1.00, 0.00, -0.00, -1.00, 342.1, 367.0)"> </text><text xml:space="preserve" font-family="CourierNewPSMT" font-size="25.0" fill="#000000" transform="matrix(1.00, 0.00, -0.00, -1.00, 357.1, 367.0)">=</text><text xml:space="preserve" font-family="CourierNewPSMT" font-size="25.0" fill="#000000" transform="matrix(1.00, 0.00, -0.00, -1.00, 372.1, 367.0)"> </text><text xml:space="preserve" font-family="CourierNewPSMT" font-size="25.0" fill="#000000" transform="matrix(1.00, 0.00, -0.00, -1.00, 387.1, 367.0)">(</text><text xml:space="preserve" font-family="CourierNewPSMT" font-size="25.0" fill="#000000" transform="matrix(1.00, 0.00, -0.00, -1.00, 402.1, 367.0)">i</text><text xml:space="preserve" font-family="CourierNewPSMT" font-size="25.0" fill="#000000" transform="matrix(1.00, 0.00, -0.00, -1.00, 417.1, 367.0)"> </text><text xml:space="preserve" font-family="CourierNewPSMT" font-size="25.0" fill="#000000" transform="matrix(1.00, 0.00, -0.00, -1.00, 432.1, 367.0)">+</text><text xml:space="preserve" font-family="CourierNewPSMT" font-size="25.0" fill="#000000" transform="matrix(1.00, 0.00, -0.00, -1.00, 447.1, 367.0)"> </text><text xml:space="preserve" font-family="CourierNewPSMT" font-size="25.0" fill="#BE8F00" transform="matrix(1.00, 0.00, -0.00, -1.00, 462.1, 367.0)">1</text><text xml:space="preserve" font-family="CourierNewPSMT" font-size="25.0" fill="#000000" transform="matrix(1.00, 0.00, -0.00, -1.00, 477.1, 367.0)">)</text><text xml:space="preserve" font-family="CourierNewPSMT" font-size="25.0" fill="#000000" transform="matrix(1.00, 0.00, -0.00, -1.00, 492.1, 367.0)">.</text><text xml:space="preserve" font-family="CourierNewPSMT" font-size="25.0" fill="#021993" transform="matrix(1.00, 0.00, -0.00, -1.00, 507.1, 367.0)">t</text><text xml:space="preserve" font-family="CourierNewPSMT" font-size="25.0" fill="#021993" transform="matrix(1.00, 0.00, -0.00, -1.00, 522.1, 367.0)">o</text><text xml:space="preserve" font-family="CourierNewPSMT" font-size="25.0" fill="#021993" transform="matrix(1.00, 0.00, -0.00, -1.00, 537.1, 367.0)">S</text><text xml:space="preserve" font-family="CourierNewPSMT" font-size="25.0" fill="#021993" transform="matrix(1.00, 0.00, -0.00, -1.00, 552.1, 367.0)">t</text><text xml:space="preserve" font-family="CourierNewPSMT" font-size="25.0" fill="#021993" transform="matrix(1.00, 0.00, -0.00, -1.00, 567.1, 367.0)">r</text><text xml:space="preserve" font-family="CourierNewPSMT" font-size="25.0" fill="#021993" transform="matrix(1.00, 0.00, -0.00, -1.00, 582.1, 367.0)">i</text><text xml:space="preserve" font-family="CourierNewPSMT" font-size="25.0" fill="#021993" transform="matrix(1.00, 0.00, -0.00, -1.00, 597.1, 367.0)">n</text><text xml:space="preserve" font-family="CourierNewPSMT" font-size="25.0" fill="#021993" transform="matrix(1.00, 0.00, -0.00, -1.00, 612.1, 367.0)">g</text><text xml:space="preserve" font-family="CourierNewPSMT" font-size="25.0" fill="#000000" transform="matrix(1.00, 0.00, -0.00, -1.00, 627.1, 367.0)">(</text><text xml:space="preserve" font-family="CourierNewPSMT" font-size="25.0" fill="#000000" transform="matrix(1.00, 0.00, -0.00, -1.00, 642.1, 367.0)">)</text><text xml:space="preserve" font-family="CourierNewPSMT" font-size="25.0" fill="#000000" transform="matrix(1.00, 0.00, -0.00, -1.00, 657.1, 367.0)"> </text><text xml:space="preserve" font-family="CourierNewPSMT" font-size="25.0" fill="#000000" transform="matrix(1.00, 0.00, -0.00, -1.00, 132.0, 338.0)"> </text><text xml:space="preserve" font-family="CourierNewPSMT" font-size="25.0" fill="#000000" transform="matrix(1.00, 0.00, -0.00, -1.00, 147.0, 338.0)"> </text><text xml:space="preserve" font-family="CourierNewPSMT" font-size="25.0" fill="#000000" transform="matrix(1.00, 0.00, -0.00, -1.00, 162.0, 338.0)">u</text><text xml:space="preserve" font-family="CourierNewPSMT" font-size="25.0" fill="#000000" transform="matrix(1.00, 0.00, -0.00, -1.00, 177.0, 338.0)">l</text><text xml:space="preserve" font-family="CourierNewPSMT" font-size="25.0" fill="#000000" transform="matrix(1.00, 0.00, -0.00, -1.00, 192.0, 338.0)">.</text><text xml:space="preserve" font-family="CourierNewPSMT" font-size="25.0" fill="#021993" transform="matrix(1.00, 0.00, -0.00, -1.00, 207.0, 338.0)">a</text><text xml:space="preserve" font-family="CourierNewPSMT" font-size="25.0" fill="#021993" transform="matrix(1.00, 0.00, -0.00, -1.00, 222.0, 338.0)">p</text><text xml:space="preserve" font-family="CourierNewPSMT" font-size="25.0" fill="#021993" transform="matrix(1.00, 0.00, -0.00, -1.00, 237.0, 338.0)">p</text><text xml:space="preserve" font-family="CourierNewPSMT" font-size="25.0" fill="#021993" transform="matrix(1.00, 0.00, -0.00, -1.00, 252.0, 338.0)">e</text><text xml:space="preserve" font-family="CourierNewPSMT" font-size="25.0" fill="#021993" transform="matrix(1.00, 0.00, -0.00, -1.00, 267.0, 338.0)">n</text><text xml:space="preserve" font-family="CourierNewPSMT" font-size="25.0" fill="#021993" transform="matrix(1.00, 0.00, -0.00, -1.00, 282.0, 338.0)">d</text><text xml:space="preserve" font-family="CourierNewPSMT" font-size="25.0" fill="#021993" transform="matrix(1.00, 0.00, -0.00, -1.00, 297.0, 338.0)">C</text><text xml:space="preserve" font-family="CourierNewPSMT" font-size="25.0" fill="#021993" transform="matrix(1.00, 0.00, -0.00, -1.00, 312.0, 338.0)">h</text><text xml:space="preserve" font-family="CourierNewPSMT" font-size="25.0" fill="#021993" transform="matrix(1.00, 0.00, -0.00, -1.00, 327.1, 338.0)">i</text><text xml:space="preserve" font-family="CourierNewPSMT" font-size="25.0" fill="#021993" transform="matrix(1.00, 0.00, -0.00, -1.00, 342.1, 338.0)">l</text><text xml:space="preserve" font-family="CourierNewPSMT" font-size="25.0" fill="#021993" transform="matrix(1.00, 0.00, -0.00, -1.00, 357.1, 338.0)">d</text><text xml:space="preserve" font-family="CourierNewPSMT" font-size="25.0" fill="#000000" transform="matrix(1.00, 0.00, -0.00, -1.00, 372.0, 338.0)">(</text><text xml:space="preserve" font-family="CourierNewPSMT" font-size="25.0" fill="#000000" transform="matrix(1.00, 0.00, -0.00, -1.00, 387.0, 338.0)">l</text><text xml:space="preserve" font-family="CourierNewPSMT" font-size="25.0" fill="#000000" transform="matrix(1.00, 0.00, -0.00, -1.00, 402.0, 338.0)">i</text><text xml:space="preserve" font-family="CourierNewPSMT" font-size="25.0" fill="#000000" transform="matrix(1.00, 0.00, -0.00, -1.00, 417.1, 338.0)">)</text><text xml:space="preserve" font-family="CourierNewPSMT" font-size="25.0" fill="#000000" transform="matrix(1.00, 0.00, -0.00, -1.00, 432.1, 338.0)"> </text><text xml:space="preserve" font-family="CourierNewPSMT" font-size="25.0" fill="#000000" transform="matrix(1.00, 0.00, -0.00, -1.00, 132.0, 309.0)">}</text><text xml:space="preserve" font-family="CourierNewPSMT" font-size="25.0" fill="#000000" transform="matrix(1.00, 0.00, -0.00, -1.00, 147.0, 309.0)"> </text><text xml:space="preserve" font-family="CourierNewPSMT" font-size="25.0" fill="#000000" transform="matrix(1.00, 0.00, -0.00, -1.00, 132.0, 251.0)">e</text><text xml:space="preserve" font-family="CourierNewPSMT" font-size="25.0" fill="#000000" transform="matrix(1.00, 0.00, -0.00, -1.00, 147.0, 251.0)">l</text><text xml:space="preserve" font-family="CourierNewPSMT" font-size="25.0" fill="#000000" transform="matrix(1.00, 0.00, -0.00, -1.00, 162.0, 251.0)">e</text><text xml:space="preserve" font-family="CourierNewPSMT" font-size="25.0" fill="#000000" transform="matrix(1.00, 0.00, -0.00, -1.00, 177.0, 251.0)">m</text><text xml:space="preserve" font-family="CourierNewPSMT" font-size="25.0" fill="#000000" transform="matrix(1.00, 0.00, -0.00, -1.00, 192.0, 251.0)">e</text><text xml:space="preserve" font-family="CourierNewPSMT" font-size="25.0" fill="#000000" transform="matrix(1.00, 0.00, -0.00, -1.00, 207.0, 251.0)">n</text><text xml:space="preserve" font-family="CourierNewPSMT" font-size="25.0" fill="#000000" transform="matrix(1.00, 0.00, -0.00, -1.00, 222.0, 251.0)">t</text><text xml:space="preserve" font-family="CourierNewPSMT" font-size="25.0" fill="#000000" transform="matrix(1.00, 0.00, -0.00, -1.00, 237.0, 251.0)">.</text><text xml:space="preserve" font-family="CourierNewPSMT" font-size="25.0" fill="#021993" transform="matrix(1.00, 0.00, -0.00, -1.00, 252.0, 251.0)">a</text><text xml:space="preserve" font-family="CourierNewPSMT" font-size="25.0" fill="#021993" transform="matrix(1.00, 0.00, -0.00, -1.00, 267.0, 251.0)">p</text><text xml:space="preserve" font-family="CourierNewPSMT" font-size="25.0" fill="#021993" transform="matrix(1.00, 0.00, -0.00, -1.00, 282.0, 251.0)">p</text><text xml:space="preserve" font-family="CourierNewPSMT" font-size="25.0" fill="#021993" transform="matrix(1.00, 0.00, -0.00, -1.00, 297.0, 251.0)">e</text><text xml:space="preserve" font-family="CourierNewPSMT" font-size="25.0" fill="#021993" transform="matrix(1.00, 0.00, -0.00, -1.00, 312.0, 251.0)">n</text><text xml:space="preserve" font-family="CourierNewPSMT" font-size="25.0" fill="#021993" transform="matrix(1.00, 0.00, -0.00, -1.00, 327.0, 251.0)">d</text><text xml:space="preserve" font-family="CourierNewPSMT" font-size="25.0" fill="#021993" transform="matrix(1.00, 0.00, -0.00, -1.00, 342.0, 251.0)">C</text><text xml:space="preserve" font-family="CourierNewPSMT" font-size="25.0" fill="#021993" transform="matrix(1.00, 0.00, -0.00, -1.00, 357.1, 251.0)">h</text><text xml:space="preserve" font-family="CourierNewPSMT" font-size="25.0" fill="#021993" transform="matrix(1.00, 0.00, -0.00, -1.00, 372.1, 251.0)">i</text><text xml:space="preserve" font-family="CourierNewPSMT" font-size="25.0" fill="#021993" transform="matrix(1.00, 0.00, -0.00, -1.00, 387.1, 251.0)">l</text><text xml:space="preserve" font-family="CourierNewPSMT" font-size="25.0" fill="#021993" transform="matrix(1.00, 0.00, -0.00, -1.00, 402.1, 251.0)">d</text><text xml:space="preserve" font-family="CourierNewPSMT" font-size="25.0" fill="#000000" transform="matrix(1.00, 0.00, -0.00, -1.00, 417.0, 251.0)">(</text><text xml:space="preserve" font-family="CourierNewPSMT" font-size="25.0" fill="#000000" transform="matrix(1.00, 0.00, -0.00, -1.00, 432.1, 251.0)">u</text><text xml:space="preserve" font-family="CourierNewPSMT" font-size="25.0" fill="#000000" transform="matrix(1.00, 0.00, -0.00, -1.00, 447.1, 251.0)">l</text><text xml:space="preserve" font-family="CourierNewPSMT" font-size="25.0" fill="#000000" transform="matrix(1.00, 0.00, -0.00, -1.00, 462.1, 251.0)">)</text><text xml:space="preserve" font-family="CourierNewPSMT" font-size="25.0" fill="#000000" transform="matrix(1.00, 0.00, -0.00, -1.00, 477.1, 251.0)"> </text></g></g></g></svg>