<?xml version="1.0" encoding="UTF-8" standalone="no"?><svg xmlns="http://www.w3.org/2000/svg" xmlns:xlink="http://www.w3.org/1999/xlink" clip-rule="evenodd" stroke-miterlimit="4.00" viewBox="0 0 1024 768"><desc>SVG generated by Keynote</desc><defs></defs><g transform="matrix(1.00, 0.00, -0.00, -1.00, 0.0, 768.0)"><path d="M 0.0 768.0 L 1024.0 768.0 L 1024.0 0.0 L 0.0 0.0 Z M 0.0 768.0 " fill="#FEFFFF"></path><path d="M 0.0 0.0 L 961.1 0.0 L 961.1 369.0 L 0.0 369.0 Z M 0.0 0.0 " fill="none" stroke="#51A7F9" stroke-width="1.00" transform="matrix(1.00, 0.00, 0.00, -1.00, 31.5, 568.5)"></path><g><clipPath id="clip-31"><path d="M 28.6 196.6 L 1002.2 196.6 L 1002.2 571.4 L 28.6 571.4 Z M 28.6 196.6 "></path></clipPath><g clip-path="url(#clip-31)"><text xml:space="preserve" font-family="CourierNewPSMT" font-size="26.0" fill="#000000" transform="matrix(1.00, 0.00, -0.00, -1.00, 36.0, 512.0)">d</text><text xml:space="preserve" font-family="CourierNewPSMT" font-size="26.0" fill="#000000" transform="matrix(1.00, 0.00, -0.00, -1.00, 51.6, 512.0)">i</text><text xml:space="preserve" font-family="CourierNewPSMT" font-size="26.0" fill="#000000" transform="matrix(1.00, 0.00, -0.00, -1.00, 67.2, 512.0)">v</text><text xml:space="preserve" font-family="CourierNewPSMT" font-size="26.0" fill="#000000" transform="matrix(1.00, 0.00, -0.00, -1.00, 82.8, 512.0)">s</text><text xml:space="preserve" font-family="CourierNewPSMT" font-size="26.0" fill="#000000" transform="matrix(1.00, 0.00, -0.00, -1.00, 98.4, 512.0)"> </text><text xml:space="preserve" font-family="CourierNewPSMT" font-size="26.0" fill="#000000" transform="matrix(1.00, 0.00, -0.00, -1.00, 114.0, 512.0)">=</text><text xml:space="preserve" font-family="CourierNewPSMT" font-size="26.0" fill="#000000" transform="matrix(1.00, 0.00, -0.00, -1.00, 129.6, 512.0)"> </text><text xml:space="preserve" font-family="CourierNewPSMT" font-size="26.0" fill="#000000" transform="matrix(1.00, 0.00, -0.00, -1.00, 145.2, 512.0)">d</text><text xml:space="preserve" font-family="CourierNewPSMT" font-size="26.0" fill="#000000" transform="matrix(1.00, 0.00, -0.00, -1.00, 160.8, 512.0)">o</text><text xml:space="preserve" font-family="CourierNewPSMT" font-size="26.0" fill="#000000" transform="matrix(1.00, 0.00, -0.00, -1.00, 176.4, 512.0)">c</text><text xml:space="preserve" font-family="CourierNewPSMT" font-size="26.0" fill="#000000" transform="matrix(1.00, 0.00, -0.00, -1.00, 192.1, 512.0)">u</text><text xml:space="preserve" font-family="CourierNewPSMT" font-size="26.0" fill="#000000" transform="matrix(1.00, 0.00, -0.00, -1.00, 207.7, 512.0)">m</text><text xml:space="preserve" font-family="CourierNewPSMT" font-size="26.0" fill="#000000" transform="matrix(1.00, 0.00, -0.00, -1.00, 223.3, 512.0)">e</text><text xml:space="preserve" font-family="CourierNewPSMT" font-size="26.0" fill="#000000" transform="matrix(1.00, 0.00, -0.00, -1.00, 238.9, 512.0)">n</text><text xml:space="preserve" font-family="CourierNewPSMT" font-size="26.0" fill="#000000" transform="matrix(1.00, 0.00, -0.00, -1.00, 254.5, 512.0)">t</text><text xml:space="preserve" font-family="CourierNewPSMT" font-size="26.0" fill="#000000" transform="matrix(1.00, 0.00, -0.00, -1.00, 270.1, 512.0)">.</text><text xml:space="preserve" font-family="CourierNewPSMT" font-size="26.0" fill="#021993" transform="matrix(1.00, 0.00, -0.00, -1.00, 285.6, 512.0)">q</text><text xml:space="preserve" font-family="CourierNewPSMT" font-size="26.0" fill="#021993" transform="matrix(1.00, 0.00, -0.00, -1.00, 301.2, 512.0)">u</text><text xml:space="preserve" font-family="CourierNewPSMT" font-size="26.0" fill="#021993" transform="matrix(1.00, 0.00, -0.00, -1.00, 316.9, 512.0)">e</text><text xml:space="preserve" font-family="CourierNewPSMT" font-size="26.0" fill="#021993" transform="matrix(1.00, 0.00, -0.00, -1.00, 332.5, 512.0)">r</text><text xml:space="preserve" font-family="CourierNewPSMT" font-size="26.0" fill="#021993" transform="matrix(1.00, 0.00, -0.00, -1.00, 348.1, 512.0)">y</text><text xml:space="preserve" font-family="CourierNewPSMT" font-size="26.0" fill="#021993" transform="matrix(1.00, 0.00, -0.00, -1.00, 363.7, 512.0)">S</text><text xml:space="preserve" font-family="CourierNewPSMT" font-size="26.0" fill="#021993" transform="matrix(1.00, 0.00, -0.00, -1.00, 379.3, 512.0)">e</text><text xml:space="preserve" font-family="CourierNewPSMT" font-size="26.0" fill="#021993" transform="matrix(1.00, 0.00, -0.00, -1.00, 394.9, 512.0)">l</text><text xml:space="preserve" font-family="CourierNewPSMT" font-size="26.0" fill="#021993" transform="matrix(1.00, 0.00, -0.00, -1.00, 410.5, 512.0)">e</text><text xml:space="preserve" font-family="CourierNewPSMT" font-size="26.0" fill="#021993" transform="matrix(1.00, 0.00, -0.00, -1.00, 426.1, 512.0)">c</text><text xml:space="preserve" font-family="CourierNewPSMT" font-size="26.0" fill="#021993" transform="matrix(1.00, 0.00, -0.00, -1.00, 441.7, 512.0)">t</text><text xml:space="preserve" font-family="CourierNewPSMT" font-size="26.0" fill="#021993" transform="matrix(1.00, 0.00, -0.00, -1.00, 457.3, 512.0)">o</text><text xml:space="preserve" font-family="CourierNewPSMT" font-size="26.0" fill="#021993" transform="matrix(1.00, 0.00, -0.00, -1.00, 472.9, 512.0)">r</text><text xml:space="preserve" font-family="CourierNewPSMT" font-size="26.0" fill="#021993" transform="matrix(1.00, 0.00, -0.00, -1.00, 488.5, 512.0)">A</text><text xml:space="preserve" font-family="CourierNewPSMT" font-size="26.0" fill="#021993" transform="matrix(1.00, 0.00, -0.00, -1.00, 504.1, 512.0)">l</text><text xml:space="preserve" font-family="CourierNewPSMT" font-size="26.0" fill="#021993" transform="matrix(1.00, 0.00, -0.00, -1.00, 519.7, 512.0)">l</text><text xml:space="preserve" font-family="CourierNewPSMT" font-size="26.0" fill="#000000" transform="matrix(1.00, 0.00, -0.00, -1.00, 535.3, 512.0)">(</text><text xml:space="preserve" font-family="CourierNewPSMT" font-size="26.0" fill="#CC1C00" transform="matrix(1.00, 0.00, -0.00, -1.00, 550.9, 512.0)">'</text><text xml:space="preserve" font-family="CourierNewPSMT" font-size="26.0" fill="#CC1C00" transform="matrix(1.00, 0.00, -0.00, -1.00, 566.5, 512.0)">d</text><text xml:space="preserve" font-family="CourierNewPSMT" font-size="26.0" fill="#CC1C00" transform="matrix(1.00, 0.00, -0.00, -1.00, 582.1, 512.0)">i</text><text xml:space="preserve" font-family="CourierNewPSMT" font-size="26.0" fill="#CC1C00" transform="matrix(1.00, 0.00, -0.00, -1.00, 597.7, 512.0)">v</text><text xml:space="preserve" font-family="CourierNewPSMT" font-size="26.0" fill="#CC1C00" transform="matrix(1.00, 0.00, -0.00, -1.00, 613.3, 512.0)">'</text><text xml:space="preserve" font-family="CourierNewPSMT" font-size="26.0" fill="#000000" transform="matrix(1.00, 0.00, -0.00, -1.00, 628.9, 512.0)">)</text><text xml:space="preserve" font-family="CourierNewPSMT" font-size="26.0" fill="#000000" transform="matrix(1.00, 0.00, -0.00, -1.00, 644.5, 512.0)"> </text><text xml:space="preserve" font-family="CourierNewPS-BoldMT" font-weight="bold" font-size="26.0" fill="#000000" transform="matrix(1.00, 0.00, -0.00, -1.00, 36.0, 452.0)">f</text><text xml:space="preserve" font-family="CourierNewPS-BoldMT" font-weight="bold" font-size="26.0" fill="#000000" transform="matrix(1.00, 0.00, -0.00, -1.00, 51.6, 452.0)">u</text><text xml:space="preserve" font-family="CourierNewPS-BoldMT" font-weight="bold" font-size="26.0" fill="#000000" transform="matrix(1.00, 0.00, -0.00, -1.00, 67.2, 452.0)">n</text><text xml:space="preserve" font-family="CourierNewPS-BoldMT" font-weight="bold" font-size="26.0" fill="#000000" transform="matrix(1.00, 0.00, -0.00, -1.00, 82.8, 452.0)">c</text><text xml:space="preserve" font-family="CourierNewPS-BoldMT" font-weight="bold" font-size="26.0" fill="#000000" transform="matrix(1.00, 0.00, -0.00, -1.00, 98.4, 452.0)">t</text><text xml:space="preserve" font-family="CourierNewPS-BoldMT" font-weight="bold" font-size="26.0" fill="#000000" transform="matrix(1.00, 0.00, -0.00, -1.00, 114.0, 452.0)">i</text><text xml:space="preserve" font-family="CourierNewPS-BoldMT" font-weight="bold" font-size="26.0" fill="#000000" transform="matrix(1.00, 0.00, -0.00, -1.00, 129.6, 452.0)">o</text><text xml:space="preserve" font-family="CourierNewPS-BoldMT" font-weight="bold" font-size="26.0" fill="#000000" transform="matrix(1.00, 0.00, -0.00, -1.00, 145.2, 452.0)">n</text><text xml:space="preserve" font-family="CourierNewPSMT" font-size="26.0" fill="#000000" transform="matrix(1.00, 0.00, -0.00, -1.00, 160.8, 452.0)"> </text><text xml:space="preserve" font-family="CourierNewPSMT" font-size="26.0" fill="#021993" transform="matrix(1.00, 0.00, -0.00, -1.00, 176.4, 452.0)">c</text><text xml:space="preserve" font-family="CourierNewPSMT" font-size="26.0" fill="#021993" transform="matrix(1.00, 0.00, -0.00, -1.00, 192.0, 452.0)">a</text><text xml:space="preserve" font-family="CourierNewPSMT" font-size="26.0" fill="#021993" transform="matrix(1.00, 0.00, -0.00, -1.00, 207.6, 452.0)">p</text><text xml:space="preserve" font-family="CourierNewPSMT" font-size="26.0" fill="#021993" transform="matrix(1.00, 0.00, -0.00, -1.00, 223.2, 452.0)">t</text><text xml:space="preserve" font-family="CourierNewPSMT" font-size="26.0" fill="#021993" transform="matrix(1.00, 0.00, -0.00, -1.00, 238.8, 452.0)">u</text><text xml:space="preserve" font-family="CourierNewPSMT" font-size="26.0" fill="#021993" transform="matrix(1.00, 0.00, -0.00, -1.00, 254.4, 452.0)">r</text><text xml:space="preserve" font-family="CourierNewPSMT" font-size="26.0" fill="#021993" transform="matrix(1.00, 0.00, -0.00, -1.00, 270.1, 452.0)">e</text><text xml:space="preserve" font-family="CourierNewPSMT" font-size="26.0" fill="#000000" transform="matrix(1.00, 0.00, -0.00, -1.00, 285.6, 452.0)">(</text><text xml:space="preserve" font-family="CourierNewPSMT" font-size="26.0" fill="#000000" transform="matrix(1.00, 0.00, -0.00, -1.00, 301.2, 452.0)">e</text><text xml:space="preserve" font-family="CourierNewPSMT" font-size="26.0" fill="#000000" transform="matrix(1.00, 0.00, -0.00, -1.00, 316.9, 452.0)">)</text><text xml:space="preserve" font-family="CourierNewPSMT" font-size="26.0" fill="#000000" transform="matrix(1.00, 0.00, -0.00, -1.00, 332.5, 452.0)"> </text><text xml:space="preserve" font-family="CourierNewPSMT" font-size="26.0" fill="#000000" transform="matrix(1.00, 0.00, -0.00, -1.00, 348.1, 452.0)">{</text><text xml:space="preserve" font-family="CourierNewPSMT" font-size="26.0" fill="#000000" transform="matrix(1.00, 0.00, -0.00, -1.00, 363.7, 452.0)"> </text><text xml:space="preserve" font-family="CourierNewPSMT" font-size="26.0" fill="#000000" transform="matrix(1.00, 0.00, -0.00, -1.00, 36.0, 422.0)"> </text><text xml:space="preserve" font-family="CourierNewPSMT" font-size="26.0" fill="#000000" transform="matrix(1.00, 0.00, -0.00, -1.00, 51.6, 422.0)"> </text><text xml:space="preserve" font-family="CourierNewPSMT" font-size="26.0" fill="#000000" transform="matrix(1.00, 0.00, -0.00, -1.00, 67.2, 422.0)">c</text><text xml:space="preserve" font-family="CourierNewPSMT" font-size="26.0" fill="#000000" transform="matrix(1.00, 0.00, -0.00, -1.00, 82.8, 422.0)">o</text><text xml:space="preserve" font-family="CourierNewPSMT" font-size="26.0" fill="#000000" transform="matrix(1.00, 0.00, -0.00, -1.00, 98.4, 422.0)">n</text><text xml:space="preserve" font-family="CourierNewPSMT" font-size="26.0" fill="#000000" transform="matrix(1.00, 0.00, -0.00, -1.00, 114.0, 422.0)">s</text><text xml:space="preserve" font-family="CourierNewPSMT" font-size="26.0" fill="#000000" transform="matrix(1.00, 0.00, -0.00, -1.00, 129.6, 422.0)">o</text><text xml:space="preserve" font-family="CourierNewPSMT" font-size="26.0" fill="#000000" transform="matrix(1.00, 0.00, -0.00, -1.00, 145.2, 422.0)">l</text><text xml:space="preserve" font-family="CourierNewPSMT" font-size="26.0" fill="#000000" transform="matrix(1.00, 0.00, -0.00, -1.00, 160.8, 422.0)">e</text><text xml:space="preserve" font-family="CourierNewPSMT" font-size="26.0" fill="#000000" transform="matrix(1.00, 0.00, -0.00, -1.00, 176.4, 422.0)">.</text><text xml:space="preserve" font-family="CourierNewPSMT" font-size="26.0" fill="#021993" transform="matrix(1.00, 0.00, -0.00, -1.00, 192.0, 422.0)">l</text><text xml:space="preserve" font-family="CourierNewPSMT" font-size="26.0" fill="#021993" transform="matrix(1.00, 0.00, -0.00, -1.00, 207.6, 422.0)">o</text><text xml:space="preserve" font-family="CourierNewPSMT" font-size="26.0" fill="#021993" transform="matrix(1.00, 0.00, -0.00, -1.00, 223.2, 422.0)">g</text><text xml:space="preserve" font-family="CourierNewPSMT" font-size="26.0" fill="#000000" transform="matrix(1.00, 0.00, -0.00, -1.00, 238.8, 422.0)">(</text><text xml:space="preserve" font-family="CourierNewPS-BoldMT" font-weight="bold" font-size="26.0" fill="#000000" transform="matrix(1.00, 0.00, -0.00, -1.00, 254.4, 422.0)">t</text><text xml:space="preserve" font-family="CourierNewPS-BoldMT" font-weight="bold" font-size="26.0" fill="#000000" transform="matrix(1.00, 0.00, -0.00, -1.00, 270.0, 422.0)">h</text><text xml:space="preserve" font-family="CourierNewPS-BoldMT" font-weight="bold" font-size="26.0" fill="#000000" transform="matrix(1.00, 0.00, -0.00, -1.00, 285.6, 422.0)">i</text><text xml:space="preserve" font-family="CourierNewPS-BoldMT" font-weight="bold" font-size="26.0" fill="#000000" transform="matrix(1.00, 0.00, -0.00, -1.00, 301.3, 422.0)">s</text><text xml:space="preserve" font-family="CourierNewPSMT" font-size="26.0" fill="#000000" transform="matrix(1.00, 0.00, -0.00, -1.00, 316.8, 422.0)">.</text><text xml:space="preserve" font-family="CourierNewPSMT" font-size="26.0" fill="#000000" transform="matrix(1.00, 0.00, -0.00, -1.00, 332.5, 422.0)">f</text><text xml:space="preserve" font-family="CourierNewPSMT" font-size="26.0" fill="#000000" transform="matrix(1.00, 0.00, -0.00, -1.00, 348.1, 422.0)">i</text><text xml:space="preserve" font-family="CourierNewPSMT" font-size="26.0" fill="#000000" transform="matrix(1.00, 0.00, -0.00, -1.00, 363.7, 422.0)">r</text><text xml:space="preserve" font-family="CourierNewPSMT" font-size="26.0" fill="#000000" transform="matrix(1.00, 0.00, -0.00, -1.00, 379.3, 422.0)">s</text><text xml:space="preserve" font-family="CourierNewPSMT" font-size="26.0" fill="#000000" transform="matrix(1.00, 0.00, -0.00, -1.00, 394.9, 422.0)">t</text><text xml:space="preserve" font-family="CourierNewPSMT" font-size="26.0" fill="#000000" transform="matrix(1.00, 0.00, -0.00, -1.00, 410.5, 422.0)">C</text><text xml:space="preserve" font-family="CourierNewPSMT" font-size="26.0" fill="#000000" transform="matrix(1.00, 0.00, -0.00, -1.00, 426.1, 422.0)">h</text><text xml:space="preserve" font-family="CourierNewPSMT" font-size="26.0" fill="#000000" transform="matrix(1.00, 0.00, -0.00, -1.00, 441.7, 422.0)">i</text><text xml:space="preserve" font-family="CourierNewPSMT" font-size="26.0" fill="#000000" transform="matrix(1.00, 0.00, -0.00, -1.00, 457.3, 422.0)">l</text><text xml:space="preserve" font-family="CourierNewPSMT" font-size="26.0" fill="#000000" transform="matrix(1.00, 0.00, -0.00, -1.00, 472.9, 422.0)">d</text><text xml:space="preserve" font-family="CourierNewPSMT" font-size="26.0" fill="#000000" transform="matrix(1.00, 0.00, -0.00, -1.00, 488.5, 422.0)">.</text><text xml:space="preserve" font-family="CourierNewPSMT" font-size="26.0" fill="#000000" transform="matrix(1.00, 0.00, -0.00, -1.00, 504.1, 422.0)">n</text><text xml:space="preserve" font-family="CourierNewPSMT" font-size="26.0" fill="#000000" transform="matrix(1.00, 0.00, -0.00, -1.00, 519.7, 422.0)">o</text><text xml:space="preserve" font-family="CourierNewPSMT" font-size="26.0" fill="#000000" transform="matrix(1.00, 0.00, -0.00, -1.00, 535.3, 422.0)">d</text><text xml:space="preserve" font-family="CourierNewPSMT" font-size="26.0" fill="#000000" transform="matrix(1.00, 0.00, -0.00, -1.00, 550.9, 422.0)">e</text><text xml:space="preserve" font-family="CourierNewPSMT" font-size="26.0" fill="#000000" transform="matrix(1.00, 0.00, -0.00, -1.00, 566.5, 422.0)">V</text><text xml:space="preserve" font-family="CourierNewPSMT" font-size="26.0" fill="#000000" transform="matrix(1.00, 0.00, -0.00, -1.00, 582.1, 422.0)">a</text><text xml:space="preserve" font-family="CourierNewPSMT" font-size="26.0" fill="#000000" transform="matrix(1.00, 0.00, -0.00, -1.00, 597.7, 422.0)">l</text><text xml:space="preserve" font-family="CourierNewPSMT" font-size="26.0" fill="#000000" transform="matrix(1.00, 0.00, -0.00, -1.00, 613.3, 422.0)">u</text><text xml:space="preserve" font-family="CourierNewPSMT" font-size="26.0" fill="#000000" transform="matrix(1.00, 0.00, -0.00, -1.00, 628.9, 422.0)">e</text><text xml:space="preserve" font-family="CourierNewPSMT" font-size="26.0" fill="#000000" transform="matrix(1.00, 0.00, -0.00, -1.00, 644.6, 422.0)">.</text><text xml:space="preserve" font-family="CourierNewPSMT" font-size="26.0" fill="#021993" transform="matrix(1.00, 0.00, -0.00, -1.00, 660.1, 422.0)">t</text><text xml:space="preserve" font-family="CourierNewPSMT" font-size="26.0" fill="#021993" transform="matrix(1.00, 0.00, -0.00, -1.00, 675.7, 422.0)">r</text><text xml:space="preserve" font-family="CourierNewPSMT" font-size="26.0" fill="#021993" transform="matrix(1.00, 0.00, -0.00, -1.00, 691.3, 422.0)">i</text><text xml:space="preserve" font-family="CourierNewPSMT" font-size="26.0" fill="#021993" transform="matrix(1.00, 0.00, -0.00, -1.00, 706.9, 422.0)">m</text><text xml:space="preserve" font-family="CourierNewPSMT" font-size="26.0" fill="#000000" transform="matrix(1.00, 0.00, -0.00, -1.00, 722.5, 422.0)">(</text><text xml:space="preserve" font-family="CourierNewPSMT" font-size="26.0" fill="#000000" transform="matrix(1.00, 0.00, -0.00, -1.00, 738.1, 422.0)">)</text><text xml:space="preserve" font-family="CourierNewPSMT" font-size="26.0" fill="#000000" transform="matrix(1.00, 0.00, -0.00, -1.00, 753.7, 422.0)"> </text><text xml:space="preserve" font-family="CourierNewPSMT" font-size="26.0" fill="#000000" transform="matrix(1.00, 0.00, -0.00, -1.00, 769.3, 422.0)">+</text><text xml:space="preserve" font-family="CourierNewPSMT" font-size="26.0" fill="#000000" transform="matrix(1.00, 0.00, -0.00, -1.00, 784.9, 422.0)"> </text><text xml:space="preserve" font-family="CourierNewPSMT" font-size="26.0" fill="#CC1C00" transform="matrix(1.00, 0.00, -0.00, -1.00, 800.5, 422.0)">'</text><text xml:space="preserve" font-family="CourierNewPSMT" font-size="26.0" fill="#CC1C00" transform="matrix(1.00, 0.00, -0.00, -1.00, 816.1, 422.0)"> </text><text xml:space="preserve" font-family="CourierNewPSMT" font-size="26.0" fill="#CC1C00" transform="matrix(1.00, 0.00, -0.00, -1.00, 831.7, 422.0)">c</text><text xml:space="preserve" font-family="CourierNewPSMT" font-size="26.0" fill="#CC1C00" transform="matrix(1.00, 0.00, -0.00, -1.00, 847.3, 422.0)">a</text><text xml:space="preserve" font-family="CourierNewPSMT" font-size="26.0" fill="#CC1C00" transform="matrix(1.00, 0.00, -0.00, -1.00, 862.9, 422.0)">p</text><text xml:space="preserve" font-family="CourierNewPSMT" font-size="26.0" fill="#CC1C00" transform="matrix(1.00, 0.00, -0.00, -1.00, 878.6, 422.0)">t</text><text xml:space="preserve" font-family="CourierNewPSMT" font-size="26.0" fill="#CC1C00" transform="matrix(1.00, 0.00, -0.00, -1.00, 894.2, 422.0)">u</text><text xml:space="preserve" font-family="CourierNewPSMT" font-size="26.0" fill="#CC1C00" transform="matrix(1.00, 0.00, -0.00, -1.00, 909.8, 422.0)">r</text><text xml:space="preserve" font-family="CourierNewPSMT" font-size="26.0" fill="#CC1C00" transform="matrix(1.00, 0.00, -0.00, -1.00, 925.4, 422.0)">e</text><text xml:space="preserve" font-family="CourierNewPSMT" font-size="26.0" fill="#CC1C00" transform="matrix(1.00, 0.00, -0.00, -1.00, 941.0, 422.0)">d</text><text xml:space="preserve" font-family="CourierNewPSMT" font-size="26.0" fill="#CC1C00" transform="matrix(1.00, 0.00, -0.00, -1.00, 956.6, 422.0)">'</text><text xml:space="preserve" font-family="CourierNewPSMT" font-size="26.0" fill="#000000" transform="matrix(1.00, 0.00, -0.00, -1.00, 972.2, 422.0)">)</text><text xml:space="preserve" font-family="CourierNewPSMT" font-size="26.0" fill="#000000" transform="matrix(1.00, 0.00, -0.00, -1.00, 987.8, 422.0)"> </text><text xml:space="preserve" font-family="CourierNewPSMT" font-size="26.0" fill="#000000" transform="matrix(1.00, 0.00, -0.00, -1.00, 36.0, 392.0)">}</text><text xml:space="preserve" font-family="CourierNewPSMT" font-size="26.0" fill="#000000" transform="matrix(1.00, 0.00, -0.00, -1.00, 51.6, 392.0)"> </text><text xml:space="preserve" font-family="CourierNewPS-BoldMT" font-weight="bold" font-size="26.0" fill="#000000" transform="matrix(1.00, 0.00, -0.00, -1.00, 36.0, 332.0)">f</text><text xml:space="preserve" font-family="CourierNewPS-BoldMT" font-weight="bold" font-size="26.0" fill="#000000" transform="matrix(1.00, 0.00, -0.00, -1.00, 51.6, 332.0)">o</text><text xml:space="preserve" font-family="CourierNewPS-BoldMT" font-weight="bold" font-size="26.0" fill="#000000" transform="matrix(1.00, 0.00, -0.00, -1.00, 67.2, 332.0)">r</text><text xml:space="preserve" font-family="CourierNewPSMT" font-size="26.0" fill="#000000" transform="matrix(1.00, 0.00, -0.00, -1.00, 82.8, 332.0)"> </text><text xml:space="preserve" font-family="CourierNewPSMT" font-size="26.0" fill="#000000" transform="matrix(1.00, 0.00, -0.00, -1.00, 98.4, 332.0)">(</text><text xml:space="preserve" font-family="CourierNewPS-BoldMT" font-weight="bold" font-size="26.0" fill="#000000" transform="matrix(1.00, 0.00, -0.00, -1.00, 114.0, 332.0)">l</text><text xml:space="preserve" font-family="CourierNewPS-BoldMT" font-weight="bold" font-size="26.0" fill="#000000" transform="matrix(1.00, 0.00, -0.00, -1.00, 129.6, 332.0)">e</text><text xml:space="preserve" font-family="CourierNewPS-BoldMT" font-weight="bold" font-size="26.0" fill="#000000" transform="matrix(1.00, 0.00, -0.00, -1.00, 145.2, 332.0)">t</text><text xml:space="preserve" font-family="CourierNewPSMT" font-size="26.0" fill="#000000" transform="matrix(1.00, 0.00, -0.00, -1.00, 160.8, 332.0)"> </text><text xml:space="preserve" font-family="CourierNewPSMT" font-size="26.0" fill="#000000" transform="matrix(1.00, 0.00, -0.00, -1.00, 176.4, 332.0)">i</text><text xml:space="preserve" font-family="CourierNewPSMT" font-size="26.0" fill="#000000" transform="matrix(1.00, 0.00, -0.00, -1.00, 192.0, 332.0)"> </text><text xml:space="preserve" font-family="CourierNewPSMT" font-size="26.0" fill="#000000" transform="matrix(1.00, 0.00, -0.00, -1.00, 207.6, 332.0)">=</text><text xml:space="preserve" font-family="CourierNewPSMT" font-size="26.0" fill="#000000" transform="matrix(1.00, 0.00, -0.00, -1.00, 223.2, 332.0)"> </text><text xml:space="preserve" font-family="CourierNewPSMT" font-size="26.0" fill="#BE8F00" transform="matrix(1.00, 0.00, -0.00, -1.00, 238.8, 332.0)">0</text><text xml:space="preserve" font-family="CourierNewPSMT" font-size="26.0" fill="#000000" transform="matrix(1.00, 0.00, -0.00, -1.00, 254.4, 332.0)">;</text><text xml:space="preserve" font-family="CourierNewPSMT" font-size="26.0" fill="#000000" transform="matrix(1.00, 0.00, -0.00, -1.00, 270.0, 332.0)"> </text><text xml:space="preserve" font-family="CourierNewPSMT" font-size="26.0" fill="#000000" transform="matrix(1.00, 0.00, -0.00, -1.00, 285.6, 332.0)">i</text><text xml:space="preserve" font-family="CourierNewPSMT" font-size="26.0" fill="#000000" transform="matrix(1.00, 0.00, -0.00, -1.00, 301.3, 332.0)"> </text><text xml:space="preserve" font-family="CourierNewPSMT" font-size="26.0" fill="#000000" transform="matrix(1.00, 0.00, -0.00, -1.00, 316.9, 332.0)">&lt;</text><text xml:space="preserve" font-family="CourierNewPSMT" font-size="26.0" fill="#000000" transform="matrix(1.00, 0.00, -0.00, -1.00, 332.5, 332.0)"> </text><text xml:space="preserve" font-family="CourierNewPSMT" font-size="26.0" fill="#000000" transform="matrix(1.00, 0.00, -0.00, -1.00, 348.1, 332.0)">d</text><text xml:space="preserve" font-family="CourierNewPSMT" font-size="26.0" fill="#000000" transform="matrix(1.00, 0.00, -0.00, -1.00, 363.7, 332.0)">i</text><text xml:space="preserve" font-family="CourierNewPSMT" font-size="26.0" fill="#000000" transform="matrix(1.00, 0.00, -0.00, -1.00, 379.3, 332.0)">v</text><text xml:space="preserve" font-family="CourierNewPSMT" font-size="26.0" fill="#000000" transform="matrix(1.00, 0.00, -0.00, -1.00, 394.9, 332.0)">s</text><text xml:space="preserve" font-family="CourierNewPSMT" font-size="26.0" fill="#000000" transform="matrix(1.00, 0.00, -0.00, -1.00, 410.5, 332.0)">.</text><text xml:space="preserve" font-family="CourierNewPSMT" font-size="26.0" fill="#000000" transform="matrix(1.00, 0.00, -0.00, -1.00, 426.1, 332.0)">l</text><text xml:space="preserve" font-family="CourierNewPSMT" font-size="26.0" fill="#000000" transform="matrix(1.00, 0.00, -0.00, -1.00, 441.7, 332.0)">e</text><text xml:space="preserve" font-family="CourierNewPSMT" font-size="26.0" fill="#000000" transform="matrix(1.00, 0.00, -0.00, -1.00, 457.3, 332.0)">n</text><text xml:space="preserve" font-family="CourierNewPSMT" font-size="26.0" fill="#000000" transform="matrix(1.00, 0.00, -0.00, -1.00, 472.9, 332.0)">g</text><text xml:space="preserve" font-family="CourierNewPSMT" font-size="26.0" fill="#000000" transform="matrix(1.00, 0.00, -0.00, -1.00, 488.5, 332.0)">t</text><text xml:space="preserve" font-family="CourierNewPSMT" font-size="26.0" fill="#000000" transform="matrix(1.00, 0.00, -0.00, -1.00, 504.1, 332.0)">h</text><text xml:space="preserve" font-family="CourierNewPSMT" font-size="26.0" fill="#000000" transform="matrix(1.00, 0.00, -0.00, -1.00, 519.7, 332.0)">;</text><text xml:space="preserve" font-family="CourierNewPSMT" font-size="26.0" fill="#000000" transform="matrix(1.00, 0.00, -0.00, -1.00, 535.3, 332.0)"> </text><text xml:space="preserve" font-family="CourierNewPSMT" font-size="26.0" fill="#000000" transform="matrix(1.00, 0.00, -0.00, -1.00, 550.9, 332.0)">i</text><text xml:space="preserve" font-family="CourierNewPSMT" font-size="26.0" fill="#000000" transform="matrix(1.00, 0.00, -0.00, -1.00, 566.5, 332.0)">+</text><text xml:space="preserve" font-family="CourierNewPSMT" font-size="26.0" fill="#000000" transform="matrix(1.00, 0.00, -0.00, -1.00, 582.1, 332.0)">+</text><text xml:space="preserve" font-family="CourierNewPSMT" font-size="26.0" fill="#000000" transform="matrix(1.00, 0.00, -0.00, -1.00, 597.7, 332.0)">)</text><text xml:space="preserve" font-family="CourierNewPSMT" font-size="26.0" fill="#000000" transform="matrix(1.00, 0.00, -0.00, -1.00, 613.4, 332.0)"> </text><text xml:space="preserve" font-family="CourierNewPSMT" font-size="26.0" fill="#000000" transform="matrix(1.00, 0.00, -0.00, -1.00, 629.0, 332.0)">{</text><text xml:space="preserve" font-family="CourierNewPSMT" font-size="26.0" fill="#000000" transform="matrix(1.00, 0.00, -0.00, -1.00, 644.6, 332.0)"> </text><text xml:space="preserve" font-family="CourierNewPSMT" font-size="26.0" fill="#000000" transform="matrix(1.00, 0.00, -0.00, -1.00, 36.0, 302.0)"> </text><text xml:space="preserve" font-family="CourierNewPSMT" font-size="26.0" fill="#000000" transform="matrix(1.00, 0.00, -0.00, -1.00, 51.6, 302.0)"> </text><text xml:space="preserve" font-family="CourierNewPS-ItalicMT" font-style="italic" font-size="26.0" fill="#959395" transform="matrix(1.00, 0.00, -0.00, -1.00, 67.2, 302.0)">/</text><text xml:space="preserve" font-family="CourierNewPS-ItalicMT" font-style="italic" font-size="26.0" fill="#959395" transform="matrix(1.00, 0.00, -0.00, -1.00, 82.8, 302.0)">/</text><text xml:space="preserve" font-family="CourierNewPS-ItalicMT" font-style="italic" font-size="26.0" fill="#959395" transform="matrix(1.00, 0.00, -0.00, -1.00, 98.4, 302.0)"> </text><text xml:space="preserve" font-family="CourierNewPS-ItalicMT" font-style="italic" font-size="26.0" fill="#959395" transform="matrix(1.00, 0.00, -0.00, -1.00, 114.0, 302.0)">s</text><text xml:space="preserve" font-family="CourierNewPS-ItalicMT" font-style="italic" font-size="26.0" fill="#959395" transform="matrix(1.00, 0.00, -0.00, -1.00, 129.6, 302.0)">e</text><text xml:space="preserve" font-family="CourierNewPS-ItalicMT" font-style="italic" font-size="26.0" fill="#959395" transform="matrix(1.00, 0.00, -0.00, -1.00, 145.2, 302.0)">t</text><text xml:space="preserve" font-family="CourierNewPS-ItalicMT" font-style="italic" font-size="26.0" fill="#959395" transform="matrix(1.00, 0.00, -0.00, -1.00, 160.8, 302.0)"> </text><text xml:space="preserve" font-family="CourierNewPS-ItalicMT" font-style="italic" font-size="26.0" fill="#959395" transform="matrix(1.00, 0.00, -0.00, -1.00, 176.4, 302.0)">t</text><text xml:space="preserve" font-family="CourierNewPS-ItalicMT" font-style="italic" font-size="26.0" fill="#959395" transform="matrix(1.00, 0.00, -0.00, -1.00, 192.0, 302.0)">h</text><text xml:space="preserve" font-family="CourierNewPS-ItalicMT" font-style="italic" font-size="26.0" fill="#959395" transform="matrix(1.00, 0.00, -0.00, -1.00, 207.7, 302.0)">e</text><text xml:space="preserve" font-family="CourierNewPS-ItalicMT" font-style="italic" font-size="26.0" fill="#959395" transform="matrix(1.00, 0.00, -0.00, -1.00, 223.3, 302.0)"> </text><text xml:space="preserve" font-family="CourierNewPS-ItalicMT" font-style="italic" font-size="26.0" fill="#959395" transform="matrix(1.00, 0.00, -0.00, -1.00, 238.9, 302.0)">t</text><text xml:space="preserve" font-family="CourierNewPS-ItalicMT" font-style="italic" font-size="26.0" fill="#959395" transform="matrix(1.00, 0.00, -0.00, -1.00, 254.5, 302.0)">h</text><text xml:space="preserve" font-family="CourierNewPS-ItalicMT" font-style="italic" font-size="26.0" fill="#959395" transform="matrix(1.00, 0.00, -0.00, -1.00, 270.1, 302.0)">i</text><text xml:space="preserve" font-family="CourierNewPS-ItalicMT" font-style="italic" font-size="26.0" fill="#959395" transform="matrix(1.00, 0.00, -0.00, -1.00, 285.7, 302.0)">r</text><text xml:space="preserve" font-family="CourierNewPS-ItalicMT" font-style="italic" font-size="26.0" fill="#959395" transform="matrix(1.00, 0.00, -0.00, -1.00, 301.3, 302.0)">d</text><text xml:space="preserve" font-family="CourierNewPS-ItalicMT" font-style="italic" font-size="26.0" fill="#959395" transform="matrix(1.00, 0.00, -0.00, -1.00, 316.9, 302.0)"> </text><text xml:space="preserve" font-family="CourierNewPS-ItalicMT" font-style="italic" font-size="26.0" fill="#959395" transform="matrix(1.00, 0.00, -0.00, -1.00, 332.5, 302.0)">a</text><text xml:space="preserve" font-family="CourierNewPS-ItalicMT" font-style="italic" font-size="26.0" fill="#959395" transform="matrix(1.00, 0.00, -0.00, -1.00, 348.1, 302.0)">r</text><text xml:space="preserve" font-family="CourierNewPS-ItalicMT" font-style="italic" font-size="26.0" fill="#959395" transform="matrix(1.00, 0.00, -0.00, -1.00, 363.7, 302.0)">g</text><text xml:space="preserve" font-family="CourierNewPS-ItalicMT" font-style="italic" font-size="26.0" fill="#959395" transform="matrix(1.00, 0.00, -0.00, -1.00, 379.3, 302.0)">u</text><text xml:space="preserve" font-family="CourierNewPS-ItalicMT" font-style="italic" font-size="26.0" fill="#959395" transform="matrix(1.00, 0.00, -0.00, -1.00, 394.9, 302.0)">m</text><text xml:space="preserve" font-family="CourierNewPS-ItalicMT" font-style="italic" font-size="26.0" fill="#959395" transform="matrix(1.00, 0.00, -0.00, -1.00, 410.5, 302.0)">e</text><text xml:space="preserve" font-family="CourierNewPS-ItalicMT" font-style="italic" font-size="26.0" fill="#959395" transform="matrix(1.00, 0.00, -0.00, -1.00, 426.1, 302.0)">n</text><text xml:space="preserve" font-family="CourierNewPS-ItalicMT" font-style="italic" font-size="26.0" fill="#959395" transform="matrix(1.00, 0.00, -0.00, -1.00, 441.7, 302.0)">t</text><text xml:space="preserve" font-family="CourierNewPS-ItalicMT" font-style="italic" font-size="26.0" fill="#959395" transform="matrix(1.00, 0.00, -0.00, -1.00, 457.3, 302.0)"> </text><text xml:space="preserve" font-family="CourierNewPS-ItalicMT" font-style="italic" font-size="26.0" fill="#959395" transform="matrix(1.00, 0.00, -0.00, -1.00, 472.9, 302.0)">t</text><text xml:space="preserve" font-family="CourierNewPS-ItalicMT" font-style="italic" font-size="26.0" fill="#959395" transform="matrix(1.00, 0.00, -0.00, -1.00, 488.5, 302.0)">o</text><text xml:space="preserve" font-family="CourierNewPS-ItalicMT" font-style="italic" font-size="26.0" fill="#959395" transform="matrix(1.00, 0.00, -0.00, -1.00, 504.1, 302.0)"> </text><text xml:space="preserve" font-family="CourierNewPS-ItalicMT" font-style="italic" font-size="26.0" fill="#959395" transform="matrix(1.00, 0.00, -0.00, -1.00, 519.8, 302.0)">`</text><text xml:space="preserve" font-family="CourierNewPS-ItalicMT" font-style="italic" font-size="26.0" fill="#959395" transform="matrix(1.00, 0.00, -0.00, -1.00, 535.4, 302.0)">t</text><text xml:space="preserve" font-family="CourierNewPS-ItalicMT" font-style="italic" font-size="26.0" fill="#959395" transform="matrix(1.00, 0.00, -0.00, -1.00, 551.0, 302.0)">r</text><text xml:space="preserve" font-family="CourierNewPS-ItalicMT" font-style="italic" font-size="26.0" fill="#959395" transform="matrix(1.00, 0.00, -0.00, -1.00, 566.6, 302.0)">u</text><text xml:space="preserve" font-family="CourierNewPS-ItalicMT" font-style="italic" font-size="26.0" fill="#959395" transform="matrix(1.00, 0.00, -0.00, -1.00, 582.2, 302.0)">e</text><text xml:space="preserve" font-family="CourierNewPS-ItalicMT" font-style="italic" font-size="26.0" fill="#959395" transform="matrix(1.00, 0.00, -0.00, -1.00, 597.8, 302.0)">`</text><text xml:space="preserve" font-family="CourierNewPS-ItalicMT" font-style="italic" font-size="26.0" fill="#959395" transform="matrix(1.00, 0.00, -0.00, -1.00, 613.4, 302.0)">!</text><text xml:space="preserve" font-family="CourierNewPSMT" font-size="26.0" fill="#000000" transform="matrix(1.00, 0.00, -0.00, -1.00, 628.9, 302.0)"> </text><text xml:space="preserve" font-family="CourierNewPSMT" font-size="26.0" fill="#000000" transform="matrix(1.00, 0.00, -0.00, -1.00, 36.0, 272.0)"> </text><text xml:space="preserve" font-family="CourierNewPSMT" font-size="26.0" fill="#000000" transform="matrix(1.00, 0.00, -0.00, -1.00, 51.6, 272.0)"> </text><text xml:space="preserve" font-family="CourierNewPSMT" font-size="26.0" fill="#000000" transform="matrix(1.00, 0.00, -0.00, -1.00, 67.2, 272.0)">d</text><text xml:space="preserve" font-family="CourierNewPSMT" font-size="26.0" fill="#000000" transform="matrix(1.00, 0.00, -0.00, -1.00, 82.8, 272.0)">i</text><text xml:space="preserve" font-family="CourierNewPSMT" font-size="26.0" fill="#000000" transform="matrix(1.00, 0.00, -0.00, -1.00, 98.4, 272.0)">v</text><text xml:space="preserve" font-family="CourierNewPSMT" font-size="26.0" fill="#000000" transform="matrix(1.00, 0.00, -0.00, -1.00, 114.0, 272.0)">s</text><text xml:space="preserve" font-family="CourierNewPSMT" font-size="26.0" fill="#000000" transform="matrix(1.00, 0.00, -0.00, -1.00, 129.6, 272.0)">[</text><text xml:space="preserve" font-family="CourierNewPSMT" font-size="26.0" fill="#000000" transform="matrix(1.00, 0.00, -0.00, -1.00, 145.2, 272.0)">i</text><text xml:space="preserve" font-family="CourierNewPSMT" font-size="26.0" fill="#000000" transform="matrix(1.00, 0.00, -0.00, -1.00, 160.8, 272.0)">]</text><text xml:space="preserve" font-family="CourierNewPSMT" font-size="26.0" fill="#000000" transform="matrix(1.00, 0.00, -0.00, -1.00, 176.4, 272.0)">.</text><text xml:space="preserve" font-family="CourierNewPSMT" font-size="26.0" fill="#021993" transform="matrix(1.00, 0.00, -0.00, -1.00, 192.0, 272.0)">a</text><text xml:space="preserve" font-family="CourierNewPSMT" font-size="26.0" fill="#021993" transform="matrix(1.00, 0.00, -0.00, -1.00, 207.6, 272.0)">d</text><text xml:space="preserve" font-family="CourierNewPSMT" font-size="26.0" fill="#021993" transform="matrix(1.00, 0.00, -0.00, -1.00, 223.2, 272.0)">d</text><text xml:space="preserve" font-family="CourierNewPSMT" font-size="26.0" fill="#021993" transform="matrix(1.00, 0.00, -0.00, -1.00, 238.8, 272.0)">E</text><text xml:space="preserve" font-family="CourierNewPSMT" font-size="26.0" fill="#021993" transform="matrix(1.00, 0.00, -0.00, -1.00, 254.4, 272.0)">v</text><text xml:space="preserve" font-family="CourierNewPSMT" font-size="26.0" fill="#021993" transform="matrix(1.00, 0.00, -0.00, -1.00, 270.1, 272.0)">e</text><text xml:space="preserve" font-family="CourierNewPSMT" font-size="26.0" fill="#021993" transform="matrix(1.00, 0.00, -0.00, -1.00, 285.7, 272.0)">n</text><text xml:space="preserve" font-family="CourierNewPSMT" font-size="26.0" fill="#021993" transform="matrix(1.00, 0.00, -0.00, -1.00, 301.3, 272.0)">t</text><text xml:space="preserve" font-family="CourierNewPSMT" font-size="26.0" fill="#021993" transform="matrix(1.00, 0.00, -0.00, -1.00, 316.9, 272.0)">L</text><text xml:space="preserve" font-family="CourierNewPSMT" font-size="26.0" fill="#021993" transform="matrix(1.00, 0.00, -0.00, -1.00, 332.5, 272.0)">i</text><text xml:space="preserve" font-family="CourierNewPSMT" font-size="26.0" fill="#021993" transform="matrix(1.00, 0.00, -0.00, -1.00, 348.1, 272.0)">s</text><text xml:space="preserve" font-family="CourierNewPSMT" font-size="26.0" fill="#021993" transform="matrix(1.00, 0.00, -0.00, -1.00, 363.7, 272.0)">t</text><text xml:space="preserve" font-family="CourierNewPSMT" font-size="26.0" fill="#021993" transform="matrix(1.00, 0.00, -0.00, -1.00, 379.3, 272.0)">e</text><text xml:space="preserve" font-family="CourierNewPSMT" font-size="26.0" fill="#021993" transform="matrix(1.00, 0.00, -0.00, -1.00, 394.9, 272.0)">n</text><text xml:space="preserve" font-family="CourierNewPSMT" font-size="26.0" fill="#021993" transform="matrix(1.00, 0.00, -0.00, -1.00, 410.5, 272.0)">e</text><text xml:space="preserve" font-family="CourierNewPSMT" font-size="26.0" fill="#021993" transform="matrix(1.00, 0.00, -0.00, -1.00, 426.1, 272.0)">r</text><text xml:space="preserve" font-family="CourierNewPSMT" font-size="26.0" fill="#000000" transform="matrix(1.00, 0.00, -0.00, -1.00, 441.7, 272.0)">(</text><text xml:space="preserve" font-family="CourierNewPSMT" font-size="26.0" fill="#CC1C00" transform="matrix(1.00, 0.00, -0.00, -1.00, 457.3, 272.0)">'</text><text xml:space="preserve" font-family="CourierNewPSMT" font-size="26.0" fill="#CC1C00" transform="matrix(1.00, 0.00, -0.00, -1.00, 472.9, 272.0)">c</text><text xml:space="preserve" font-family="CourierNewPSMT" font-size="26.0" fill="#CC1C00" transform="matrix(1.00, 0.00, -0.00, -1.00, 488.5, 272.0)">l</text><text xml:space="preserve" font-family="CourierNewPSMT" font-size="26.0" fill="#CC1C00" transform="matrix(1.00, 0.00, -0.00, -1.00, 504.1, 272.0)">i</text><text xml:space="preserve" font-family="CourierNewPSMT" font-size="26.0" fill="#CC1C00" transform="matrix(1.00, 0.00, -0.00, -1.00, 519.7, 272.0)">c</text><text xml:space="preserve" font-family="CourierNewPSMT" font-size="26.0" fill="#CC1C00" transform="matrix(1.00, 0.00, -0.00, -1.00, 535.3, 272.0)">k</text><text xml:space="preserve" font-family="CourierNewPSMT" font-size="26.0" fill="#CC1C00" transform="matrix(1.00, 0.00, -0.00, -1.00, 550.9, 272.0)">'</text><text xml:space="preserve" font-family="CourierNewPSMT" font-size="26.0" fill="#000000" transform="matrix(1.00, 0.00, -0.00, -1.00, 566.5, 272.0)">,</text><text xml:space="preserve" font-family="CourierNewPSMT" font-size="26.0" fill="#000000" transform="matrix(1.00, 0.00, -0.00, -1.00, 582.1, 272.0)"> </text><text xml:space="preserve" font-family="CourierNewPSMT" font-size="26.0" fill="#000000" transform="matrix(1.00, 0.00, -0.00, -1.00, 597.7, 272.0)">c</text><text xml:space="preserve" font-family="CourierNewPSMT" font-size="26.0" fill="#000000" transform="matrix(1.00, 0.00, -0.00, -1.00, 613.3, 272.0)">a</text><text xml:space="preserve" font-family="CourierNewPSMT" font-size="26.0" fill="#000000" transform="matrix(1.00, 0.00, -0.00, -1.00, 628.9, 272.0)">p</text><text xml:space="preserve" font-family="CourierNewPSMT" font-size="26.0" fill="#000000" transform="matrix(1.00, 0.00, -0.00, -1.00, 644.5, 272.0)">t</text><text xml:space="preserve" font-family="CourierNewPSMT" font-size="26.0" fill="#000000" transform="matrix(1.00, 0.00, -0.00, -1.00, 660.1, 272.0)">u</text><text xml:space="preserve" font-family="CourierNewPSMT" font-size="26.0" fill="#000000" transform="matrix(1.00, 0.00, -0.00, -1.00, 675.7, 272.0)">r</text><text xml:space="preserve" font-family="CourierNewPSMT" font-size="26.0" fill="#000000" transform="matrix(1.00, 0.00, -0.00, -1.00, 691.3, 272.0)">e</text><text xml:space="preserve" font-family="CourierNewPSMT" font-size="26.0" fill="#000000" transform="matrix(1.00, 0.00, -0.00, -1.00, 706.9, 272.0)">,</text><text xml:space="preserve" font-family="CourierNewPSMT" font-size="26.0" fill="#000000" transform="matrix(1.00, 0.00, -0.00, -1.00, 722.5, 272.0)"> </text><text xml:space="preserve" font-family="CourierNewPS-BoldMT" font-weight="bold" font-size="26.0" fill="#000000" transform="matrix(1.00, 0.00, -0.00, -1.00, 738.1, 272.0)">t</text><text xml:space="preserve" font-family="CourierNewPS-BoldMT" font-weight="bold" font-size="26.0" fill="#000000" transform="matrix(1.00, 0.00, -0.00, -1.00, 753.7, 272.0)">r</text><text xml:space="preserve" font-family="CourierNewPS-BoldMT" font-weight="bold" font-size="26.0" fill="#000000" transform="matrix(1.00, 0.00, -0.00, -1.00, 769.3, 272.0)">u</text><text xml:space="preserve" font-family="CourierNewPS-BoldMT" font-weight="bold" font-size="26.0" fill="#000000" transform="matrix(1.00, 0.00, -0.00, -1.00, 784.9, 272.0)">e</text><text xml:space="preserve" font-family="CourierNewPSMT" font-size="26.0" fill="#000000" transform="matrix(1.00, 0.00, -0.00, -1.00, 800.5, 272.0)">)</text><text xml:space="preserve" font-family="CourierNewPSMT" font-size="26.0" fill="#000000" transform="matrix(1.00, 0.00, -0.00, -1.00, 816.1, 272.0)"> </text><text xml:space="preserve" font-family="CourierNewPSMT" font-size="26.0" fill="#000000" transform="matrix(1.00, 0.00, -0.00, -1.00, 36.0, 242.0)">}</text><text xml:space="preserve" font-family="CourierNewPSMT" font-size="26.0" fill="#000000" transform="matrix(1.00, 0.00, -0.00, -1.00, 51.6, 242.0)"> </text></g></g></g></svg>