<?xml version="1.0" encoding="UTF-8" standalone="no"?><svg xmlns="http://www.w3.org/2000/svg" xmlns:xlink="http://www.w3.org/1999/xlink" clip-rule="evenodd" stroke-miterlimit="4.00" viewBox="0 0 1024 768"><desc>SVG generated by Keynote</desc><defs></defs><g transform="matrix(1.00, 0.00, -0.00, -1.00, 0.0, 768.0)"><path d="M 0.0 768.0 L 1024.0 768.0 L 1024.0 0.0 L 0.0 0.0 Z M 0.0 768.0 " fill="#FEFFFF"></path><text xml:space="preserve" font-family="CourierNewPSMT" font-size="72.0" fill="#BE8F00" transform="matrix(1.00, 0.00, -0.00, -1.00, 309.0, 570.0)">5</text><text xml:space="preserve" font-family="CourierNewPSMT" font-size="72.0" fill="#000000" transform="matrix(1.00, 0.00, -0.00, -1.00, 352.2, 570.0)"> </text><text xml:space="preserve" font-family="CourierNewPSMT" font-size="72.0" fill="#000000" transform="matrix(1.00, 0.00, -0.00, -1.00, 395.4, 570.0)">b</text><text xml:space="preserve" font-family="CourierNewPSMT" font-size="72.0" fill="#000000" transform="matrix(1.00, 0.00, -0.00, -1.00, 438.6, 570.0)">u</text><text xml:space="preserve" font-family="CourierNewPSMT" font-size="72.0" fill="#000000" transform="matrix(1.00, 0.00, -0.00, -1.00, 481.8, 570.0)">b</text><text xml:space="preserve" font-family="CourierNewPSMT" font-size="72.0" fill="#000000" transform="matrix(1.00, 0.00, -0.00, -1.00, 525.1, 570.0)">b</text><text xml:space="preserve" font-family="CourierNewPSMT" font-size="72.0" fill="#000000" transform="matrix(1.00, 0.00, -0.00, -1.00, 568.3, 570.0)">l</text><text xml:space="preserve" font-family="CourierNewPSMT" font-size="72.0" fill="#000000" transform="matrix(1.00, 0.00, -0.00, -1.00, 611.5, 570.0)">e</text><text xml:space="preserve" font-family="CourierNewPSMT" font-size="72.0" fill="#000000" transform="matrix(1.00, 0.00, -0.00, -1.00, 654.7, 570.0)">d</text><text xml:space="preserve" font-family="CourierNewPSMT" font-size="72.0" fill="#000000" transform="matrix(1.00, 0.00, -0.00, -1.00, 697.9, 570.0)"> </text><text xml:space="preserve" font-family="CourierNewPSMT" font-size="72.0" fill="#BE8F00" transform="matrix(1.00, 0.00, -0.00, -1.00, 309.0, 488.0)">4</text><text xml:space="preserve" font-family="CourierNewPSMT" font-size="72.0" fill="#000000" transform="matrix(1.00, 0.00, -0.00, -1.00, 352.2, 488.0)"> </text><text xml:space="preserve" font-family="CourierNewPSMT" font-size="72.0" fill="#000000" transform="matrix(1.00, 0.00, -0.00, -1.00, 395.4, 488.0)">b</text><text xml:space="preserve" font-family="CourierNewPSMT" font-size="72.0" fill="#000000" transform="matrix(1.00, 0.00, -0.00, -1.00, 438.6, 488.0)">u</text><text xml:space="preserve" font-family="CourierNewPSMT" font-size="72.0" fill="#000000" transform="matrix(1.00, 0.00, -0.00, -1.00, 481.8, 488.0)">b</text><text xml:space="preserve" font-family="CourierNewPSMT" font-size="72.0" fill="#000000" transform="matrix(1.00, 0.00, -0.00, -1.00, 525.1, 488.0)">b</text><text xml:space="preserve" font-family="CourierNewPSMT" font-size="72.0" fill="#000000" transform="matrix(1.00, 0.00, -0.00, -1.00, 568.3, 488.0)">l</text><text xml:space="preserve" font-family="CourierNewPSMT" font-size="72.0" fill="#000000" transform="matrix(1.00, 0.00, -0.00, -1.00, 611.5, 488.0)">e</text><text xml:space="preserve" font-family="CourierNewPSMT" font-size="72.0" fill="#000000" transform="matrix(1.00, 0.00, -0.00, -1.00, 654.7, 488.0)">d</text><text xml:space="preserve" font-family="CourierNewPSMT" font-size="72.0" fill="#000000" transform="matrix(1.00, 0.00, -0.00, -1.00, 697.9, 488.0)"> </text><text xml:space="preserve" font-family="CourierNewPSMT" font-size="72.0" fill="#BE8F00" transform="matrix(1.00, 0.00, -0.00, -1.00, 309.0, 406.0)">3</text><text xml:space="preserve" font-family="CourierNewPSMT" font-size="72.0" fill="#000000" transform="matrix(1.00, 0.00, -0.00, -1.00, 352.2, 406.0)"> </text><text xml:space="preserve" font-family="CourierNewPSMT" font-size="72.0" fill="#000000" transform="matrix(1.00, 0.00, -0.00, -1.00, 395.4, 406.0)">b</text><text xml:space="preserve" font-family="CourierNewPSMT" font-size="72.0" fill="#000000" transform="matrix(1.00, 0.00, -0.00, -1.00, 438.6, 406.0)">u</text><text xml:space="preserve" font-family="CourierNewPSMT" font-size="72.0" fill="#000000" transform="matrix(1.00, 0.00, -0.00, -1.00, 481.8, 406.0)">b</text><text xml:space="preserve" font-family="CourierNewPSMT" font-size="72.0" fill="#000000" transform="matrix(1.00, 0.00, -0.00, -1.00, 525.1, 406.0)">b</text><text xml:space="preserve" font-family="CourierNewPSMT" font-size="72.0" fill="#000000" transform="matrix(1.00, 0.00, -0.00, -1.00, 568.3, 406.0)">l</text><text xml:space="preserve" font-family="CourierNewPSMT" font-size="72.0" fill="#000000" transform="matrix(1.00, 0.00, -0.00, -1.00, 611.5, 406.0)">e</text><text xml:space="preserve" font-family="CourierNewPSMT" font-size="72.0" fill="#000000" transform="matrix(1.00, 0.00, -0.00, -1.00, 654.7, 406.0)">d</text><text xml:space="preserve" font-family="CourierNewPSMT" font-size="72.0" fill="#000000" transform="matrix(1.00, 0.00, -0.00, -1.00, 697.9, 406.0)"> </text><text xml:space="preserve" font-family="CourierNewPSMT" font-size="72.0" fill="#BE8F00" transform="matrix(1.00, 0.00, -0.00, -1.00, 309.0, 324.0)">2</text><text xml:space="preserve" font-family="CourierNewPSMT" font-size="72.0" fill="#000000" transform="matrix(1.00, 0.00, -0.00, -1.00, 352.2, 324.0)"> </text><text xml:space="preserve" font-family="CourierNewPSMT" font-size="72.0" fill="#000000" transform="matrix(1.00, 0.00, -0.00, -1.00, 395.4, 324.0)">b</text><text xml:space="preserve" font-family="CourierNewPSMT" font-size="72.0" fill="#000000" transform="matrix(1.00, 0.00, -0.00, -1.00, 438.6, 324.0)">u</text><text xml:space="preserve" font-family="CourierNewPSMT" font-size="72.0" fill="#000000" transform="matrix(1.00, 0.00, -0.00, -1.00, 481.8, 324.0)">b</text><text xml:space="preserve" font-family="CourierNewPSMT" font-size="72.0" fill="#000000" transform="matrix(1.00, 0.00, -0.00, -1.00, 525.1, 324.0)">b</text><text xml:space="preserve" font-family="CourierNewPSMT" font-size="72.0" fill="#000000" transform="matrix(1.00, 0.00, -0.00, -1.00, 568.3, 324.0)">l</text><text xml:space="preserve" font-family="CourierNewPSMT" font-size="72.0" fill="#000000" transform="matrix(1.00, 0.00, -0.00, -1.00, 611.5, 324.0)">e</text><text xml:space="preserve" font-family="CourierNewPSMT" font-size="72.0" fill="#000000" transform="matrix(1.00, 0.00, -0.00, -1.00, 654.7, 324.0)">d</text><text xml:space="preserve" font-family="CourierNewPSMT" font-size="72.0" fill="#000000" transform="matrix(1.00, 0.00, -0.00, -1.00, 697.9, 324.0)"> </text><text xml:space="preserve" font-family="CourierNewPSMT" font-size="72.0" fill="#BE8F00" transform="matrix(1.00, 0.00, -0.00, -1.00, 309.0, 242.0)">1</text><text xml:space="preserve" font-family="CourierNewPSMT" font-size="72.0" fill="#000000" transform="matrix(1.00, 0.00, -0.00, -1.00, 352.2, 242.0)"> </text><text xml:space="preserve" font-family="CourierNewPSMT" font-size="72.0" fill="#000000" transform="matrix(1.00, 0.00, -0.00, -1.00, 395.4, 242.0)">b</text><text xml:space="preserve" font-family="CourierNewPSMT" font-size="72.0" fill="#000000" transform="matrix(1.00, 0.00, -0.00, -1.00, 438.6, 242.0)">u</text><text xml:space="preserve" font-family="CourierNewPSMT" font-size="72.0" fill="#000000" transform="matrix(1.00, 0.00, -0.00, -1.00, 481.8, 242.0)">b</text><text xml:space="preserve" font-family="CourierNewPSMT" font-size="72.0" fill="#000000" transform="matrix(1.00, 0.00, -0.00, -1.00, 525.1, 242.0)">b</text><text xml:space="preserve" font-family="CourierNewPSMT" font-size="72.0" fill="#000000" transform="matrix(1.00, 0.00, -0.00, -1.00, 568.3, 242.0)">l</text><text xml:space="preserve" font-family="CourierNewPSMT" font-size="72.0" fill="#000000" transform="matrix(1.00, 0.00, -0.00, -1.00, 611.5, 242.0)">e</text><text xml:space="preserve" font-family="CourierNewPSMT" font-size="72.0" fill="#000000" transform="matrix(1.00, 0.00, -0.00, -1.00, 654.7, 242.0)">d</text><text xml:space="preserve" font-family="CourierNewPSMT" font-size="72.0" fill="#000000" transform="matrix(1.00, 0.00, -0.00, -1.00, 697.9, 242.0)"> </text></g></svg>